EncodeSansCondensed-ExtraLight.ufo
<glyph name="exclam" format="2">
  <advance width="411.1515151515151"/>
  <unicode hex="0021"/>
  <outline>
    <contour>
      <point x="176.0" y="329.09090909090907" type="line"/>
      <point x="235.3939393939394" y="329.09090909090907" type="line"/>
      <point x="252.0" y="896.4242424242424" type="line"/>
      <point x="252.0" y="1480.0" type="line"/>
      <point x="159.15151515151516" y="1480.0" type="line"/>
      <point x="159.15151515151516" y="896.4242424242424" type="line"/>
    </contour>
    <contour>
      <point x="205.57575757575756" y="-10.606060606060606" type="curve" smooth="yes"/>
      <point x="248.12121212121212" y="-10.606060606060606"/>
      <point x="278.72727272727275" y="17.757575757575758"/>
      <point x="278.72727272727275" y="61.93939393939394" type="curve" smooth="yes"/>
      <point x="278.72727272727275" y="106.12121212121212"/>
      <point x="248.36363636363637" y="136.36363636363637"/>
      <point x="205.57575757575756" y="136.36363636363637" type="curve" smooth="yes"/>
      <point x="162.78787878787878" y="136.36363636363637"/>
      <point x="132.42424242424244" y="106.36363636363636"/>
      <point x="132.42424242424244" y="61.93939393939394" type="curve" smooth="yes"/>
      <point x="132.42424242424244" y="17.515151515151516"/>
      <point x="163.03030303030303" y="-10.606060606060606"/>
    </contour>
  </outline>
</glyph>
<glyph name="numbersign" format="2">
  <advance width="1012.1212121212121"/>
  <unicode hex="0023"/>
  <outline>
    <contour>
      <point x="563.8181818181819" y="0.0" type="line"/>
      <point x="643.2727272727273" y="0.0" type="line"/>
      <point x="767.2727272727273" y="1480.0" type="line"/>
      <point x="687.8181818181819" y="1480.0" type="line"/>
    </contour>
    <contour>
      <point x="90.0" y="487.09090909090907" type="line"/>
      <point x="922.1212121212121" y="487.09090909090907" type="line"/>
      <point x="922.1212121212121" y="566.4242424242424" type="line"/>
      <point x="90.0" y="566.4242424242424" type="line"/>
    </contour>
    <contour>
      <point x="244.84848484848484" y="0.0" type="line"/>
      <point x="324.3030303030303" y="0.0" type="line"/>
      <point x="448.3030303030303" y="1480.0" type="line"/>
      <point x="368.8484848484849" y="1480.0" type="line"/>
    </contour>
    <contour>
      <point x="90.0" y="913.5757575757576" type="line"/>
      <point x="922.1212121212121" y="913.5757575757576" type="line"/>
      <point x="922.1212121212121" y="992.9090909090909" type="line"/>
      <point x="90.0" y="992.9090909090909" type="line"/>
    </contour>
  </outline>
</glyph>
<glyph name="ampersand" format="2">
  <advance width="1263.3939393939395"/>
  <unicode hex="0026"/>
  <outline>
    <contour>
      <point x="1207.6969696969697" y="-20.0" type="line"/>
      <point x="1263.3939393939395" y="45.151515151515156" type="line"/>
      <point x="605.2727272727273" y="662.3030303030303" type="line" smooth="yes"/>
      <point x="415.6363636363636" y="841.4545454545455"/>
      <point x="365.09090909090907" y="947.2121212121212"/>
      <point x="365.09090909090907" y="1095.5151515151515" type="curve" smooth="yes"/>
      <point x="365.09090909090907" y="1307.6363636363637"/>
      <point x="478.06060606060606" y="1416.2424242424242"/>
      <point x="711.5151515151515" y="1416.2424242424242" type="curve" smooth="yes"/>
      <point x="768.1212121212121" y="1416.2424242424242"/>
      <point x="823.939393939394" y="1411.878787878788"/>
      <point x="897.2121212121212" y="1392.3636363636363" type="curve"/>
      <point x="897.2121212121212" y="1476.0" type="line"/>
      <point x="838.2424242424242" y="1490.0"/>
      <point x="775.1515151515151" y="1498.121212121212"/>
      <point x="712.969696969697" y="1498.121212121212" type="curve" smooth="yes"/>
      <point x="422.72727272727275" y="1498.121212121212"/>
      <point x="273.57575757575756" y="1355.5757575757575"/>
      <point x="273.57575757575756" y="1093.5151515151515" type="curve" smooth="yes"/>
      <point x="273.57575757575756" y="920.6060606060606"/>
      <point x="339.45454545454544" y="796.1212121212121"/>
      <point x="549.5757575757576" y="597.1515151515151" type="curve" smooth="yes"/>
    </contour>
    <contour>
      <point x="582.3030303030303" y="-18.0" type="curve" smooth="yes"/>
      <point x="869.6969696969697" y="-18.0"/>
      <point x="1054.4242424242425" y="151.87878787878788"/>
      <point x="1054.4242424242425" y="496.90909090909093" type="curve" smooth="yes"/>
      <point x="1054.4242424242425" y="580.1818181818181"/>
      <point x="1044.4242424242425" y="679.4545454545455"/>
      <point x="1020.7878787878788" y="768.8484848484849" type="curve"/>
      <point x="936.0" y="768.8484848484849" type="line"/>
      <point x="961.5151515151515" y="679.4545454545455"/>
      <point x="973.3939393939394" y="580.060606060606"/>
      <point x="973.3939393939394" y="494.7878787878788" type="curve" smooth="yes"/>
      <point x="973.3939393939394" y="185.5151515151515"/>
      <point x="822.4848484848485" y="61.45454545454545"/>
      <point x="586.969696969697" y="61.45454545454545" type="curve" smooth="yes"/>
      <point x="359.030303030303" y="61.45454545454545"/>
      <point x="226.42424242424244" y="196.96969696969697"/>
      <point x="226.42424242424244" y="412.6666666666667" type="curve" smooth="yes"/>
      <point x="226.42424242424244" y="565.8181818181819"/>
      <point x="293.8787878787879" y="681.8181818181819"/>
      <point x="422.42424242424244" y="754.1212121212121" type="curve"/>
      <point x="378.3636363636364" y="816.060606060606" type="line"/>
      <point x="223.21212121212122" y="732.4848484848485"/>
      <point x="135.15151515151516" y="588.8484848484849"/>
      <point x="135.15151515151516" y="404.1212121212121" type="curve" smooth="yes"/>
      <point x="135.15151515151516" y="148.0"/>
      <point x="306.3636363636364" y="-18.0"/>
    </contour>
  </outline>
</glyph>
<glyph name="quotesingle" format="2">
  <advance width="350.3030303030303"/>
  <unicode hex="0027"/>
  <outline>
    <contour>
      <point x="149.0909090909091" y="947.2727272727273" type="line"/>
      <point x="201.21212121212122" y="947.2727272727273" type="line"/>
      <point x="224.4848484848485" y="1616.0" type="line"/>
      <point x="125.81818181818181" y="1616.0" type="line"/>
    </contour>
  </outline>
</glyph>
<glyph name="parenleft" format="2">
  <advance width="553.7575757575758"/>
  <unicode hex="0028"/>
  <outline>
    <contour>
      <point x="413.3939393939394" y="-440.0" type="curve"/>
      <point x="502.42424242424244" y="-440.0" type="line"/>
      <point x="300.72727272727275" y="-131.0909090909091"/>
      <point x="207.33333333333334" y="216.78787878787878"/>
      <point x="207.33333333333334" y="588.0" type="curve" smooth="yes"/>
      <point x="207.33333333333334" y="959.2121212121212"/>
      <point x="300.72727272727275" y="1307.090909090909"/>
      <point x="502.42424242424244" y="1616.0" type="curve"/>
      <point x="413.3939393939394" y="1616.0" type="line"/>
      <point x="206.72727272727272" y="1311.4545454545455"/>
      <point x="115.33333333333333" y="965.4545454545455"/>
      <point x="115.33333333333333" y="588.0" type="curve" smooth="yes"/>
      <point x="115.33333333333333" y="210.54545454545453"/>
      <point x="206.72727272727272" y="-135.45454545454547"/>
    </contour>
  </outline>
</glyph>
<glyph name="parenright" format="2">
  <advance width="553.7575757575758"/>
  <unicode hex="0029"/>
  <outline>
    <contour>
      <point x="51.333333333333336" y="-440.0" type="curve"/>
      <point x="140.36363636363637" y="-440.0" type="line"/>
      <point x="347.030303030303" y="-135.45454545454547"/>
      <point x="438.42424242424244" y="210.54545454545453"/>
      <point x="438.42424242424244" y="588.0" type="curve" smooth="yes"/>
      <point x="438.42424242424244" y="965.4545454545455"/>
      <point x="347.030303030303" y="1311.4545454545455"/>
      <point x="140.36363636363637" y="1616.0" type="curve"/>
      <point x="51.333333333333336" y="1616.0" type="line"/>
      <point x="253.03030303030303" y="1307.090909090909"/>
      <point x="346.42424242424244" y="959.2121212121212"/>
      <point x="346.42424242424244" y="588.0" type="curve" smooth="yes"/>
      <point x="346.42424242424244" y="216.78787878787878"/>
      <point x="253.03030303030303" y="-131.0909090909091"/>
    </contour>
  </outline>
</glyph>
<glyph name="asterisk" format="2">
  <advance width="839.1515151515151"/>
  <unicode hex="002A"/>
  <outline>
    <contour>
      <point x="452.4848484848485" y="1207.8181818181818" type="line"/>
      <point x="650.6060606060606" y="1254.0" type="line"/>
      <point x="809.1515151515151" y="1305.5151515151515" type="line"/>
      <point x="785.3939393939394" y="1377.1515151515152" type="line"/>
      <point x="628.7272727272727" y="1325.5151515151515" type="line"/>
      <point x="439.8181818181818" y="1245.939393939394" type="line"/>
      <point x="457.6363636363636" y="1449.4545454545455" type="line"/>
      <point x="457.6363636363636" y="1616.0" type="line"/>
      <point x="381.5151515151515" y="1616.0" type="line"/>
      <point x="381.5151515151515" y="1449.4545454545455" type="line"/>
      <point x="399.3333333333333" y="1245.939393939394" type="line"/>
      <point x="210.42424242424244" y="1325.5151515151515" type="line"/>
      <point x="53.75757575757576" y="1377.1515151515152" type="line"/>
      <point x="30.0" y="1305.5151515151515" type="line"/>
      <point x="188.54545454545453" y="1254.0" type="line"/>
      <point x="386.6666666666667" y="1207.8181818181818" type="line"/>
      <point x="253.45454545454547" y="1053.3939393939395" type="line"/>
      <point x="154.42424242424244" y="918.6060606060606" type="line"/>
      <point x="216.24242424242425" y="873.4545454545455" type="line"/>
      <point x="315.27272727272725" y="1008.2424242424242" type="line"/>
      <point x="419.57575757575756" y="1183.090909090909" type="line"/>
      <point x="523.8787878787879" y="1008.2424242424242" type="line"/>
      <point x="622.9090909090909" y="873.4545454545455" type="line"/>
      <point x="684.7272727272727" y="918.6060606060606" type="line"/>
      <point x="585.6969696969697" y="1053.3939393939395" type="line"/>
    </contour>
  </outline>
</glyph>
<glyph name="plus" format="2">
  <advance width="1017.2121212121212"/>
  <unicode hex="002B"/>
  <outline>
    <contour>
      <point x="467.2121212121212" y="374.3636363636364" type="line"/>
      <point x="550.0" y="374.3636363636364" type="line"/>
      <point x="550.0" y="720.8484848484849" type="line"/>
      <point x="877.2121212121212" y="720.8484848484849" type="line"/>
      <point x="877.2121212121212" y="799.1515151515151" type="line"/>
      <point x="550.0" y="799.1515151515151" type="line"/>
      <point x="550.0" y="1145.6363636363637" type="line"/>
      <point x="467.2121212121212" y="1145.6363636363637" type="line"/>
      <point x="467.2121212121212" y="799.1515151515151" type="line"/>
      <point x="140.0" y="799.1515151515151" type="line"/>
      <point x="140.0" y="720.8484848484849" type="line"/>
      <point x="467.2121212121212" y="720.8484848484849" type="line"/>
    </contour>
  </outline>
</glyph>
<glyph name="hyphen" format="2">
  <advance width="681.2121212121212"/>
  <unicode hex="002D"/>
  <outline>
    <contour>
      <point x="140.0" y="521.0909090909091" type="line"/>
      <point x="541.2121212121212" y="521.0909090909091" type="line"/>
      <point x="541.2121212121212" y="600.1212121212121" type="line"/>
      <point x="140.0" y="600.1212121212121" type="line"/>
    </contour>
  </outline>
</glyph>
<glyph name="period" format="2">
  <advance width="371.1515151515151"/>
  <unicode hex="002E"/>
  <outline>
    <contour>
      <point x="185.57575757575756" y="-10.606060606060606" type="curve" smooth="yes"/>
      <point x="228.12121212121212" y="-10.606060606060606"/>
      <point x="258.72727272727275" y="17.757575757575758"/>
      <point x="258.72727272727275" y="62.303030303030305" type="curve" smooth="yes"/>
      <point x="258.72727272727275" y="106.84848484848484"/>
      <point x="228.36363636363637" y="137.0909090909091"/>
      <point x="185.57575757575756" y="137.0909090909091" type="curve" smooth="yes"/>
      <point x="142.78787878787878" y="137.0909090909091"/>
      <point x="112.42424242424242" y="107.0909090909091"/>
      <point x="112.42424242424242" y="62.303030303030305" type="curve" smooth="yes"/>
      <point x="112.42424242424242" y="17.515151515151516"/>
      <point x="143.03030303030303" y="-10.606060606060606"/>
    </contour>
  </outline>
</glyph>
<glyph name="zero" format="2">
  <advance width="1047.1515151515152"/>
  <unicode hex="0030"/>
  <note>
600
</note>
  <outline>
    <contour>
      <point x="523.5757575757576" y="-18.12121212121212" type="curve" smooth="yes"/>
      <point x="779.8787878787879" y="-18.12121212121212"/>
      <point x="941.8181818181819" y="176.1818181818182"/>
      <point x="941.8181818181819" y="740.0" type="curve" smooth="yes"/>
      <point x="941.8181818181819" y="1303.8181818181818"/>
      <point x="781.7575757575758" y="1498.121212121212"/>
      <point x="523.5757575757576" y="1498.121212121212" type="curve" smooth="yes"/>
      <point x="265.3939393939394" y="1498.121212121212"/>
      <point x="105.33333333333333" y="1303.8181818181818"/>
      <point x="105.33333333333333" y="740.0" type="curve" smooth="yes"/>
      <point x="105.33333333333333" y="176.1818181818182"/>
      <point x="267.27272727272725" y="-18.12121212121212"/>
    </contour>
    <contour>
      <point x="523.5757575757576" y="63.515151515151516" type="curve" smooth="yes"/>
      <point x="325.1515151515151" y="63.515151515151516"/>
      <point x="196.36363636363637" y="218.12121212121212"/>
      <point x="196.36363636363637" y="743.7575757575758" type="curve" smooth="yes"/>
      <point x="196.36363636363637" y="1261.878787878788"/>
      <point x="325.1515151515151" y="1416.4848484848485"/>
      <point x="523.5757575757576" y="1416.4848484848485" type="curve" smooth="yes"/>
      <point x="722.0" y="1416.4848484848485"/>
      <point x="850.7878787878788" y="1261.878787878788"/>
      <point x="850.7878787878788" y="736.2424242424242" type="curve" smooth="yes"/>
      <point x="850.7878787878788" y="218.12121212121212"/>
      <point x="722.0" y="63.515151515151516"/>
    </contour>
  </outline>
</glyph>
<glyph name="one" format="2">
  <advance width="562.4242424242424"/>
  <unicode hex="0031"/>
  <outline>
    <contour>
      <point x="305.3939393939394" y="0.0" type="line"/>
      <point x="393.030303030303" y="0.0" type="line"/>
      <point x="393.030303030303" y="1484.121212121212" type="line"/>
      <point x="342.7878787878788" y="1484.121212121212" type="line"/>
      <point x="19.272727272727273" y="1237.090909090909" type="line"/>
      <point x="19.272727272727273" y="1145.6363636363637" type="line"/>
      <point x="342.7878787878788" y="1392.6666666666667" type="line"/>
      <point x="305.3939393939394" y="1384.909090909091" type="line"/>
    </contour>
  </outline>
</glyph>
<glyph name="two" format="2">
  <advance width="814.7878787878788"/>
  <unicode hex="0032"/>
  <outline>
    <contour>
      <point x="50.78787878787879" y="0.0" type="line"/>
      <point x="756.1212121212121" y="0.0" type="line"/>
      <point x="756.1212121212121" y="80.84848484848484" type="line"/>
      <point x="129.21212121212122" y="80.84848484848484" type="line"/>
      <point x="146.84848484848484" y="52.60606060606061" type="line"/>
      <point x="501.57575757575756" y="621.3333333333334" type="line" smooth="yes"/>
      <point x="641.2121212121212" y="846.5454545454545"/>
      <point x="688.7272727272727" y="983.5151515151515"/>
      <point x="690.6060606060606" y="1132.5454545454545" type="curve" smooth="yes"/>
      <point x="694.3636363636364" y="1392.6666666666667"/>
      <point x="542.8484848484849" y="1498.121212121212"/>
      <point x="304.54545454545456" y="1498.121212121212" type="curve" smooth="yes"/>
      <point x="211.57575757575756" y="1498.121212121212"/>
      <point x="103.51515151515152" y="1478.121212121212"/>
      <point x="34.54545454545455" y="1444.3636363636363" type="curve"/>
      <point x="34.54545454545455" y="1360.7272727272727" type="line"/>
      <point x="120.18181818181819" y="1398.3636363636363"/>
      <point x="205.03030303030303" y="1416.2424242424242"/>
      <point x="300.7878787878788" y="1416.2424242424242" type="curve" smooth="yes"/>
      <point x="492.3636363636364" y="1416.2424242424242"/>
      <point x="601.3333333333334" y="1343.3333333333333"/>
      <point x="601.3333333333334" y="1130.4848484848485" type="curve" smooth="yes"/>
      <point x="601.3333333333334" y="995.5151515151515"/>
      <point x="551.8181818181819" y="863.4545454545455"/>
      <point x="429.030303030303" y="664.7272727272727" type="curve" smooth="yes"/>
      <point x="50.78787878787879" y="50.90909090909091" type="line"/>
    </contour>
  </outline>
</glyph>
<glyph name="three" format="2">
  <advance width="865.6363636363636"/>
  <unicode hex="0033"/>
  <outline>
    <contour>
      <point x="350.1212121212121" y="-18.12121212121212" type="curve" smooth="yes"/>
      <point x="622.9090909090909" y="-18.12121212121212"/>
      <point x="792.060606060606" y="124.72727272727273"/>
      <point x="792.060606060606" y="383.93939393939394" type="curve" smooth="yes"/>
      <point x="792.060606060606" y="602.2424242424242"/>
      <point x="665.7575757575758" y="743.3939393939394"/>
      <point x="424.3030303030303" y="779.2727272727273" type="curve"/>
      <point x="422.42424242424244" y="757.8787878787879" type="line"/>
      <point x="631.5151515151515" y="801.3939393939394"/>
      <point x="746.3030303030303" y="946.3030303030303"/>
      <point x="746.3030303030303" y="1135.8181818181818" type="curve" smooth="yes"/>
      <point x="746.3030303030303" y="1369.2727272727273"/>
      <point x="607.6363636363636" y="1498.121212121212"/>
      <point x="347.93939393939394" y="1498.121212121212" type="curve" smooth="yes"/>
      <point x="250.72727272727272" y="1498.121212121212"/>
      <point x="142.66666666666666" y="1478.121212121212"/>
      <point x="73.45454545454545" y="1444.3636363636363" type="curve"/>
      <point x="73.45454545454545" y="1362.060606060606" type="line"/>
      <point x="159.21212121212122" y="1399.5757575757575"/>
      <point x="244.78787878787878" y="1417.5757575757575"/>
      <point x="346.42424242424244" y="1417.5757575757575" type="curve" smooth="yes"/>
      <point x="552.7878787878788" y="1417.5757575757575"/>
      <point x="657.8787878787879" y="1324.7272727272727"/>
      <point x="657.8787878787879" y="1134.909090909091" type="curve" smooth="yes"/>
      <point x="657.8787878787879" y="932.1818181818181"/>
      <point x="517.2121212121212" y="801.1515151515151"/>
      <point x="250.24242424242425" y="801.1515151515151" type="curve" smooth="yes"/>
      <point x="207.75757575757575" y="801.1515151515151" type="line"/>
      <point x="207.75757575757575" y="720.1212121212121" type="line"/>
      <point x="316.6060606060606" y="720.1212121212121" type="line" smooth="yes"/>
      <point x="583.030303030303" y="720.1212121212121"/>
      <point x="703.6363636363636" y="589.2121212121212"/>
      <point x="703.6363636363636" y="383.75757575757575" type="curve" smooth="yes"/>
      <point x="703.6363636363636" y="168.78787878787878"/>
      <point x="566.2424242424242" y="62.42424242424242"/>
      <point x="347.6363636363636" y="62.42424242424242" type="curve" smooth="yes"/>
      <point x="251.87878787878788" y="62.42424242424242"/>
      <point x="146.3030303030303" y="80.18181818181819"/>
      <point x="48.18181818181818" y="117.45454545454545" type="curve"/>
      <point x="48.18181818181818" y="35.15151515151515" type="line"/>
      <point x="141.03030303030303" y="-0.36363636363636365"/>
      <point x="241.75757575757575" y="-18.12121212121212"/>
    </contour>
  </outline>
</glyph>
<glyph name="four" format="2">
  <advance width="1005.030303030303"/>
  <unicode hex="0034"/>
  <outline>
    <contour>
      <point x="48.54545454545455" y="378.06060606060606" type="line"/>
      <point x="964.2424242424242" y="378.06060606060606" type="line"/>
      <point x="964.2424242424242" y="456.3636363636364" type="line"/>
      <point x="123.15151515151516" y="456.3636363636364" type="line"/>
      <point x="139.45454545454544" y="427.09090909090907" type="line"/>
      <point x="658.9090909090909" y="1480.0" type="line"/>
      <point x="566.969696969697" y="1480.0" type="line"/>
      <point x="48.54545454545455" y="428.969696969697" type="line"/>
    </contour>
    <contour>
      <point x="681.8181818181819" y="0.0" type="line"/>
      <point x="766.6666666666666" y="0.0" type="line"/>
      <point x="766.6666666666666" y="980.0" type="line"/>
      <point x="697.3939393939394" y="980.0" type="line"/>
      <point x="681.8181818181819" y="456.3636363636364" type="line"/>
    </contour>
  </outline>
</glyph>
<glyph name="five" format="2">
  <advance width="866.6060606060606"/>
  <unicode hex="0035"/>
  <outline>
    <contour>
      <point x="376.3636363636364" y="-18.12121212121212" type="curve" smooth="yes"/>
      <point x="660.060606060606" y="-18.12121212121212"/>
      <point x="816.060606060606" y="128.4848484848485"/>
      <point x="816.060606060606" y="401.5151515151515" type="curve" smooth="yes"/>
      <point x="816.060606060606" y="672.969696969697"/>
      <point x="645.939393939394" y="809.3333333333334"/>
      <point x="311.6969696969697" y="829.8181818181819" type="curve" smooth="yes"/>
      <point x="148.6060606060606" y="839.6969696969697" type="line"/>
      <point x="208.24242424242425" y="786.4848484848485" type="line"/>
      <point x="251.5151515151515" y="1437.6969696969697" type="line"/>
      <point x="210.9090909090909" y="1400.3636363636363" type="line"/>
      <point x="754.6666666666666" y="1400.3636363636363" type="line"/>
      <point x="754.6666666666666" y="1480.0" type="line"/>
      <point x="167.6969696969697" y="1480.0" type="line"/>
      <point x="121.6969696969697" y="759.5151515151515" type="line"/>
      <point x="284.7878787878788" y="749.6363636363636" type="line" smooth="yes"/>
      <point x="594.1212121212121" y="731.3939393939394"/>
      <point x="727.6363636363636" y="626.7878787878788"/>
      <point x="727.6363636363636" y="398.6666666666667" type="curve" smooth="yes"/>
      <point x="727.6363636363636" y="176.3030303030303"/>
      <point x="607.1515151515151" y="62.42424242424242"/>
      <point x="375.75757575757575" y="62.42424242424242" type="curve" smooth="yes"/>
      <point x="274.3636363636364" y="62.42424242424242"/>
      <point x="168.78787878787878" y="82.18181818181819"/>
      <point x="72.54545454545455" y="117.6969696969697" type="curve"/>
      <point x="72.54545454545455" y="35.39393939393939" type="line"/>
      <point x="161.63636363636363" y="-0.24242424242424243"/>
      <point x="266.1212121212121" y="-18.12121212121212"/>
    </contour>
  </outline>
</glyph>
<glyph name="six" format="2">
  <advance width="964.7272727272727"/>
  <unicode hex="0036"/>
  <outline>
    <contour>
      <point x="544.969696969697" y="-18.12121212121212" type="curve" smooth="yes"/>
      <point x="749.030303030303" y="-18.12121212121212"/>
      <point x="915.5757575757576" y="118.54545454545455"/>
      <point x="915.5757575757576" y="411.3939393939394" type="curve" smooth="yes"/>
      <point x="915.5757575757576" y="699.0909090909091"/>
      <point x="739.6363636363636" y="833.0909090909091"/>
      <point x="524.7878787878788" y="833.0909090909091" type="curve" smooth="yes"/>
      <point x="378.3636363636364" y="833.0909090909091"/>
      <point x="245.33333333333334" y="772.060606060606"/>
      <point x="179.57575757575756" y="671.030303030303" type="curve"/>
      <point x="179.57575757575756" y="567.6363636363636" type="line"/>
      <point x="250.6060606060606" y="702.4848484848485"/>
      <point x="390.969696969697" y="753.3939393939394"/>
      <point x="516.1818181818181" y="753.3939393939394" type="curve" smooth="yes"/>
      <point x="689.0909090909091" y="753.3939393939394"/>
      <point x="828.3636363636364" y="656.3030303030303"/>
      <point x="828.3636363636364" y="406.7878787878788" type="curve" smooth="yes"/>
      <point x="828.3636363636364" y="158.9090909090909"/>
      <point x="698.4848484848485" y="61.81818181818182"/>
      <point x="547.0909090909091" y="61.81818181818182" type="curve" smooth="yes"/>
      <point x="356.6666666666667" y="61.81818181818182"/>
      <point x="209.87878787878788" y="189.6969696969697"/>
      <point x="209.87878787878788" y="688.1212121212121" type="curve" smooth="yes"/>
      <point x="209.87878787878788" y="709.4545454545455" type="line" smooth="yes"/>
      <point x="209.87878787878788" y="1237.3333333333333"/>
      <point x="363.2121212121212" y="1417.090909090909"/>
      <point x="638.1818181818181" y="1417.090909090909" type="curve" smooth="yes"/>
      <point x="717.5151515151515" y="1417.090909090909"/>
      <point x="791.3939393939394" y="1403.3333333333333"/>
      <point x="854.7272727272727" y="1375.5757575757575" type="curve"/>
      <point x="854.7272727272727" y="1458.3636363636363" type="line"/>
      <point x="792.2424242424242" y="1486.2424242424242"/>
      <point x="714.7878787878788" y="1498.121212121212"/>
      <point x="641.2121212121212" y="1498.121212121212" type="curve" smooth="yes"/>
      <point x="308.6666666666667" y="1498.121212121212"/>
      <point x="120.84848484848484" y="1280.4242424242425"/>
      <point x="120.84848484848484" y="690.7272727272727" type="curve" smooth="yes"/>
      <point x="120.84848484848484" y="144.1818181818182"/>
      <point x="305.3939393939394" y="-18.12121212121212"/>
    </contour>
  </outline>
</glyph>
<glyph name="seven" format="2">
  <advance width="792.969696969697"/>
  <unicode hex="0037"/>
  <outline>
    <contour>
      <point x="153.5151515151515" y="0.0" type="line"/>
      <point x="243.87878787878788" y="0.0" type="line"/>
      <point x="736.969696969697" y="1429.090909090909" type="line"/>
      <point x="736.969696969697" y="1480.0" type="line"/>
      <point x="8.121212121212121" y="1480.0" type="line"/>
      <point x="8.121212121212121" y="1399.1515151515152" type="line"/>
      <point x="668.3030303030303" y="1399.1515151515152" type="line"/>
      <point x="650.3030303030303" y="1430.969696969697" type="line"/>
    </contour>
  </outline>
</glyph>
<glyph name="eight" format="2">
  <advance width="1047.1515151515152"/>
  <unicode hex="0038"/>
  <outline>
    <contour>
      <point x="534.969696969697" y="-18.12121212121212" type="curve" smooth="yes"/>
      <point x="796.4242424242424" y="-18.12121212121212"/>
      <point x="959.2121212121212" y="133.45454545454547"/>
      <point x="959.2121212121212" y="361.27272727272725" type="curve" smooth="yes"/>
      <point x="959.2121212121212" y="575.6363636363636"/>
      <point x="851.6969696969697" y="688.7272727272727"/>
      <point x="553.030303030303" y="784.4242424242424" type="curve" smooth="yes"/>
      <point x="295.09090909090907" y="866.4242424242424"/>
      <point x="221.15151515151516" y="959.030303030303"/>
      <point x="221.15151515151516" y="1131.4545454545455" type="curve" smooth="yes"/>
      <point x="221.15151515151516" y="1308.909090909091"/>
      <point x="328.24242424242425" y="1419.2727272727273"/>
      <point x="521.030303030303" y="1419.2727272727273" type="curve" smooth="yes"/>
      <point x="715.3333333333334" y="1419.2727272727273"/>
      <point x="831.8181818181819" y="1315.030303030303"/>
      <point x="831.8181818181819" y="1125.5757575757575" type="curve" smooth="yes"/>
      <point x="831.8181818181819" y="951.1515151515151"/>
      <point x="752.2424242424242" y="853.0909090909091"/>
      <point x="571.3333333333334" y="768.3030303030303" type="curve"/>
      <point x="651.030303030303" y="735.3333333333334" type="line"/>
      <point x="820.1212121212121" y="814.4242424242424"/>
      <point x="915.8181818181819" y="950.1818181818181"/>
      <point x="915.8181818181819" y="1127.3939393939395" type="curve" smooth="yes"/>
      <point x="915.8181818181819" y="1354.0"/>
      <point x="763.030303030303" y="1498.121212121212"/>
      <point x="520.7878787878788" y="1498.121212121212" type="curve" smooth="yes"/>
      <point x="282.0" y="1498.121212121212"/>
      <point x="131.0909090909091" y="1352.7878787878788"/>
      <point x="131.0909090909091" y="1128.8484848484848" type="curve" smooth="yes"/>
      <point x="131.0909090909091" y="916.8484848484849"/>
      <point x="242.96969696969697" y="794.6666666666666"/>
      <point x="532.1212121212121" y="703.3333333333334" type="curve" smooth="yes"/>
      <point x="789.2121212121212" y="622.060606060606"/>
      <point x="869.5151515151515" y="540.3636363636364"/>
      <point x="869.5151515151515" y="354.54545454545456" type="curve" smooth="yes"/>
      <point x="869.5151515151515" y="169.0909090909091"/>
      <point x="743.8787878787879" y="60.72727272727273"/>
      <point x="534.969696969697" y="60.72727272727273" type="curve" smooth="yes"/>
      <point x="294.24242424242425" y="60.72727272727273"/>
      <point x="177.5151515151515" y="173.0909090909091"/>
      <point x="177.5151515151515" y="368.7878787878788" type="curve" smooth="yes"/>
      <point x="177.5151515151515" y="552.1212121212121"/>
      <point x="285.8787878787879" y="685.5757575757576"/>
      <point x="459.8787878787879" y="740.8484848484849" type="curve"/>
      <point x="383.2121212121212" y="777.5757575757576" type="line"/>
      <point x="202.4848484848485" y="712.7272727272727"/>
      <point x="87.81818181818181" y="556.4242424242424"/>
      <point x="87.81818181818181" y="366.72727272727275" type="curve" smooth="yes"/>
      <point x="87.81818181818181" y="125.45454545454545"/>
      <point x="249.5151515151515" y="-18.12121212121212"/>
    </contour>
  </outline>
</glyph>
<glyph name="nine" format="2">
  <advance width="964.7272727272727"/>
  <unicode hex="0039"/>
  <outline>
    <contour>
      <point x="419.75757575757575" y="1498.121212121212" type="curve" smooth="yes"/>
      <point x="215.6969696969697" y="1498.121212121212"/>
      <point x="49.15151515151515" y="1361.4545454545455"/>
      <point x="49.15151515151515" y="1068.6060606060605" type="curve" smooth="yes"/>
      <point x="49.15151515151515" y="780.9090909090909"/>
      <point x="225.0909090909091" y="646.9090909090909"/>
      <point x="439.93939393939394" y="646.9090909090909" type="curve" smooth="yes"/>
      <point x="586.3636363636364" y="646.9090909090909"/>
      <point x="719.3939393939394" y="707.939393939394"/>
      <point x="785.1515151515151" y="808.969696969697" type="curve"/>
      <point x="785.1515151515151" y="912.3636363636364" type="line"/>
      <point x="714.1212121212121" y="777.5151515151515"/>
      <point x="573.7575757575758" y="726.6060606060606"/>
      <point x="448.54545454545456" y="726.6060606060606" type="curve" smooth="yes"/>
      <point x="275.6363636363636" y="726.6060606060606"/>
      <point x="136.36363636363637" y="823.6969696969697"/>
      <point x="136.36363636363637" y="1073.2121212121212" type="curve" smooth="yes"/>
      <point x="136.36363636363637" y="1321.090909090909"/>
      <point x="266.24242424242425" y="1418.1818181818182"/>
      <point x="417.6363636363636" y="1418.1818181818182" type="curve" smooth="yes"/>
      <point x="608.060606060606" y="1418.1818181818182"/>
      <point x="754.8484848484849" y="1290.3030303030303"/>
      <point x="754.8484848484849" y="791.8787878787879" type="curve" smooth="yes"/>
      <point x="754.8484848484849" y="770.5454545454545" type="line" smooth="yes"/>
      <point x="754.8484848484849" y="242.66666666666666"/>
      <point x="601.5151515151515" y="62.90909090909091"/>
      <point x="326.54545454545456" y="62.90909090909091" type="curve" smooth="yes"/>
      <point x="247.21212121212122" y="62.90909090909091"/>
      <point x="173.33333333333334" y="76.66666666666667"/>
      <point x="110.0" y="104.42424242424242" type="curve"/>
      <point x="110.0" y="21.636363636363637" type="line"/>
      <point x="172.4848484848485" y="-6.242424242424242"/>
      <point x="249.93939393939394" y="-18.12121212121212"/>
      <point x="323.5151515151515" y="-18.12121212121212" type="curve" smooth="yes"/>
      <point x="656.060606060606" y="-18.12121212121212"/>
      <point x="843.8787878787879" y="199.57575757575756"/>
      <point x="843.8787878787879" y="789.2727272727273" type="curve" smooth="yes"/>
      <point x="843.8787878787879" y="1335.8181818181818"/>
      <point x="659.3333333333334" y="1498.121212121212"/>
    </contour>
  </outline>
</glyph>
<glyph name="colon" format="2">
  <advance width="371.1515151515151"/>
  <unicode hex="003A"/>
  <outline>
    <contour>
      <point x="185.57575757575756" y="-10.606060606060606" type="curve" smooth="yes"/>
      <point x="228.12121212121212" y="-10.606060606060606"/>
      <point x="258.72727272727275" y="17.757575757575758"/>
      <point x="258.72727272727275" y="62.303030303030305" type="curve" smooth="yes"/>
      <point x="258.72727272727275" y="106.84848484848484"/>
      <point x="228.36363636363637" y="137.0909090909091"/>
      <point x="185.57575757575756" y="137.0909090909091" type="curve" smooth="yes"/>
      <point x="142.78787878787878" y="137.0909090909091"/>
      <point x="112.42424242424242" y="107.0909090909091"/>
      <point x="112.42424242424242" y="62.303030303030305" type="curve" smooth="yes"/>
      <point x="112.42424242424242" y="17.515151515151516"/>
      <point x="143.03030303030303" y="-10.606060606060606"/>
    </contour>
    <contour>
      <point x="185.57575757575756" y="944.1212121212121" type="curve" smooth="yes"/>
      <point x="228.12121212121212" y="944.1212121212121"/>
      <point x="258.72727272727275" y="972.4848484848485"/>
      <point x="258.72727272727275" y="1017.030303030303" type="curve" smooth="yes"/>
      <point x="258.72727272727275" y="1061.5757575757575"/>
      <point x="228.36363636363637" y="1091.8181818181818"/>
      <point x="185.57575757575756" y="1091.8181818181818" type="curve" smooth="yes"/>
      <point x="142.78787878787878" y="1091.8181818181818"/>
      <point x="112.42424242424242" y="1061.8181818181818"/>
      <point x="112.42424242424242" y="1017.030303030303" type="curve" smooth="yes"/>
      <point x="112.42424242424242" y="972.2424242424242"/>
      <point x="143.03030303030303" y="944.1212121212121"/>
    </contour>
  </outline>
</glyph>
<glyph name="equal" format="2">
  <advance width="1017.2121212121212"/>
  <unicode hex="003D"/>
  <outline>
    <contour>
      <point x="140.0" y="905.7575757575758" type="line"/>
      <point x="877.2121212121212" y="905.7575757575758" type="line"/>
      <point x="877.2121212121212" y="984.060606060606" type="line"/>
      <point x="140.0" y="984.060606060606" type="line"/>
    </contour>
    <contour>
      <point x="140.0" y="535.939393939394" type="line"/>
      <point x="877.2121212121212" y="535.939393939394" type="line"/>
      <point x="877.2121212121212" y="614.2424242424242" type="line"/>
      <point x="140.0" y="614.2424242424242" type="line"/>
    </contour>
  </outline>
</glyph>
<glyph name="greater" format="2">
  <advance width="1017.2121212121212"/>
  <unicode hex="003E"/>
  <outline>
    <contour>
      <point x="140.0" y="395.45454545454544" type="line"/>
      <point x="877.2121212121212" y="723.8181818181819" type="line"/>
      <point x="877.2121212121212" y="796.1818181818181" type="line"/>
      <point x="140.0" y="1124.5454545454545" type="line"/>
      <point x="140.0" y="1038.7272727272727" type="line"/>
      <point x="804.0" y="748.0" type="line"/>
      <point x="804.0" y="772.0" type="line"/>
      <point x="140.0" y="481.27272727272725" type="line"/>
    </contour>
  </outline>
</glyph>
<glyph name="question" format="2">
  <advance width="769.2121212121212"/>
  <unicode hex="003F"/>
  <outline>
    <contour>
      <point x="304.06060606060606" y="314.06060606060606" type="line"/>
      <point x="363.45454545454544" y="314.06060606060606" type="line"/>
      <point x="374.6666666666667" y="693.8787878787879" type="line"/>
      <point x="625.8787878787879" y="810.2424242424242"/>
      <point x="711.030303030303" y="935.2121212121212"/>
      <point x="711.030303030303" y="1135.8181818181818" type="curve" smooth="yes"/>
      <point x="711.030303030303" y="1369.2727272727273"/>
      <point x="572.3636363636364" y="1498.121212121212"/>
      <point x="312.6666666666667" y="1498.121212121212" type="curve" smooth="yes"/>
      <point x="215.45454545454547" y="1498.121212121212"/>
      <point x="107.39393939393939" y="1478.121212121212"/>
      <point x="38.18181818181818" y="1444.3636363636363" type="curve"/>
      <point x="38.18181818181818" y="1362.060606060606" type="line"/>
      <point x="123.93939393939394" y="1399.5757575757575"/>
      <point x="209.5151515151515" y="1417.5757575757575"/>
      <point x="309.27272727272725" y="1417.5757575757575" type="curve" smooth="yes"/>
      <point x="517.5151515151515" y="1417.5757575757575"/>
      <point x="622.6060606060606" y="1324.7272727272727"/>
      <point x="622.6060606060606" y="1134.909090909091" type="curve" smooth="yes"/>
      <point x="622.6060606060606" y="956.6060606060606"/>
      <point x="538.1818181818181" y="842.4848484848485"/>
      <point x="288.7878787878788" y="744.0" type="curve"/>
    </contour>
    <contour>
      <point x="333.75757575757575" y="-10.606060606060606" type="curve" smooth="yes"/>
      <point x="378.1818181818182" y="-10.606060606060606"/>
      <point x="406.90909090909093" y="19.636363636363637"/>
      <point x="406.90909090909093" y="61.93939393939394" type="curve" smooth="yes"/>
      <point x="406.90909090909093" y="106.12121212121212"/>
      <point x="376.54545454545456" y="136.36363636363637"/>
      <point x="333.75757575757575" y="136.36363636363637" type="curve" smooth="yes"/>
      <point x="290.969696969697" y="136.36363636363637"/>
      <point x="260.6060606060606" y="106.36363636363636"/>
      <point x="260.6060606060606" y="61.93939393939394" type="curve" smooth="yes"/>
      <point x="260.6060606060606" y="19.393939393939394"/>
      <point x="291.2121212121212" y="-10.606060606060606"/>
    </contour>
  </outline>
</glyph>
<glyph name="at" format="2">
  <advance width="1572.5454545454545"/>
  <unicode hex="0040"/>
  <outline>
    <contour>
      <point x="827.3333333333334" y="-460.0" type="curve" smooth="yes"/>
      <point x="947.030303030303" y="-460.0"/>
      <point x="1057.090909090909" y="-436.3636363636364"/>
      <point x="1144.4848484848485" y="-404.1212121212121" type="curve"/>
      <point x="1144.4848484848485" y="-324.72727272727275" type="line"/>
      <point x="1038.1818181818182" y="-362.6060606060606"/>
      <point x="939.5151515151515" y="-382.4848484848485"/>
      <point x="827.3333333333334" y="-382.4848484848485" type="curve" smooth="yes"/>
      <point x="414.8484848484849" y="-382.4848484848485"/>
      <point x="181.27272727272728" y="-175.45454545454547"/>
      <point x="181.27272727272728" y="523.7575757575758" type="curve" smooth="yes"/>
      <point x="181.27272727272728" y="1213.5757575757575"/>
      <point x="414.8484848484849" y="1420.4848484848485"/>
      <point x="791.5757575757576" y="1420.4848484848485" type="curve" smooth="yes"/>
      <point x="1168.3030303030303" y="1420.4848484848485"/>
      <point x="1396.3636363636363" y="1214.060606060606"/>
      <point x="1396.4848484848485" y="555.5757575757576" type="curve" smooth="yes"/>
      <point x="1396.6060606060605" y="176.0"/>
      <point x="1299.878787878788" y="60.0"/>
      <point x="1210.6060606060605" y="60.0" type="curve" smooth="yes"/>
      <point x="1132.7878787878788" y="60.0"/>
      <point x="1104.7878787878788" y="112.42424242424242"/>
      <point x="1104.7878787878788" y="214.36363636363637" type="curve" smooth="yes"/>
      <point x="1104.7878787878788" y="752.4848484848485" type="line" smooth="yes"/>
      <point x="1104.7878787878788" y="1009.8181818181819"/>
      <point x="985.2121212121212" y="1096.121212121212"/>
      <point x="769.6969696969697" y="1096.121212121212" type="curve" smooth="yes"/>
      <point x="690.0" y="1096.121212121212"/>
      <point x="586.4242424242424" y="1080.0"/>
      <point x="512.8484848484849" y="1051.7575757575758" type="curve"/>
      <point x="512.6060606060606" y="969.4545454545455" type="line"/>
      <point x="602.1212121212121" y="1001.4545454545455"/>
      <point x="694.3636363636364" y="1015.5757575757576"/>
      <point x="763.2121212121212" y="1015.5757575757576" type="curve" smooth="yes"/>
      <point x="927.5151515151515" y="1015.5757575757576"/>
      <point x="1018.2424242424242" y="958.6666666666666"/>
      <point x="1018.2424242424242" y="755.4545454545455" type="curve" smooth="yes"/>
      <point x="1018.2424242424242" y="226.0" type="line"/>
      <point x="943.5151515151515" y="100.9090909090909"/>
      <point x="840.4848484848485" y="62.96969696969697"/>
      <point x="752.6060606060606" y="62.96969696969697" type="curve" smooth="yes"/>
      <point x="620.060606060606" y="62.96969696969697"/>
      <point x="544.7272727272727" y="130.54545454545453"/>
      <point x="544.7272727272727" y="278.8484848484849" type="curve" smooth="yes"/>
      <point x="544.7272727272727" y="414.24242424242425"/>
      <point x="620.3030303030303" y="487.93939393939394"/>
      <point x="788.1212121212121" y="506.969696969697" type="curve" smooth="yes"/>
      <point x="1066.909090909091" y="537.5151515151515" type="line"/>
      <point x="1054.3636363636363" y="612.1212121212121" type="line"/>
      <point x="787.0909090909091" y="581.5757575757576" type="line" smooth="yes"/>
      <point x="559.5151515151515" y="555.939393939394"/>
      <point x="452.54545454545456" y="454.4848484848485"/>
      <point x="452.54545454545456" y="268.42424242424244" type="curve" smooth="yes"/>
      <point x="452.54545454545456" y="81.81818181818181"/>
      <point x="569.2727272727273" y="-16.363636363636363"/>
      <point x="738.3636363636364" y="-16.363636363636363" type="curve" smooth="yes"/>
      <point x="851.6363636363636" y="-16.363636363636363"/>
      <point x="951.5151515151515" y="29.03030303030303"/>
      <point x="1017.4545454545455" y="122.60606060606061" type="curve"/>
      <point x="1026.060606060606" y="122.60606060606061" type="line"/>
      <point x="1043.3333333333333" y="39.15151515151515"/>
      <point x="1102.6060606060605" y="-16.363636363636363"/>
      <point x="1202.121212121212" y="-16.363636363636363" type="curve" smooth="yes"/>
      <point x="1352.3636363636363" y="-16.363636363636363"/>
      <point x="1477.2121212121212" y="145.63636363636363"/>
      <point x="1477.2121212121212" y="561.6969696969697" type="curve" smooth="yes"/>
      <point x="1477.2121212121212" y="1240.969696969697"/>
      <point x="1223.7575757575758" y="1498.0"/>
      <point x="791.5757575757576" y="1498.0" type="curve" smooth="yes"/>
      <point x="357.5151515151515" y="1498.0"/>
      <point x="95.33333333333333" y="1240.969696969697"/>
      <point x="95.33333333333333" y="520.0" type="curve" smooth="yes"/>
      <point x="95.33333333333333" y="-208.4848484848485"/>
      <point x="361.27272727272725" y="-460.0"/>
    </contour>
  </outline>
</glyph>
<glyph name="B" format="2">
  <advance width="1099.2121212121212"/>
  <unicode hex="0042"/>
  <anchor x="567.1515151515151" y="0.0" name="bottom"/>
  <anchor x="567.1515151515151" y="1480.0" name="top"/>
  <outline>
    <contour>
      <point x="451.1515151515151" y="-10.606060606060606" type="curve" smooth="yes"/>
      <point x="859.2121212121212" y="-10.606060606060606"/>
      <point x="1026.2424242424242" y="126.24242424242425"/>
      <point x="1026.2424242424242" y="391.6969696969697" type="curve" smooth="yes"/>
      <point x="1026.2424242424242" y="598.1818181818181"/>
      <point x="917.3939393939394" y="743.6363636363636"/>
      <point x="680.3636363636364" y="771.7575757575758" type="curve"/>
      <point x="680.3636363636364" y="757.8787878787879" type="line"/>
      <point x="910.7878787878788" y="792.0"/>
      <point x="984.2424242424242" y="948.1818181818181"/>
      <point x="984.2424242424242" y="1112.060606060606" type="curve" smooth="yes"/>
      <point x="984.2424242424242" y="1374.0"/>
      <point x="833.0909090909091" y="1494.3636363636363"/>
      <point x="480.4848484848485" y="1494.3636363636363" type="curve" smooth="yes"/>
      <point x="351.1515151515151" y="1494.3636363636363"/>
      <point x="248.42424242424244" y="1481.878787878788"/>
      <point x="159.3939393939394" y="1465.030303030303" type="curve"/>
      <point x="159.3939393939394" y="4.606060606060606" type="line"/>
      <point x="255.0909090909091" y="-6.0"/>
      <point x="351.93939393939394" y="-10.606060606060606"/>
    </contour>
    <contour>
      <point x="459.8181818181818" y="69.57575757575758" type="curve" smooth="yes"/>
      <point x="389.5151515151515" y="69.57575757575758"/>
      <point x="315.6969696969697" y="71.57575757575758"/>
      <point x="246.42424242424244" y="79.33333333333333" type="curve"/>
      <point x="246.42424242424244" y="1396.5454545454545" type="line"/>
      <point x="315.2121212121212" y="1408.3030303030303"/>
      <point x="385.5151515151515" y="1414.1818181818182"/>
      <point x="480.72727272727275" y="1414.1818181818182" type="curve" smooth="yes"/>
      <point x="784.060606060606" y="1414.1818181818182"/>
      <point x="896.1818181818181" y="1327.090909090909"/>
      <point x="896.1818181818181" y="1110.3636363636363" type="curve" smooth="yes"/>
      <point x="896.1818181818181" y="914.4242424242424"/>
      <point x="802.969696969697" y="801.030303030303"/>
      <point x="493.1515151515151" y="801.030303030303" type="curve" smooth="yes"/>
      <point x="229.45454545454547" y="801.030303030303" type="line"/>
      <point x="229.45454545454547" y="720.1212121212121" type="line"/>
      <point x="532.3030303030303" y="720.1212121212121" type="line" smooth="yes"/>
      <point x="813.939393939394" y="720.1212121212121"/>
      <point x="938.1818181818181" y="608.3636363636364"/>
      <point x="938.1818181818181" y="389.3939393939394" type="curve" smooth="yes"/>
      <point x="938.1818181818181" y="170.06060606060606"/>
      <point x="808.5454545454545" y="69.57575757575758"/>
    </contour>
  </outline>
</glyph>
<glyph name="E" format="2">
  <advance width="957.030303030303"/>
  <unicode hex="0045"/>
  <anchor x="558.4242424242424" y="0.0" name="bottom"/>
  <anchor x="841.5757575757576" y="0.0" name="ogonek"/>
  <anchor x="558.4242424242424" y="1520.0" name="top"/>
  <anchor x="36.0" y="1480.0" name="topleft"/>
  <outline>
    <contour>
      <point x="159.3939393939394" y="0.0" type="line"/>
      <point x="921.5757575757576" y="0.0" type="line"/>
      <point x="921.5757575757576" y="82.24242424242425" type="line"/>
      <point x="246.66666666666666" y="82.24242424242425" type="line"/>
      <point x="246.66666666666666" y="1397.7575757575758" type="line"/>
      <point x="911.5757575757576" y="1397.7575757575758" type="line"/>
      <point x="911.5757575757576" y="1480.0" type="line"/>
      <point x="159.3939393939394" y="1480.0" type="line"/>
    </contour>
    <contour>
      <point x="232.6060606060606" y="719.5151515151515" type="line"/>
      <point x="820.7272727272727" y="719.5151515151515" type="line"/>
      <point x="820.7272727272727" y="801.7575757575758" type="line"/>
      <point x="232.6060606060606" y="801.7575757575758" type="line"/>
    </contour>
  </outline>
</glyph>
<glyph name="F" format="2">
  <advance width="919.6969696969697"/>
  <unicode hex="0046"/>
  <outline>
    <contour>
      <point x="159.3939393939394" y="0.0" type="line"/>
      <point x="247.03030303030303" y="0.0" type="line"/>
      <point x="247.03030303030303" y="1397.5151515151515" type="line"/>
      <point x="902.1818181818181" y="1397.5151515151515" type="line"/>
      <point x="902.1818181818181" y="1480.0" type="line"/>
      <point x="159.3939393939394" y="1480.0" type="line"/>
    </contour>
    <contour>
      <point x="232.6060606060606" y="716.4848484848485" type="line"/>
      <point x="811.6969696969697" y="716.4848484848485" type="line"/>
      <point x="811.6969696969697" y="798.969696969697" type="line"/>
      <point x="232.6060606060606" y="798.969696969697" type="line"/>
    </contour>
  </outline>
</glyph>
<glyph name="G" format="2">
  <advance width="1116.5454545454545"/>
  <unicode hex="0047"/>
  <anchor x="626.0" y="0.0" name="bottom"/>
  <anchor x="626.0" y="1520.0" name="top"/>
  <outline>
    <contour>
      <point x="739.1515151515151" y="-10.606060606060606" type="curve" smooth="yes"/>
      <point x="818.8484848484849" y="-10.606060606060606"/>
      <point x="892.2424242424242" y="-4.242424242424242"/>
      <point x="991.2121212121212" y="13.757575757575758" type="curve"/>
      <point x="991.2121212121212" y="720.0" type="line"/>
      <point x="905.3939393939394" y="720.0" type="line"/>
      <point x="905.3939393939394" y="51.151515151515156" type="line"/>
      <point x="933.2121212121212" y="90.66666666666667" type="line"/>
      <point x="870.6666666666666" y="77.15151515151516"/>
      <point x="805.2727272727273" y="71.27272727272728"/>
      <point x="736.4848484848485" y="71.27272727272728" type="curve" smooth="yes"/>
      <point x="370.06060606060606" y="71.27272727272728"/>
      <point x="187.8181818181818" y="230.24242424242425"/>
      <point x="187.8181818181818" y="737.7575757575758" type="curve" smooth="yes"/>
      <point x="187.8181818181818" y="1259.1515151515152"/>
      <point x="373.93939393939394" y="1416.121212121212"/>
      <point x="691.2121212121212" y="1416.121212121212" type="curve" smooth="yes"/>
      <point x="783.2121212121212" y="1416.121212121212"/>
      <point x="872.6060606060606" y="1405.878787878788"/>
      <point x="972.0" y="1374.6060606060605" type="curve"/>
      <point x="972.0" y="1458.3636363636363" type="line"/>
      <point x="885.5151515151515" y="1484.2424242424242"/>
      <point x="786.1212121212121" y="1498.121212121212"/>
      <point x="694.060606060606" y="1498.121212121212" type="curve" smooth="yes"/>
      <point x="322.8484848484849" y="1498.121212121212"/>
      <point x="95.33333333333333" y="1304.7272727272727"/>
      <point x="95.33333333333333" y="738.1212121212121" type="curve" smooth="yes"/>
      <point x="95.33333333333333" y="182.3030303030303"/>
      <point x="318.3636363636364" y="-10.606060606060606"/>
    </contour>
  </outline>
</glyph>
<glyph name="H" format="2">
  <advance width="1228.8484848484848"/>
  <unicode hex="0048"/>
  <anchor x="614.4848484848485" y="0.0" name="bottom"/>
  <anchor x="614.4848484848485" y="1143.6363636363637" name="center"/>
  <anchor x="614.4848484848485" y="1520.0" name="top"/>
  <anchor x="35.515151515151516" y="1480.0" name="topleft"/>
  <outline>
    <contour>
      <point x="159.3939393939394" y="0.0" type="line"/>
      <point x="247.03030303030303" y="0.0" type="line"/>
      <point x="247.03030303030303" y="718.7878787878788" type="line"/>
      <point x="981.8181818181819" y="718.7878787878788" type="line"/>
      <point x="981.8181818181819" y="0.0" type="line"/>
      <point x="1069.4545454545455" y="0.0" type="line"/>
      <point x="1069.4545454545455" y="1480.0" type="line"/>
      <point x="981.8181818181819" y="1480.0" type="line"/>
      <point x="981.8181818181819" y="802.4848484848485" type="line"/>
      <point x="247.03030303030303" y="802.4848484848485" type="line"/>
      <point x="247.03030303030303" y="1480.0" type="line"/>
      <point x="159.3939393939394" y="1480.0" type="line"/>
    </contour>
  </outline>
</glyph>
<glyph name="I" format="2">
  <advance width="406.42424242424244"/>
  <unicode hex="0049"/>
  <anchor x="203.21212121212122" y="0.0" name="bottom"/>
  <anchor x="247.03030303030303" y="0.0" name="ogonek"/>
  <anchor x="203.21212121212122" y="1520.0" name="top"/>
  <outline>
    <contour>
      <point x="159.3939393939394" y="0.0" type="line"/>
      <point x="247.03030303030303" y="0.0" type="line"/>
      <point x="247.03030303030303" y="1480.0" type="line"/>
      <point x="159.3939393939394" y="1480.0" type="line"/>
    </contour>
  </outline>
</glyph>
<glyph name="J" format="2">
  <advance width="406.42424242424244"/>
  <unicode hex="004A"/>
  <anchor x="284.6060606060606" y="0.0" name="bottom"/>
  <anchor x="203.21212121212122" y="1520.0" name="top"/>
  <outline>
    <contour>
      <point x="53.81818181818182" y="-340.6060606060606" type="line"/>
      <point x="188.3030303030303" y="-135.75757575757575"/>
      <point x="239.5151515151515" y="25.03030303030303"/>
      <point x="247.03030303030303" y="260.0" type="curve"/>
      <point x="247.03030303030303" y="1480.0" type="line"/>
      <point x="159.3939393939394" y="1480.0" type="line"/>
      <point x="159.3939393939394" y="287.2121212121212" type="line" smooth="yes"/>
      <point x="159.3939393939394" y="39.878787878787875"/>
      <point x="110.60606060606061" y="-110.54545454545455"/>
      <point x="-8.666666666666668" y="-298.4848484848485" type="curve"/>
    </contour>
  </outline>
</glyph>
<glyph name="K" format="2">
  <advance width="1052.0"/>
  <unicode hex="004B"/>
  <anchor x="561.4545454545455" y="0.0" name="bottom"/>
  <anchor x="560.7272727272727" y="1480.0" name="top"/>
  <outline>
    <contour>
      <point x="989.5757575757576" y="0.0" type="line"/>
      <point x="1091.939393939394" y="0.0" type="line"/>
      <point x="494.7878787878788" y="776.5454545454545" type="line"/>
      <point x="494.54545454545456" y="747.3333333333334" type="line"/>
      <point x="1050.3030303030303" y="1480.0" type="line"/>
      <point x="950.5454545454545" y="1480.0" type="line"/>
      <point x="405.75757575757575" y="757.5151515151515" type="line"/>
    </contour>
    <contour>
      <point x="159.3939393939394" y="0.0" type="line"/>
      <point x="247.03030303030303" y="0.0" type="line"/>
      <point x="247.03030303030303" y="1480.0" type="line"/>
      <point x="159.3939393939394" y="1480.0" type="line"/>
    </contour>
    <contour>
      <point x="228.84848484848484" y="718.7878787878788" type="line"/>
      <point x="453.57575757575756" y="718.7878787878788" type="line"/>
      <point x="453.57575757575756" y="800.6060606060606" type="line"/>
      <point x="228.84848484848484" y="800.6060606060606" type="line"/>
    </contour>
  </outline>
</glyph>
<glyph name="M" format="2">
  <advance width="1529.3333333333333"/>
  <unicode hex="004D"/>
  <anchor x="766.2424242424242" y="0.0" name="bottom"/>
  <anchor x="766.2424242424242" y="1480.0" name="top"/>
  <outline>
    <contour>
      <point x="163.3939393939394" y="0.0" type="line"/>
      <point x="247.45454545454547" y="0.0" type="line"/>
      <point x="247.45454545454547" y="1400.7272727272727" type="line"/>
      <point x="209.03030303030303" y="1400.7272727272727" type="line"/>
      <point x="719.7575757575758" y="201.21212121212122" type="line"/>
      <point x="809.5757575757576" y="201.21212121212122" type="line"/>
      <point x="1317.5757575757575" y="1400.7272727272727" type="line"/>
      <point x="1281.878787878788" y="1400.7272727272727" type="line"/>
      <point x="1281.878787878788" y="0.0" type="line"/>
      <point x="1365.939393939394" y="0.0" type="line"/>
      <point x="1365.939393939394" y="1480.0" type="line"/>
      <point x="1265.2121212121212" y="1480.0" type="line"/>
      <point x="751.030303030303" y="255.3939393939394" type="line"/>
      <point x="782.9090909090909" y="255.3939393939394" type="line"/>
      <point x="264.1212121212121" y="1480.0" type="line"/>
      <point x="163.3939393939394" y="1480.0" type="line"/>
    </contour>
  </outline>
</glyph>
<glyph name="P" format="2">
  <advance width="1063.939393939394"/>
  <unicode hex="0050"/>
  <outline>
    <contour>
      <point x="159.3939393939394" y="0.0" type="line"/>
      <point x="247.03030303030303" y="0.0" type="line"/>
      <point x="247.03030303030303" y="518.1212121212121" type="line"/>
      <point x="303.57575757575756" y="512.4848484848485"/>
      <point x="357.5151515151515" y="510.4848484848485"/>
      <point x="418.06060606060606" y="510.4848484848485" type="curve" smooth="yes"/>
      <point x="800.060606060606" y="510.4848484848485"/>
      <point x="974.7272727272727" y="679.8181818181819"/>
      <point x="974.7272727272727" y="1000.4848484848485" type="curve" smooth="yes"/>
      <point x="974.7272727272727" y="1339.3939393939395"/>
      <point x="800.060606060606" y="1494.3636363636363"/>
      <point x="454.8484848484849" y="1494.3636363636363" type="curve" smooth="yes"/>
      <point x="349.3333333333333" y="1494.3636363636363"/>
      <point x="248.42424242424244" y="1481.878787878788"/>
      <point x="159.3939393939394" y="1466.909090909091" type="curve"/>
    </contour>
    <contour>
      <point x="423.93939393939394" y="591.5151515151515" type="curve" smooth="yes"/>
      <point x="363.27272727272725" y="591.5151515151515"/>
      <point x="305.2121212121212" y="593.5151515151515"/>
      <point x="247.03030303030303" y="601.2727272727273" type="curve"/>
      <point x="247.03030303030303" y="1397.8181818181818" type="line"/>
      <point x="314.3636363636364" y="1407.5757575757575"/>
      <point x="383.3333333333333" y="1413.3333333333333"/>
      <point x="457.1515151515151" y="1413.3333333333333" type="curve" smooth="yes"/>
      <point x="748.1818181818181" y="1413.3333333333333"/>
      <point x="884.060606060606" y="1288.7272727272727"/>
      <point x="884.060606060606" y="996.4848484848485" type="curve" smooth="yes"/>
      <point x="884.060606060606" y="721.1515151515151"/>
      <point x="738.7878787878788" y="591.5151515151515"/>
    </contour>
  </outline>
</glyph>
<glyph name="Q" format="2">
  <advance width="1178.060606060606"/>
  <unicode hex="0051"/>
  <outline>
    <contour>
      <point x="1044.8484848484848" y="-190.54545454545453" type="curve"/>
      <point x="1060.6060606060605" y="-109.27272727272727" type="line"/>
      <point x="875.6969696969697" y="-90.9090909090909"/>
      <point x="666.4848484848485" y="-52.54545454545455"/>
      <point x="506.6666666666667" y="28.545454545454547" type="curve"/>
      <point x="517.6969696969697" y="-5.454545454545455" type="line"/>
      <point x="895.5151515151515" y="-58.42424242424242"/>
      <point x="1082.7272727272727" y="203.33333333333334"/>
      <point x="1082.7272727272727" y="740.0" type="curve" smooth="yes"/>
      <point x="1082.7272727272727" y="1296.6666666666667"/>
      <point x="890.1212121212121" y="1498.121212121212"/>
      <point x="589.030303030303" y="1498.121212121212" type="curve" smooth="yes"/>
      <point x="287.93939393939394" y="1498.121212121212"/>
      <point x="95.33333333333333" y="1296.6666666666667"/>
      <point x="95.33333333333333" y="740.0" type="curve" smooth="yes"/>
      <point x="95.33333333333333" y="112.60606060606061"/>
      <point x="315.8181818181818" y="-95.45454545454545"/>
    </contour>
    <contour>
      <point x="589.030303030303" y="63.515151515151516" type="curve" smooth="yes"/>
      <point x="346.72727272727275" y="63.515151515151516"/>
      <point x="187.45454545454544" y="218.6060606060606"/>
      <point x="187.45454545454544" y="744.2424242424242" type="curve" smooth="yes"/>
      <point x="187.45454545454544" y="1261.3939393939395"/>
      <point x="346.72727272727275" y="1416.4848484848485"/>
      <point x="589.030303030303" y="1416.4848484848485" type="curve" smooth="yes"/>
      <point x="831.3333333333334" y="1416.4848484848485"/>
      <point x="990.6060606060606" y="1261.3939393939395"/>
      <point x="990.6060606060606" y="735.7575757575758" type="curve" smooth="yes"/>
      <point x="990.6060606060606" y="218.6060606060606"/>
      <point x="831.3333333333334" y="63.515151515151516"/>
    </contour>
  </outline>
</glyph>
<glyph name="V" format="2">
  <advance width="1109.030303030303"/>
  <unicode hex="0056"/>
  <outline>
    <contour>
      <point x="492.1818181818182" y="0.0" type="line"/>
      <point x="616.8484848484849" y="0.0" type="line"/>
      <point x="1100.7272727272727" y="1480.0" type="line"/>
      <point x="1012.3030303030303" y="1480.0" type="line"/>
      <point x="546.2424242424242" y="46.666666666666664" type="line"/>
      <point x="565.8787878787879" y="46.666666666666664" type="line"/>
      <point x="102.18181818181819" y="1480.0" type="line"/>
      <point x="8.303030303030303" y="1480.0" type="line"/>
    </contour>
  </outline>
</glyph>
<glyph name="X" format="2">
  <advance width="1088.969696969697"/>
  <unicode hex="0058"/>
  <outline>
    <contour>
      <point x="958.8484848484849" y="0.0" type="line"/>
      <point x="1061.4545454545455" y="0.0" type="line"/>
      <point x="595.8181818181819" y="749.8181818181819" type="line"/>
      <point x="544.4242424242424" y="827.3333333333334" type="line"/>
      <point x="140.1818181818182" y="1480.0" type="line"/>
      <point x="39.09090909090909" y="1480.0" type="line"/>
      <point x="493.030303030303" y="749.6969696969697" type="line"/>
      <point x="544.4242424242424" y="670.6666666666666" type="line"/>
    </contour>
    <contour>
      <point x="26.90909090909091" y="0.0" type="line"/>
      <point x="128.0" y="0.0" type="line"/>
      <point x="544.4242424242424" y="670.6666666666666" type="line"/>
      <point x="595.8181818181819" y="749.8181818181819" type="line"/>
      <point x="1049.2727272727273" y="1480.0" type="line"/>
      <point x="948.6666666666666" y="1480.0" type="line"/>
      <point x="544.4242424242424" y="827.3333333333334" type="line"/>
      <point x="493.030303030303" y="749.6969696969697" type="line"/>
    </contour>
  </outline>
</glyph>
<glyph name="bracketleft" format="2">
  <advance width="553.7575757575758"/>
  <unicode hex="005B"/>
  <outline>
    <contour>
      <point x="179.3939393939394" y="-440.0" type="line"/>
      <point x="593.1515151515151" y="-440.0" type="line"/>
      <point x="593.1515151515151" y="-361.6969696969697" type="line"/>
      <point x="266.6666666666667" y="-361.6969696969697" type="line"/>
      <point x="266.6666666666667" y="1537.6969696969697" type="line"/>
      <point x="593.1515151515151" y="1537.6969696969697" type="line"/>
      <point x="593.1515151515151" y="1616.0" type="line"/>
      <point x="179.3939393939394" y="1616.0" type="line"/>
    </contour>
  </outline>
</glyph>
<glyph name="backslash" format="2">
  <advance width="438.0"/>
  <unicode hex="005C"/>
  <outline>
    <contour>
      <point x="349.8181818181818" y="-240.0" type="line"/>
      <point x="438.0" y="-240.0" type="line"/>
      <point x="88.18181818181819" y="1616.0" type="line"/>
      <point x="0.0" y="1616.0" type="line"/>
    </contour>
  </outline>
</glyph>
<glyph name="bracketright" format="2">
  <advance width="553.7575757575758"/>
  <unicode hex="005D"/>
  <outline>
    <contour>
      <point x="-39.39393939393939" y="-440.0" type="line"/>
      <point x="374.3636363636364" y="-440.0" type="line"/>
      <point x="374.3636363636364" y="1616.0" type="line"/>
      <point x="-39.39393939393939" y="1616.0" type="line"/>
      <point x="-39.39393939393939" y="1537.6969696969697" type="line"/>
      <point x="287.09090909090907" y="1537.6969696969697" type="line"/>
      <point x="287.09090909090907" y="-361.6969696969697" type="line"/>
      <point x="-39.39393939393939" y="-361.6969696969697" type="line"/>
    </contour>
  </outline>
</glyph>
<glyph name="asciicircum" format="2">
  <advance width="1012.1212121212121"/>
  <unicode hex="005E"/>
  <outline>
    <contour>
      <point x="110.36363636363636" y="740.0" type="line"/>
      <point x="203.21212121212122" y="740.0" type="line"/>
      <point x="514.1818181818181" y="1427.8181818181818" type="line"/>
      <point x="497.93939393939394" y="1427.8181818181818" type="line"/>
      <point x="808.9090909090909" y="740.0" type="line"/>
      <point x="901.7575757575758" y="740.0" type="line"/>
      <point x="558.8484848484849" y="1480.0" type="line"/>
      <point x="451.3939393939394" y="1480.0" type="line"/>
    </contour>
  </outline>
</glyph>
<glyph name="underscore" format="2">
  <advance width="932.060606060606"/>
  <unicode hex="005F"/>
  <outline>
    <contour>
      <point x="89.39393939393939" y="-78.3030303030303" type="line"/>
      <point x="842.6666666666666" y="-78.3030303030303" type="line"/>
      <point x="842.6666666666666" y="0.0" type="line"/>
      <point x="89.39393939393939" y="0.0" type="line"/>
    </contour>
  </outline>
</glyph>
<glyph name="grave" format="2">
  <advance width="824.2424242424242"/>
  <unicode hex="0060"/>
  <anchor x="412.1212121212121" y="1200.0" name="_top"/>
  <anchor x="412.1212121212121" y="1562.060606060606" name="top"/>
  <outline>
    <contour>
      <point x="375.6363636363636" y="1261.3333333333333" type="line"/>
      <point x="448.6060606060606" y="1261.3333333333333" type="line"/>
      <point x="296.969696969697" y="1616.0" type="line"/>
      <point x="205.8181818181818" y="1616.0" type="line"/>
    </contour>
  </outline>
</glyph>
<glyph name="b" format="2">
  <advance width="925.5151515151515"/>
  <unicode hex="0062"/>
  <anchor x="466.1818181818182" y="0.0" name="bottom"/>
  <anchor x="183.6969696969697" y="1616.0" name="top"/>
  <outline>
    <contour>
      <point x="378.54545454545456" y="-18.12121212121212" type="curve" smooth="yes"/>
      <point x="670.3030303030303" y="-18.242424242424242"/>
      <point x="840.4242424242424" y="156.1818181818182"/>
      <point x="840.4242424242424" y="560.3636363636364" type="curve" smooth="yes"/>
      <point x="840.4242424242424" y="974.3030303030303"/>
      <point x="674.1818181818181" y="1097.3333333333333"/>
      <point x="485.8181818181818" y="1097.3333333333333" type="curve" smooth="yes"/>
      <point x="368.90909090909093" y="1097.3333333333333"/>
      <point x="281.6363636363636" y="1040.060606060606"/>
      <point x="234.0" y="978.6060606060606" type="curve"/>
      <point x="227.27272727272728" y="978.6060606060606" type="line"/>
      <point x="227.27272727272728" y="1616.0" type="line"/>
      <point x="140.0" y="1616.0" type="line"/>
      <point x="140.0" y="19.696969696969695" type="line"/>
      <point x="203.5151515151515" y="-3.6363636363636362"/>
      <point x="299.030303030303" y="-18.12121212121212"/>
    </contour>
    <contour>
      <point x="380.4848484848485" y="61.57575757575758" type="curve" smooth="yes"/>
      <point x="328.7878787878788" y="61.57575757575758"/>
      <point x="265.8181818181818" y="71.0909090909091"/>
      <point x="227.27272727272728" y="82.60606060606061" type="curve"/>
      <point x="227.27272727272728" y="868.4242424242424" type="line"/>
      <point x="277.2121212121212" y="964.7272727272727"/>
      <point x="376.3636363636364" y="1015.6969696969697"/>
      <point x="471.6363636363636" y="1015.6969696969697" type="curve" smooth="yes"/>
      <point x="625.6363636363636" y="1015.6969696969697"/>
      <point x="748.9090909090909" y="930.2424242424242"/>
      <point x="748.9090909090909" y="550.7878787878788" type="curve" smooth="yes"/>
      <point x="748.9090909090909" y="194.4848484848485"/>
      <point x="616.0" y="61.57575757575758"/>
    </contour>
  </outline>
</glyph>
<glyph name="f" format="2">
  <advance width="572.7878787878788"/>
  <unicode hex="0066"/>
  <outline>
    <contour>
      <point x="204.36363636363637" y="0.0" type="line"/>
      <point x="291.27272727272725" y="0.0" type="line"/>
      <point x="291.27272727272725" y="1338.969696969697" type="line" smooth="yes"/>
      <point x="291.27272727272725" y="1493.939393939394"/>
      <point x="363.8181818181818" y="1555.2121212121212"/>
      <point x="499.93939393939394" y="1555.2121212121212" type="curve" smooth="yes"/>
      <point x="546.6060606060606" y="1555.2121212121212"/>
      <point x="580.1212121212121" y="1551.3333333333333"/>
      <point x="621.5151515151515" y="1543.5757575757575" type="curve"/>
      <point x="621.5151515151515" y="1625.878787878788" type="line"/>
      <point x="581.2727272727273" y="1633.878787878788"/>
      <point x="534.7878787878788" y="1636.0"/>
      <point x="499.93939393939394" y="1636.0" type="curve" smooth="yes"/>
      <point x="304.6060606060606" y="1636.0"/>
      <point x="204.36363636363637" y="1534.7878787878788"/>
      <point x="204.36363636363637" y="1339.2727272727273" type="curve" smooth="yes"/>
    </contour>
    <contour>
      <point x="8.0" y="1002.9090909090909" type="line"/>
      <point x="587.030303030303" y="1002.9090909090909" type="line"/>
      <point x="587.030303030303" y="1081.2121212121212" type="line"/>
      <point x="8.0" y="1081.2121212121212" type="line"/>
    </contour>
  </outline>
</glyph>
<glyph name="i" format="2">
  <advance width="367.3939393939394"/>
  <unicode hex="0069"/>
  <anchor x="183.6969696969697" y="1200.0" name="_top"/>
  <anchor x="183.6969696969697" y="0.0" name="bottom"/>
  <anchor x="227.3939393939394" y="0.0" name="ogonek"/>
  <anchor x="183.6969696969697" y="1200.0" name="top"/>
  <outline>
    <contour>
      <point x="140.0" y="0.0" type="line"/>
      <point x="227.3939393939394" y="0.0" type="line"/>
      <point x="227.3939393939394" y="1081.2121212121212" type="line"/>
      <point x="140.0" y="1081.2121212121212" type="line"/>
    </contour>
    <contour>
      <point x="183.6969696969697" y="1350.909090909091" type="curve" smooth="yes"/>
      <point x="227.33333333333334" y="1350.909090909091"/>
      <point x="256.1212121212121" y="1378.1818181818182"/>
      <point x="256.1212121212121" y="1421.7575757575758" type="curve" smooth="yes"/>
      <point x="256.1212121212121" y="1465.3333333333333"/>
      <point x="227.33333333333334" y="1494.4848484848485"/>
      <point x="183.6969696969697" y="1494.4848484848485" type="curve" smooth="yes"/>
      <point x="140.06060606060606" y="1494.4848484848485"/>
      <point x="111.27272727272727" y="1465.3333333333333"/>
      <point x="111.27272727272727" y="1421.7575757575758" type="curve" smooth="yes"/>
      <point x="111.27272727272727" y="1378.1818181818182"/>
      <point x="140.06060606060606" y="1350.909090909091"/>
    </contour>
  </outline>
</glyph>
<glyph name="j" format="2">
  <advance width="367.3939393939394"/>
  <unicode hex="006A"/>
  <anchor x="183.6969696969697" y="1200.0" name="_top"/>
  <anchor x="183.6969696969697" y="1200.0" name="top"/>
  <outline>
    <contour>
      <point x="34.42424242424242" y="-460.969696969697" type="line"/>
      <point x="168.78787878787878" y="-256.1212121212121"/>
      <point x="227.3939393939394" y="-95.33333333333333"/>
      <point x="227.3939393939394" y="177.21212121212122" type="curve" smooth="yes"/>
      <point x="227.3939393939394" y="1081.2121212121212" type="line"/>
      <point x="140.0" y="1081.2121212121212" type="line"/>
      <point x="140.0" y="166.84848484848484" type="line" smooth="yes"/>
      <point x="140.0" y="-80.48484848484848"/>
      <point x="91.21212121212122" y="-230.9090909090909"/>
      <point x="-28.060606060606062" y="-418.8484848484849" type="curve"/>
    </contour>
    <contour>
      <point x="183.6969696969697" y="1350.909090909091" type="curve" smooth="yes"/>
      <point x="227.33333333333334" y="1350.909090909091"/>
      <point x="256.1212121212121" y="1378.1818181818182"/>
      <point x="256.1212121212121" y="1421.7575757575758" type="curve" smooth="yes"/>
      <point x="256.1212121212121" y="1465.3333333333333"/>
      <point x="227.33333333333334" y="1494.4848484848485"/>
      <point x="183.6969696969697" y="1494.4848484848485" type="curve" smooth="yes"/>
      <point x="140.06060606060606" y="1494.4848484848485"/>
      <point x="111.27272727272727" y="1465.3333333333333"/>
      <point x="111.27272727272727" y="1421.7575757575758" type="curve" smooth="yes"/>
      <point x="111.27272727272727" y="1378.1818181818182"/>
      <point x="140.06060606060606" y="1350.909090909091"/>
    </contour>
  </outline>
</glyph>
<glyph name="k" format="2">
  <advance width="847.6363636363636"/>
  <unicode hex="006B"/>
  <guideline x="553.6363636363636" y="552.8484848484849" angle="0.0"/>
  <anchor x="469.5151515151515" y="0.0" name="bottom"/>
  <anchor x="183.6969696969697" y="1616.0" name="top"/>
  <outline>
    <contour>
      <point x="768.969696969697" y="0.0" type="line"/>
      <point x="872.8484848484849" y="0.0" type="line"/>
      <point x="455.93939393939394" y="567.8787878787879" type="line"/>
      <point x="455.93939393939394" y="538.6666666666666" type="line"/>
      <point x="840.6060606060606" y="1081.2121212121212" type="line"/>
      <point x="739.2121212121212" y="1081.2121212121212" type="line"/>
      <point x="363.5151515151515" y="552.8484848484849" type="line"/>
    </contour>
    <contour>
      <point x="210.3030303030303" y="513.6969696969697" type="line"/>
      <point x="408.8484848484849" y="513.6969696969697" type="line"/>
      <point x="408.8484848484849" y="592.0" type="line"/>
      <point x="210.3030303030303" y="592.0" type="line"/>
    </contour>
    <contour>
      <point x="140.0" y="0.0" type="line"/>
      <point x="227.27272727272728" y="0.0" type="line"/>
      <point x="227.27272727272728" y="1616.0" type="line"/>
      <point x="140.0" y="1616.0" type="line"/>
    </contour>
  </outline>
</glyph>
<glyph name="l" format="2">
  <advance width="367.27272727272725"/>
  <unicode hex="006C"/>
  <anchor x="183.6969696969697" y="0.0" name="bottom"/>
  <anchor x="326.06060606060606" y="1616.0" name="caronalt"/>
  <anchor x="371.45454545454544" y="794.0" name="periodcentered"/>
  <anchor x="183.6969696969697" y="714.0" name="slash"/>
  <anchor x="183.6969696969697" y="1616.0" name="top"/>
  <outline>
    <contour>
      <point x="140.0" y="0.0" type="line"/>
      <point x="227.27272727272728" y="0.0" type="line"/>
      <point x="227.27272727272728" y="1616.0" type="line"/>
      <point x="140.0" y="1616.0" type="line"/>
    </contour>
  </outline>
</glyph>
<glyph name="m" format="2">
  <advance width="1460.7878787878788"/>
  <unicode hex="006D"/>
  <anchor x="737.2121212121212" y="0.0" name="bottom"/>
  <anchor x="737.2121212121212" y="1200.0" name="top"/>
  <outline>
    <contour>
      <point x="140.0" y="0.0" type="line"/>
      <point x="227.27272727272728" y="0.0" type="line"/>
      <point x="227.27272727272728" y="837.4545454545455" type="line"/>
      <point x="296.1212121212121" y="972.3030303030303"/>
      <point x="416.7878787878788" y="1014.6060606060606"/>
      <point x="497.6363636363636" y="1014.6060606060606" type="curve" smooth="yes"/>
      <point x="611.1515151515151" y="1014.6060606060606"/>
      <point x="693.7575757575758" y="955.030303030303"/>
      <point x="693.7575757575758" y="764.6666666666666" type="curve" smooth="yes"/>
      <point x="693.7575757575758" y="0.0" type="line"/>
      <point x="780.5454545454545" y="0.0" type="line"/>
      <point x="780.5454545454545" y="767.4545454545455" type="line" smooth="yes"/>
      <point x="780.5454545454545" y="1019.6363636363636"/>
      <point x="663.4545454545455" y="1097.3333333333333"/>
      <point x="514.6060606060606" y="1097.3333333333333" type="curve" smooth="yes"/>
      <point x="409.75757575757575" y="1097.3333333333333"/>
      <point x="308.8484848484849" y="1053.3333333333333"/>
      <point x="231.57575757575756" y="956.060606060606" type="curve"/>
      <point x="223.0909090909091" y="956.060606060606" type="line"/>
      <point x="215.75757575757575" y="1081.2121212121212" type="line"/>
      <point x="140.0" y="1081.2121212121212" type="line"/>
    </contour>
    <contour>
      <point x="1243.1515151515152" y="0.0" type="line"/>
      <point x="1330.4242424242425" y="0.0" type="line"/>
      <point x="1330.4242424242425" y="766.0" type="line" smooth="yes"/>
      <point x="1330.4242424242425" y="1019.3939393939394"/>
      <point x="1207.2121212121212" y="1097.3333333333333"/>
      <point x="1057.030303030303" y="1097.3333333333333" type="curve" smooth="yes"/>
      <point x="952.060606060606" y="1097.3333333333333"/>
      <point x="826.9090909090909" y="1052.4848484848485"/>
      <point x="734.6060606060606" y="907.1515151515151" type="curve"/>
      <point x="764.6666666666666" y="814.9090909090909" type="line"/>
      <point x="833.7575757575758" y="972.3030303030303"/>
      <point x="962.1818181818181" y="1014.6060606060606"/>
      <point x="1043.030303030303" y="1014.6060606060606" type="curve" smooth="yes"/>
      <point x="1156.5454545454545" y="1014.6060606060606"/>
      <point x="1243.1515151515152" y="955.030303030303"/>
      <point x="1243.1515151515152" y="764.6666666666666" type="curve" smooth="yes"/>
    </contour>
  </outline>
</glyph>
<glyph name="p" format="2">
  <advance width="925.5151515151515"/>
  <unicode hex="0070"/>
  <outline>
    <contour>
      <point x="140.0" y="-440.0" type="line"/>
      <point x="227.27272727272728" y="-440.0" type="line"/>
      <point x="227.27272727272728" y="-8.727272727272727" type="line"/>
      <point x="272.72727272727275" y="-14.363636363636363"/>
      <point x="327.45454545454544" y="-18.12121212121212"/>
      <point x="372.90909090909093" y="-18.12121212121212" type="curve" smooth="yes"/>
      <point x="672.1818181818181" y="-18.12121212121212"/>
      <point x="840.4242424242424" y="156.3030303030303"/>
      <point x="840.4242424242424" y="560.4848484848485" type="curve" smooth="yes"/>
      <point x="840.4242424242424" y="974.4242424242424"/>
      <point x="673.2121212121212" y="1097.3333333333333"/>
      <point x="480.4848484848485" y="1097.3333333333333" type="curve" smooth="yes"/>
      <point x="366.6060606060606" y="1097.3333333333333"/>
      <point x="279.3333333333333" y="1039.5757575757575"/>
      <point x="231.8181818181818" y="972.2424242424242" type="curve"/>
      <point x="223.33333333333334" y="972.2424242424242" type="line"/>
      <point x="216.12121212121212" y="1081.2121212121212" type="line"/>
      <point x="140.0" y="1081.2121212121212" type="line"/>
    </contour>
    <contour>
      <point x="376.72727272727275" y="61.57575757575758" type="curve" smooth="yes"/>
      <point x="329.1515151515151" y="61.57575757575758"/>
      <point x="265.8181818181818" y="67.33333333333333"/>
      <point x="227.27272727272728" y="74.96969696969697" type="curve"/>
      <point x="227.27272727272728" y="864.3030303030303" type="line"/>
      <point x="277.3333333333333" y="964.6060606060606"/>
      <point x="376.72727272727275" y="1015.8181818181819"/>
      <point x="470.4848484848485" y="1015.8181818181819" type="curve" smooth="yes"/>
      <point x="625.6363636363636" y="1015.8181818181819"/>
      <point x="748.9090909090909" y="930.3636363636364"/>
      <point x="748.9090909090909" y="550.9090909090909" type="curve" smooth="yes"/>
      <point x="748.9090909090909" y="194.4848484848485"/>
      <point x="616.0" y="61.57575757575758"/>
    </contour>
  </outline>
</glyph>
<glyph name="q" format="2">
  <advance width="925.5151515151515"/>
  <unicode hex="0071"/>
  <outline>
    <contour>
      <point x="698.2424242424242" y="-440.0" type="line"/>
      <point x="785.5151515151515" y="-440.0" type="line"/>
      <point x="785.5151515151515" y="1059.5151515151515" type="line"/>
      <point x="725.7575757575758" y="1080.969696969697"/>
      <point x="626.4848484848485" y="1097.3333333333333"/>
      <point x="546.969696969697" y="1097.3333333333333" type="curve" smooth="yes"/>
      <point x="255.21212121212122" y="1097.3333333333333"/>
      <point x="85.0909090909091" y="923.030303030303"/>
      <point x="85.0909090909091" y="518.8484848484849" type="curve" smooth="yes"/>
      <point x="85.0909090909091" y="104.9090909090909"/>
      <point x="251.33333333333334" y="-18.12121212121212"/>
      <point x="439.6969696969697" y="-18.12121212121212" type="curve" smooth="yes"/>
      <point x="556.6060606060606" y="-18.12121212121212"/>
      <point x="643.8787878787879" y="39.15151515151515"/>
      <point x="691.5151515151515" y="100.60606060606061" type="curve"/>
      <point x="698.2424242424242" y="100.60606060606061" type="line"/>
    </contour>
    <contour>
      <point x="453.8787878787879" y="63.515151515151516" type="curve" smooth="yes"/>
      <point x="299.8787878787879" y="63.515151515151516"/>
      <point x="176.6060606060606" y="148.96969696969697"/>
      <point x="176.6060606060606" y="528.4242424242424" type="curve" smooth="yes"/>
      <point x="176.6060606060606" y="884.7272727272727"/>
      <point x="309.75757575757575" y="1017.6363636363636"/>
      <point x="544.9090909090909" y="1017.6363636363636" type="curve" smooth="yes"/>
      <point x="596.6060606060606" y="1017.6363636363636"/>
      <point x="659.6969696969697" y="1008.1212121212121"/>
      <point x="698.2424242424242" y="998.6060606060606" type="curve"/>
      <point x="698.2424242424242" y="210.78787878787878" type="line"/>
      <point x="648.3030303030303" y="114.48484848484848"/>
      <point x="549.1515151515151" y="63.515151515151516"/>
    </contour>
  </outline>
</glyph>
<glyph name="u" format="2">
  <advance width="930.3030303030303"/>
  <unicode hex="0075"/>
  <anchor x="461.3333333333333" y="0.0" name="bottom"/>
  <anchor x="790.3030303030303" y="0.0" name="ogonek"/>
  <anchor x="461.3333333333333" y="1200.0" name="top"/>
  <anchor x="707.5151515151515" y="1081.2121212121212" name="topright"/>
  <outline>
    <contour>
      <point x="412.42424242424244" y="-18.12121212121212" type="curve" smooth="yes"/>
      <point x="516.6666666666666" y="-18.12121212121212"/>
      <point x="621.3333333333334" y="25.87878787878788"/>
      <point x="698.7272727272727" y="119.51515151515152" type="curve"/>
      <point x="707.2121212121212" y="119.51515151515152" type="line"/>
      <point x="714.5454545454545" y="0.0" type="line"/>
      <point x="790.3030303030303" y="0.0" type="line"/>
      <point x="790.3030303030303" y="1081.2121212121212" type="line"/>
      <point x="703.030303030303" y="1081.2121212121212" type="line"/>
      <point x="703.030303030303" y="234.24242424242425" type="line"/>
      <point x="634.060606060606" y="106.9090909090909"/>
      <point x="507.6363636363636" y="64.60606060606061"/>
      <point x="423.1515151515151" y="64.60606060606061" type="curve" smooth="yes"/>
      <point x="302.24242424242425" y="64.60606060606061"/>
      <point x="217.63636363636363" y="124.3030303030303"/>
      <point x="217.63636363636363" y="311.1515151515151" type="curve" smooth="yes"/>
      <point x="217.63636363636363" y="1081.2121212121212" type="line"/>
      <point x="130.36363636363637" y="1081.2121212121212" type="line"/>
      <point x="130.36363636363637" y="312.72727272727275" type="line" smooth="yes"/>
      <point x="130.36363636363637" y="59.81818181818182"/>
      <point x="253.33333333333334" y="-18.12121212121212"/>
    </contour>
  </outline>
</glyph>
<glyph name="v" format="2">
  <advance width="869.7575757575758"/>
  <unicode hex="0076"/>
  <anchor x="435.8181818181818" y="0.0" name="bottom"/>
  <anchor x="435.8181818181818" y="1200.0" name="top"/>
  <outline>
    <contour>
      <point x="375.57575757575756" y="0.0" type="line"/>
      <point x="494.1818181818182" y="0.0" type="line"/>
      <point x="859.0909090909091" y="1081.2121212121212" type="line"/>
      <point x="764.6666666666666" y="1081.2121212121212" type="line"/>
      <point x="424.1818181818182" y="51.21212121212121" type="line"/>
      <point x="446.54545454545456" y="51.21212121212121" type="line"/>
      <point x="106.06060606060606" y="1081.2121212121212" type="line"/>
      <point x="10.666666666666666" y="1081.2121212121212" type="line"/>
    </contour>
  </outline>
</glyph>
<glyph name="x" format="2">
  <advance width="802.1212121212121"/>
  <unicode hex="0078"/>
  <anchor x="402.0" y="0.0" name="bottom"/>
  <anchor x="402.1212121212121" y="1200.0" name="top"/>
  <outline>
    <contour>
      <point x="690.9090909090909" y="0.0" type="line"/>
      <point x="791.2727272727273" y="0.0" type="line"/>
      <point x="451.6363636363636" y="546.7272727272727" type="line"/>
      <point x="402.24242424242425" y="620.4242424242424" type="line"/>
      <point x="117.45454545454545" y="1081.2121212121212" type="line"/>
      <point x="17.09090909090909" y="1081.2121212121212" type="line"/>
      <point x="350.3636363636364" y="544.6060606060606" type="line"/>
      <point x="400.0" y="473.030303030303" type="line"/>
    </contour>
    <contour>
      <point x="12.969696969696969" y="0.0" type="line"/>
      <point x="110.72727272727272" y="0.0" type="line"/>
      <point x="400.0" y="473.030303030303" type="line"/>
      <point x="451.6363636363636" y="546.7272727272727" type="line"/>
      <point x="784.7878787878788" y="1081.2121212121212" type="line"/>
      <point x="687.030303030303" y="1081.2121212121212" type="line"/>
      <point x="402.24242424242425" y="620.4242424242424" type="line"/>
      <point x="350.3636363636364" y="544.6060606060606" type="line"/>
    </contour>
  </outline>
</glyph>
<glyph name="z" format="2">
  <advance width="750.1212121212121"/>
  <unicode hex="007A"/>
  <anchor x="378.3636363636364" y="0.0" name="bottom"/>
  <anchor x="378.3636363636364" y="1200.0" name="top"/>
  <outline>
    <contour>
      <point x="53.27272727272727" y="0.0" type="line"/>
      <point x="701.5757575757576" y="0.0" type="line"/>
      <point x="701.5757575757576" y="78.3030303030303" type="line"/>
      <point x="143.93939393939394" y="78.3030303030303" type="line"/>
      <point x="143.93939393939394" y="49.515151515151516" type="line"/>
      <point x="691.5757575757576" y="1029.090909090909" type="line"/>
      <point x="691.5757575757576" y="1081.2121212121212" type="line"/>
      <point x="63.27272727272727" y="1081.2121212121212" type="line"/>
      <point x="63.27272727272727" y="1002.9090909090909" type="line"/>
      <point x="600.9090909090909" y="1002.9090909090909" type="line"/>
      <point x="600.9090909090909" y="1031.6969696969697" type="line"/>
      <point x="53.27272727272727" y="52.121212121212125" type="line"/>
    </contour>
  </outline>
</glyph>
<glyph name="braceleft" format="2">
  <advance width="593.7575757575758"/>
  <unicode hex="007B"/>
  <outline>
    <contour>
      <point x="509.5151515151515" y="-460.0" type="curve" smooth="yes"/>
      <point x="555.0909090909091" y="-460.0"/>
      <point x="601.8181818181819" y="-455.8787878787879"/>
      <point x="633.1515151515151" y="-449.75757575757575" type="curve"/>
      <point x="633.1515151515151" y="-379.45454545454544" type="line"/>
      <point x="509.8787878787879" y="-379.45454545454544" type="line" smooth="yes"/>
      <point x="372.6060606060606" y="-379.45454545454544"/>
      <point x="306.6666666666667" y="-314.0"/>
      <point x="306.6666666666667" y="-177.0909090909091" type="curve" smooth="yes"/>
      <point x="306.6666666666667" y="410.24242424242425" type="line" smooth="yes"/>
      <point x="306.6666666666667" y="531.0909090909091"/>
      <point x="257.6363636363636" y="605.2727272727273"/>
      <point x="152.36363636363637" y="629.6969696969697" type="curve"/>
      <point x="152.36363636363637" y="615.5151515151515" type="line"/>
      <point x="257.6363636363636" y="639.939393939394"/>
      <point x="306.6666666666667" y="714.1212121212121"/>
      <point x="306.6666666666667" y="834.969696969697" type="curve" smooth="yes"/>
      <point x="306.6666666666667" y="1353.090909090909" type="line" smooth="yes"/>
      <point x="306.6666666666667" y="1490.0"/>
      <point x="372.6060606060606" y="1555.4545454545455"/>
      <point x="509.8787878787879" y="1555.4545454545455" type="curve" smooth="yes"/>
      <point x="633.1515151515151" y="1555.4545454545455" type="line"/>
      <point x="633.1515151515151" y="1625.7575757575758" type="line"/>
      <point x="601.8181818181819" y="1631.878787878788"/>
      <point x="555.0909090909091" y="1636.0"/>
      <point x="509.5151515151515" y="1636.0" type="curve" smooth="yes"/>
      <point x="318.06060606060606" y="1636.0"/>
      <point x="219.3939393939394" y="1537.5757575757575"/>
      <point x="219.3939393939394" y="1345.3333333333333" type="curve" smooth="yes"/>
      <point x="219.3939393939394" y="833.1515151515151" type="line" smooth="yes"/>
      <point x="219.3939393939394" y="714.9090909090909"/>
      <point x="158.72727272727272" y="661.7575757575758"/>
      <point x="49.878787878787875" y="661.7575757575758" type="curve" smooth="yes"/>
      <point x="42.36363636363636" y="661.7575757575758" type="line"/>
      <point x="42.36363636363636" y="583.4545454545455" type="line"/>
      <point x="49.878787878787875" y="583.4545454545455" type="line" smooth="yes"/>
      <point x="158.72727272727272" y="583.4545454545455"/>
      <point x="219.3939393939394" y="530.3030303030303"/>
      <point x="219.3939393939394" y="412.06060606060606" type="curve" smooth="yes"/>
      <point x="219.3939393939394" y="-169.33333333333334" type="line" smooth="yes"/>
      <point x="219.3939393939394" y="-361.57575757575756"/>
      <point x="318.06060606060606" y="-460.0"/>
    </contour>
  </outline>
</glyph>
<glyph name="bar" format="2">
  <advance width="403.27272727272725"/>
  <unicode hex="007C"/>
  <outline>
    <contour>
      <point x="159.3939393939394" y="-440.0" type="line"/>
      <point x="243.87878787878788" y="-440.0" type="line"/>
      <point x="243.87878787878788" y="1616.0" type="line"/>
      <point x="159.3939393939394" y="1616.0" type="line"/>
    </contour>
  </outline>
</glyph>
<glyph name="braceright" format="2">
  <advance width="593.7575757575758"/>
  <unicode hex="007D"/>
  <outline>
    <contour>
      <point x="84.24242424242425" y="-460.0" type="curve" smooth="yes"/>
      <point x="275.6969696969697" y="-460.0"/>
      <point x="374.3636363636364" y="-361.57575757575756"/>
      <point x="374.3636363636364" y="-169.33333333333334" type="curve" smooth="yes"/>
      <point x="374.3636363636364" y="412.06060606060606" type="line" smooth="yes"/>
      <point x="374.3636363636364" y="530.3030303030303"/>
      <point x="435.030303030303" y="583.4545454545455"/>
      <point x="543.8787878787879" y="583.4545454545455" type="curve" smooth="yes"/>
      <point x="551.3939393939394" y="583.4545454545455" type="line"/>
      <point x="551.3939393939394" y="661.7575757575758" type="line"/>
      <point x="543.8787878787879" y="661.7575757575758" type="line" smooth="yes"/>
      <point x="435.030303030303" y="661.7575757575758"/>
      <point x="374.3636363636364" y="714.9090909090909"/>
      <point x="374.3636363636364" y="833.1515151515151" type="curve" smooth="yes"/>
      <point x="374.3636363636364" y="1345.3333333333333" type="line" smooth="yes"/>
      <point x="374.3636363636364" y="1537.5757575757575"/>
      <point x="275.6969696969697" y="1636.0"/>
      <point x="84.24242424242425" y="1636.0" type="curve" smooth="yes"/>
      <point x="38.666666666666664" y="1636.0"/>
      <point x="-8.06060606060606" y="1631.878787878788"/>
      <point x="-39.39393939393939" y="1625.7575757575758" type="curve"/>
      <point x="-39.39393939393939" y="1555.4545454545455" type="line"/>
      <point x="83.87878787878788" y="1555.4545454545455" type="line" smooth="yes"/>
      <point x="221.15151515151516" y="1555.4545454545455"/>
      <point x="287.09090909090907" y="1490.0"/>
      <point x="287.09090909090907" y="1353.090909090909" type="curve" smooth="yes"/>
      <point x="287.09090909090907" y="834.969696969697" type="line" smooth="yes"/>
      <point x="287.09090909090907" y="714.1212121212121"/>
      <point x="336.4848484848485" y="639.939393939394"/>
      <point x="441.3939393939394" y="615.5151515151515" type="curve"/>
      <point x="441.3939393939394" y="629.6969696969697" type="line"/>
      <point x="336.4848484848485" y="605.2727272727273"/>
      <point x="287.09090909090907" y="531.0909090909091"/>
      <point x="287.09090909090907" y="410.24242424242425" type="curve" smooth="yes"/>
      <point x="287.09090909090907" y="-177.0909090909091" type="line" smooth="yes"/>
      <point x="287.09090909090907" y="-314.0"/>
      <point x="221.15151515151516" y="-379.45454545454544"/>
      <point x="83.87878787878788" y="-379.45454545454544" type="curve" smooth="yes"/>
      <point x="-39.39393939393939" y="-379.45454545454544" type="line"/>
      <point x="-39.39393939393939" y="-449.75757575757575" type="line"/>
      <point x="-8.06060606060606" y="-455.8787878787879"/>
      <point x="38.666666666666664" y="-460.0"/>
    </contour>
  </outline>
</glyph>
<glyph name="asciitilde" format="2">
  <advance width="1017.2121212121212"/>
  <unicode hex="007E"/>
  <outline>
    <contour>
      <point x="682.060606060606" y="657.3333333333334" type="curve" smooth="yes"/>
      <point x="761.7575757575758" y="657.3333333333334"/>
      <point x="831.8787878787879" y="689.2121212121212"/>
      <point x="877.2121212121212" y="748.060606060606" type="curve"/>
      <point x="877.2121212121212" y="843.3939393939394" type="line"/>
      <point x="821.7575757575758" y="771.030303030303"/>
      <point x="757.3939393939394" y="735.2727272727273"/>
      <point x="680.4242424242424" y="735.2727272727273" type="curve" smooth="yes"/>
      <point x="575.0909090909091" y="735.2727272727273"/>
      <point x="468.6060606060606" y="851.3939393939394"/>
      <point x="335.1515151515151" y="851.3939393939394" type="curve" smooth="yes"/>
      <point x="255.45454545454547" y="851.3939393939394"/>
      <point x="185.33333333333334" y="819.5151515151515"/>
      <point x="140.0" y="760.6666666666666" type="curve"/>
      <point x="140.0" y="665.3333333333334" type="line"/>
      <point x="195.45454545454547" y="737.6969696969697"/>
      <point x="259.8181818181818" y="773.4545454545455"/>
      <point x="336.7878787878788" y="773.4545454545455" type="curve" smooth="yes"/>
      <point x="442.1212121212121" y="773.4545454545455"/>
      <point x="548.6060606060606" y="657.3333333333334"/>
    </contour>
  </outline>
</glyph>
<glyph name="exclamdown" format="2">
  <advance width="411.1515151515151"/>
  <unicode hex="00A1"/>
  <outline>
    <contour>
      <point x="176.0" y="751.3939393939394" type="line"/>
      <point x="159.15151515151516" y="184.42424242424244" type="line"/>
      <point x="159.15151515151516" y="-380.0" type="line"/>
      <point x="252.0" y="-380.0" type="line"/>
      <point x="252.0" y="184.42424242424244" type="line"/>
      <point x="235.3939393939394" y="751.3939393939394" type="line"/>
    </contour>
    <contour>
      <point x="205.57575757575756" y="1091.8181818181818" type="curve" smooth="yes"/>
      <point x="163.03030303030303" y="1091.8181818181818"/>
      <point x="132.42424242424244" y="1063.6969696969697"/>
      <point x="132.42424242424244" y="1018.9090909090909" type="curve" smooth="yes"/>
      <point x="132.42424242424244" y="974.1212121212121"/>
      <point x="162.78787878787878" y="944.1212121212121"/>
      <point x="205.57575757575756" y="944.1212121212121" type="curve" smooth="yes"/>
      <point x="248.36363636363637" y="944.1212121212121"/>
      <point x="278.72727272727275" y="974.3636363636364"/>
      <point x="278.72727272727275" y="1018.9090909090909" type="curve" smooth="yes"/>
      <point x="278.72727272727275" y="1063.4545454545455"/>
      <point x="248.12121212121212" y="1091.8181818181818"/>
    </contour>
  </outline>
</glyph>
<glyph name="cent" format="2">
  <advance width="705.0909090909091"/>
  <unicode hex="00A2"/>
  <outline>
    <contour>
      <point x="473.93939393939394" y="-18.242424242424242" type="curve" smooth="yes"/>
      <point x="544.4242424242424" y="-18.242424242424242"/>
      <point x="615.5151515151515" y="-6.242424242424242"/>
      <point x="693.2727272727273" y="21.515151515151516" type="curve"/>
      <point x="693.2727272727273" y="104.3030303030303" type="line"/>
      <point x="610.969696969697" y="75.03030303030303"/>
      <point x="544.060606060606" y="63.151515151515156"/>
      <point x="486.7878787878788" y="63.151515151515156" type="curve" smooth="yes"/>
      <point x="282.7878787878788" y="63.151515151515156"/>
      <point x="177.0909090909091" y="173.87878787878788"/>
      <point x="177.0909090909091" y="544.6060606060606" type="curve" smooth="yes"/>
      <point x="177.0909090909091" y="910.3636363636364"/>
      <point x="292.1818181818182" y="1015.939393939394"/>
      <point x="522.060606060606" y="1015.939393939394" type="curve" smooth="yes"/>
      <point x="565.939393939394" y="1015.939393939394"/>
      <point x="628.8484848484849" y="1010.060606060606"/>
      <point x="693.2727272727273" y="992.7878787878788" type="curve"/>
      <point x="693.2727272727273" y="1075.5757575757575" type="line"/>
      <point x="634.9090909090909" y="1091.3333333333333"/>
      <point x="572.6666666666666" y="1097.3333333333333"/>
      <point x="521.2121212121212" y="1097.3333333333333" type="curve" smooth="yes"/>
      <point x="237.57575757575756" y="1097.3333333333333"/>
      <point x="85.0909090909091" y="953.8787878787879"/>
      <point x="85.0909090909091" y="540.4848484848485" type="curve" smooth="yes"/>
      <point x="85.0909090909091" y="127.93939393939394"/>
      <point x="224.36363636363637" y="-18.242424242424242"/>
    </contour>
    <contour>
      <point x="432.24242424242425" y="-240.0" type="line"/>
      <point x="511.75757575757575" y="-240.0" type="line"/>
      <point x="511.75757575757575" y="3.6363636363636367" type="line"/>
      <point x="432.24242424242425" y="3.6363636363636367" type="line"/>
    </contour>
    <contour>
      <point x="432.24242424242425" y="1077.5757575757575" type="line"/>
      <point x="511.75757575757575" y="1077.5757575757575" type="line"/>
      <point x="511.75757575757575" y="1321.2121212121212" type="line"/>
      <point x="432.24242424242425" y="1321.2121212121212" type="line"/>
    </contour>
  </outline>
</glyph>
<glyph name="sterling" format="2">
  <advance width="1057.5757575757575"/>
  <unicode hex="00A3"/>
  <outline>
    <contour>
      <point x="283.27272727272725" y="37.57575757575758" type="line"/>
      <point x="370.54545454545456" y="37.57575757575758" type="line"/>
      <point x="370.54545454545456" y="1091.1515151515152" type="line" smooth="yes"/>
      <point x="370.54545454545456" y="1319.2727272727273"/>
      <point x="490.6666666666667" y="1416.2424242424242"/>
      <point x="727.3333333333334" y="1416.2424242424242" type="curve" smooth="yes"/>
      <point x="811.2121212121212" y="1416.2424242424242"/>
      <point x="892.6666666666666" y="1406.121212121212"/>
      <point x="978.3030303030303" y="1378.6060606060605" type="curve"/>
      <point x="978.3030303030303" y="1462.2424242424242" type="line"/>
      <point x="909.3333333333334" y="1486.0"/>
      <point x="808.7272727272727" y="1498.121212121212"/>
      <point x="726.9090909090909" y="1498.121212121212" type="curve" smooth="yes"/>
      <point x="439.93939393939394" y="1498.121212121212"/>
      <point x="283.27272727272725" y="1363.090909090909"/>
      <point x="283.27272727272725" y="1090.5454545454545" type="curve" smooth="yes"/>
    </contour>
    <contour>
      <point x="78.18181818181819" y="0.0" type="line"/>
      <point x="1008.5454545454545" y="0.0" type="line"/>
      <point x="1008.5454545454545" y="80.36363636363636" type="line"/>
      <point x="78.18181818181819" y="80.36363636363636" type="line"/>
    </contour>
    <contour>
      <point x="78.18181818181819" y="710.8484848484849" type="line"/>
      <point x="837.0909090909091" y="710.8484848484849" type="line"/>
      <point x="837.0909090909091" y="789.1515151515151" type="line"/>
      <point x="78.18181818181819" y="789.1515151515151" type="line"/>
    </contour>
  </outline>
</glyph>
<glyph name="yen" format="2">
  <advance width="1045.090909090909"/>
  <unicode hex="00A5"/>
  <outline>
    <contour>
      <point x="478.7878787878788" y="0.0" type="line"/>
      <point x="566.4242424242424" y="0.0" type="line"/>
      <point x="566.4242424242424" y="711.7575757575758" type="line"/>
      <point x="546.5454545454545" y="640.3636363636364" type="line"/>
      <point x="1039.6969696969697" y="1480.0" type="line"/>
      <point x="945.5151515151515" y="1480.0" type="line"/>
      <point x="507.1515151515151" y="732.8484848484849" type="line"/>
      <point x="539.5151515151515" y="732.8484848484849" type="line"/>
      <point x="103.15151515151516" y="1480.0" type="line"/>
      <point x="5.03030303030303" y="1480.0" type="line"/>
      <point x="498.6666666666667" y="640.3636363636364" type="line"/>
      <point x="478.7878787878788" y="712.1212121212121" type="line"/>
    </contour>
    <contour>
      <point x="179.3939393939394" y="315.8787878787879" type="line"/>
      <point x="865.8181818181819" y="315.8787878787879" type="line"/>
      <point x="865.8181818181819" y="390.1818181818182" type="line"/>
      <point x="179.3939393939394" y="390.1818181818182" type="line"/>
    </contour>
    <contour>
      <point x="179.3939393939394" y="657.8181818181819" type="line"/>
      <point x="865.8181818181819" y="657.8181818181819" type="line"/>
      <point x="865.8181818181819" y="732.1212121212121" type="line"/>
      <point x="179.3939393939394" y="732.1212121212121" type="line"/>
    </contour>
  </outline>
</glyph>
<glyph name="brokenbar" format="2">
  <advance width="403.27272727272725"/>
  <unicode hex="00A6"/>
  <outline>
    <contour>
      <point x="159.3939393939394" y="836.0" type="line"/>
      <point x="243.87878787878788" y="836.0" type="line"/>
      <point x="243.87878787878788" y="1616.0" type="line"/>
      <point x="159.3939393939394" y="1616.0" type="line"/>
    </contour>
    <contour>
      <point x="159.3939393939394" y="-440.0" type="line"/>
      <point x="243.87878787878788" y="-440.0" type="line"/>
      <point x="243.87878787878788" y="340.0" type="line"/>
      <point x="159.3939393939394" y="340.0" type="line"/>
    </contour>
  </outline>
</glyph>
<glyph name="section" format="2">
  <advance width="825.939393939394"/>
  <unicode hex="00A7"/>
  <outline>
    <contour>
      <point x="353.5151515151515" y="-18.242424242424242" type="curve" smooth="yes"/>
      <point x="574.3636363636364" y="-18.242424242424242"/>
      <point x="701.7575757575758" y="93.6969696969697"/>
      <point x="701.7575757575758" y="281.75757575757575" type="curve" smooth="yes"/>
      <point x="701.7575757575758" y="422.8484848484849"/>
      <point x="645.3333333333334" y="517.8787878787879"/>
      <point x="455.3939393939394" y="570.9090909090909" type="curve" smooth="yes"/>
      <point x="357.09090909090907" y="598.1212121212121" type="line" smooth="yes"/>
      <point x="240.96969696969697" y="630.9090909090909"/>
      <point x="183.63636363636363" y="694.4848484848485"/>
      <point x="183.63636363636363" y="806.1212121212121" type="curve" smooth="yes"/>
      <point x="183.63636363636363" y="876.7878787878788"/>
      <point x="216.78787878787878" y="938.7272727272727"/>
      <point x="279.3333333333333" y="979.3333333333334" type="curve"/>
      <point x="219.75757575757575" y="1028.6666666666667" type="line"/>
      <point x="148.3030303030303" y="976.060606060606"/>
      <point x="102.96969696969697" y="895.5757575757576"/>
      <point x="102.96969696969697" y="801.5151515151515" type="curve" smooth="yes"/>
      <point x="102.96969696969697" y="660.3636363636364"/>
      <point x="165.3939393939394" y="566.4848484848485"/>
      <point x="342.8484848484849" y="517.4545454545455" type="curve" smooth="yes"/>
      <point x="441.1515151515151" y="490.1212121212121" type="line" smooth="yes"/>
      <point x="553.939393939394" y="457.6969696969697"/>
      <point x="614.9090909090909" y="402.4848484848485"/>
      <point x="614.9090909090909" y="276.90909090909093" type="curve" smooth="yes"/>
      <point x="614.9090909090909" y="137.57575757575756"/>
      <point x="521.2727272727273" y="60.84848484848485"/>
      <point x="353.27272727272725" y="60.84848484848485" type="curve" smooth="yes"/>
      <point x="281.45454545454544" y="60.84848484848485"/>
      <point x="211.27272727272728" y="72.96969696969697"/>
      <point x="123.39393939393939" y="100.72727272727273" type="curve"/>
      <point x="123.39393939393939" y="19.757575757575758" type="line"/>
      <point x="194.96969696969697" y="-4.363636363636363"/>
      <point x="272.54545454545456" y="-18.242424242424242"/>
    </contour>
    <contour>
      <point x="607.0909090909091" y="448.72727272727275" type="line"/>
      <point x="679.030303030303" y="499.57575757575756"/>
      <point x="722.969696969697" y="578.4242424242424"/>
      <point x="722.969696969697" y="682.3636363636364" type="curve" smooth="yes"/>
      <point x="722.969696969697" y="825.5151515151515"/>
      <point x="666.5454545454545" y="922.7878787878788"/>
      <point x="477.57575757575756" y="975.5757575757576" type="curve" smooth="yes"/>
      <point x="379.27272727272725" y="1002.7878787878788" type="line" smooth="yes"/>
      <point x="264.6060606060606" y="1035.2121212121212"/>
      <point x="211.03030303030303" y="1095.939393939394"/>
      <point x="211.03030303030303" y="1206.3636363636363" type="curve" smooth="yes"/>
      <point x="211.03030303030303" y="1322.909090909091"/>
      <point x="293.6363636363636" y="1417.030303030303"/>
      <point x="475.3333333333333" y="1417.030303030303" type="curve" smooth="yes"/>
      <point x="543.6969696969697" y="1417.030303030303"/>
      <point x="598.9090909090909" y="1411.030303030303"/>
      <point x="671.030303030303" y="1393.1515151515152" type="curve"/>
      <point x="671.030303030303" y="1474.121212121212" type="line"/>
      <point x="610.1818181818181" y="1488.121212121212"/>
      <point x="548.6060606060606" y="1496.121212121212"/>
      <point x="473.6363636363636" y="1496.121212121212" type="curve" smooth="yes"/>
      <point x="248.4848484848485" y="1496.121212121212"/>
      <point x="124.18181818181819" y="1370.909090909091"/>
      <point x="124.18181818181819" y="1201.5151515151515" type="curve" smooth="yes"/>
      <point x="124.18181818181819" y="1063.030303030303"/>
      <point x="186.4848484848485" y="971.1515151515151"/>
      <point x="365.030303030303" y="922.0" type="curve" smooth="yes"/>
      <point x="463.3333333333333" y="894.7878787878788" type="line" smooth="yes"/>
      <point x="577.5757575757576" y="862.0"/>
      <point x="642.3030303030303" y="803.939393939394"/>
      <point x="642.3030303030303" y="677.7575757575758" type="curve" smooth="yes"/>
      <point x="642.3030303030303" y="598.5454545454545"/>
      <point x="609.5151515151515" y="540.4848484848485"/>
      <point x="551.030303030303" y="501.3939393939394" type="curve"/>
    </contour>
  </outline>
</glyph>
<glyph name="dieresis" format="2">
  <advance width="824.2424242424242"/>
  <unicode hex="00A8"/>
  <anchor x="412.1212121212121" y="1200.0" name="_top"/>
  <anchor x="412.1212121212121" y="1559.6363636363637" name="top"/>
  <outline>
    <contour>
      <point x="577.0909090909091" y="1351.5151515151515" type="curve" smooth="yes"/>
      <point x="618.4242424242424" y="1351.5151515151515"/>
      <point x="647.6969696969697" y="1378.5454545454545"/>
      <point x="647.6969696969697" y="1421.7575757575758" type="curve" smooth="yes"/>
      <point x="647.6969696969697" y="1464.969696969697"/>
      <point x="618.4242424242424" y="1493.878787878788"/>
      <point x="577.0909090909091" y="1493.878787878788" type="curve" smooth="yes"/>
      <point x="535.7575757575758" y="1493.878787878788"/>
      <point x="506.4848484848485" y="1464.969696969697"/>
      <point x="506.4848484848485" y="1421.7575757575758" type="curve" smooth="yes"/>
      <point x="506.4848484848485" y="1378.5454545454545"/>
      <point x="535.7575757575758" y="1351.5151515151515"/>
    </contour>
    <contour>
      <point x="247.15151515151516" y="1351.5151515151515" type="curve" smooth="yes"/>
      <point x="288.4848484848485" y="1351.5151515151515"/>
      <point x="317.75757575757575" y="1378.5454545454545"/>
      <point x="317.75757575757575" y="1421.7575757575758" type="curve" smooth="yes"/>
      <point x="317.75757575757575" y="1464.969696969697"/>
      <point x="288.4848484848485" y="1493.878787878788"/>
      <point x="247.15151515151516" y="1493.878787878788" type="curve" smooth="yes"/>
      <point x="205.8181818181818" y="1493.878787878788"/>
      <point x="176.54545454545453" y="1464.969696969697"/>
      <point x="176.54545454545453" y="1421.7575757575758" type="curve" smooth="yes"/>
      <point x="176.54545454545453" y="1378.5454545454545"/>
      <point x="205.8181818181818" y="1351.5151515151515"/>
    </contour>
  </outline>
</glyph>
<glyph name="copyright" format="2">
  <advance width="1679.3939393939395"/>
  <unicode hex="00A9"/>
  <outline>
    <contour>
      <point x="839.6969696969697" y="-22.0" type="curve" smooth="yes"/>
      <point x="1286.060606060606" y="-22.0"/>
      <point x="1584.060606060606" y="282.0"/>
      <point x="1584.060606060606" y="740.0" type="curve" smooth="yes"/>
      <point x="1584.060606060606" y="1198.0"/>
      <point x="1286.060606060606" y="1502.0"/>
      <point x="839.6969696969697" y="1502.0" type="curve" smooth="yes"/>
      <point x="393.3333333333333" y="1502.0"/>
      <point x="95.33333333333333" y="1198.0"/>
      <point x="95.33333333333333" y="740.0" type="curve" smooth="yes"/>
      <point x="95.33333333333333" y="282.0"/>
      <point x="393.3333333333333" y="-22.0"/>
    </contour>
    <contour>
      <point x="875.8787878787879" y="324.0" type="curve" smooth="yes"/>
      <point x="954.1212121212121" y="324.0"/>
      <point x="1026.121212121212" y="336.0"/>
      <point x="1093.030303030303" y="365.27272727272725" type="curve"/>
      <point x="1093.030303030303" y="442.42424242424244" type="line"/>
      <point x="1011.2727272727273" y="411.27272727272725"/>
      <point x="941.0909090909091" y="401.5151515151515"/>
      <point x="883.2121212121212" y="401.5151515151515" type="curve" smooth="yes"/>
      <point x="692.3030303030303" y="401.5151515151515"/>
      <point x="573.939393939394" y="508.1212121212121"/>
      <point x="573.939393939394" y="737.6363636363636" type="curve" smooth="yes"/>
      <point x="573.939393939394" y="961.6363636363636"/>
      <point x="691.939393939394" y="1066.4848484848485"/>
      <point x="904.6060606060606" y="1066.4848484848485" type="curve" smooth="yes"/>
      <point x="973.7575757575758" y="1066.4848484848485"/>
      <point x="1031.1515151515152" y="1056.7272727272727"/>
      <point x="1093.030303030303" y="1039.2121212121212" type="curve"/>
      <point x="1093.030303030303" y="1116.3636363636363" type="line"/>
      <point x="1029.5151515151515" y="1136.0"/>
      <point x="969.3939393939394" y="1144.0"/>
      <point x="901.030303030303" y="1144.0" type="curve" smooth="yes"/>
      <point x="636.060606060606" y="1144.0"/>
      <point x="488.1212121212121" y="995.7575757575758"/>
      <point x="488.1212121212121" y="733.8787878787879" type="curve" smooth="yes"/>
      <point x="488.1212121212121" y="462.72727272727275"/>
      <point x="643.3333333333334" y="324.0"/>
    </contour>
    <contour>
      <point x="839.6969696969697" y="54.72727272727273" type="curve" smooth="yes"/>
      <point x="437.8181818181818" y="54.72727272727273"/>
      <point x="172.66666666666666" y="326.72727272727275"/>
      <point x="172.66666666666666" y="740.0" type="curve" smooth="yes"/>
      <point x="172.66666666666666" y="1153.2727272727273"/>
      <point x="437.8181818181818" y="1425.2727272727273"/>
      <point x="839.6969696969697" y="1425.2727272727273" type="curve" smooth="yes"/>
      <point x="1241.5757575757575" y="1425.2727272727273"/>
      <point x="1506.7272727272727" y="1153.2727272727273"/>
      <point x="1506.7272727272727" y="740.0" type="curve" smooth="yes"/>
      <point x="1506.7272727272727" y="326.72727272727275"/>
      <point x="1241.5757575757575" y="54.72727272727273"/>
    </contour>
  </outline>
</glyph>
<glyph name="ordfeminine" format="2">
  <advance width="723.3939393939394"/>
  <unicode hex="00AA"/>
  <outline>
    <contour>
      <point x="301.6969696969697" y="595.7575757575758" type="curve" smooth="yes"/>
      <point x="396.72727272727275" y="595.7575757575758"/>
      <point x="480.0" y="633.030303030303"/>
      <point x="534.7878787878788" y="707.3939393939394" type="curve"/>
      <point x="541.3939393939394" y="707.3939393939394" type="line"/>
      <point x="548.6060606060606" y="610.0" type="line"/>
      <point x="618.7878787878788" y="610.0" type="line"/>
      <point x="618.7878787878788" y="1204.060606060606" type="line" smooth="yes"/>
      <point x="618.7878787878788" y="1420.5454545454545"/>
      <point x="519.0909090909091" y="1492.6060606060605"/>
      <point x="328.54545454545456" y="1492.6060606060605" type="curve" smooth="yes"/>
      <point x="258.8484848484849" y="1492.6060606060605"/>
      <point x="173.5151515151515" y="1478.7272727272727"/>
      <point x="110.06060606060606" y="1454.969696969697" type="curve"/>
      <point x="110.06060606060606" y="1378.2424242424242" type="line"/>
      <point x="185.45454545454547" y="1403.7575757575758"/>
      <point x="259.45454545454544" y="1417.5151515151515"/>
      <point x="319.93939393939394" y="1417.5151515151515" type="curve" smooth="yes"/>
      <point x="462.6060606060606" y="1417.5151515151515"/>
      <point x="537.3333333333334" y="1370.6060606060605"/>
      <point x="537.3333333333334" y="1209.7575757575758" type="curve" smooth="yes"/>
      <point x="537.3333333333334" y="795.1515151515151" type="line"/>
      <point x="476.8484848484849" y="701.0909090909091"/>
      <point x="391.6969696969697" y="669.1515151515151"/>
      <point x="319.93939393939394" y="669.1515151515151" type="curve" smooth="yes"/>
      <point x="209.03030303030303" y="669.1515151515151"/>
      <point x="145.33333333333334" y="724.7272727272727"/>
      <point x="145.33333333333334" y="838.6060606060606" type="curve" smooth="yes"/>
      <point x="145.33333333333334" y="944.4848484848485"/>
      <point x="208.9090909090909" y="1002.060606060606"/>
      <point x="349.09090909090907" y="1015.3333333333334" type="curve" smooth="yes"/>
      <point x="580.1212121212121" y="1038.0" type="line"/>
      <point x="569.4545454545455" y="1105.2727272727273" type="line"/>
      <point x="346.1818181818182" y="1082.4848484848485" type="line" smooth="yes"/>
      <point x="147.57575757575756" y="1062.969696969697"/>
      <point x="60.60606060606061" y="976.3636363636364"/>
      <point x="60.60606060606061" y="827.939393939394" type="curve" smooth="yes"/>
      <point x="60.60606060606061" y="683.3333333333334"/>
      <point x="159.0909090909091" y="595.7575757575758"/>
    </contour>
  </outline>
</glyph>
<glyph name="guillemetleft" format="2">
  <advance width="734.8484848484849"/>
  <unicode hex="00AB"/>
  <outline>
    <contour>
      <point x="295.57575757575756" y="139.3939393939394" type="line"/>
      <point x="382.4848484848485" y="139.3939393939394" type="line"/>
      <point x="193.87878787878788" y="560.6060606060606" type="line"/>
      <point x="382.4848484848485" y="981.8181818181819" type="line"/>
      <point x="295.57575757575756" y="981.8181818181819" type="line"/>
      <point x="106.96969696969697" y="560.6060606060606" type="line"/>
    </contour>
    <contour>
      <point x="580.969696969697" y="139.3939393939394" type="line"/>
      <point x="667.8787878787879" y="139.3939393939394" type="line"/>
      <point x="479.27272727272725" y="560.6060606060606" type="line"/>
      <point x="667.8787878787879" y="981.8181818181819" type="line"/>
      <point x="580.969696969697" y="981.8181818181819" type="line"/>
      <point x="392.3636363636364" y="560.6060606060606" type="line"/>
    </contour>
  </outline>
</glyph>
<glyph name="logicalnot" format="2">
  <advance width="1240.0"/>
  <unicode hex="00AC"/>
  <outline>
    <contour>
      <point x="1026.8484848484848" y="191.87878787878788" type="line"/>
      <point x="1109.6363636363637" y="191.87878787878788" type="line"/>
      <point x="1109.6363636363637" y="799.1515151515151" type="line"/>
      <point x="140.0" y="799.1515151515151" type="line"/>
      <point x="140.0" y="720.8484848484849" type="line"/>
      <point x="1026.8484848484848" y="720.8484848484849" type="line"/>
    </contour>
  </outline>
</glyph>
<glyph name="softhyphen" format="2">
  <advance width="681.2121212121212"/>
  <unicode hex="00AD"/>
  <outline>
    <contour>
      <point x="140.0" y="521.0909090909091" type="line"/>
      <point x="541.2121212121212" y="521.0909090909091" type="line"/>
      <point x="541.2121212121212" y="600.1212121212121" type="line"/>
      <point x="140.0" y="600.1212121212121" type="line"/>
    </contour>
  </outline>
</glyph>
<glyph name="registered" format="2">
  <advance width="1480.0"/>
  <unicode hex="00AE"/>
  <outline>
    <contour>
      <point x="740.0" y="268.0" type="curve" smooth="yes"/>
      <point x="1102.0" y="268.0"/>
      <point x="1350.0" y="518.0"/>
      <point x="1350.0" y="882.0" type="curve" smooth="yes"/>
      <point x="1350.0" y="1246.0"/>
      <point x="1102.0" y="1498.0"/>
      <point x="740.0" y="1498.0" type="curve" smooth="yes"/>
      <point x="378.0" y="1498.0"/>
      <point x="130.0" y="1246.0"/>
      <point x="130.0" y="882.0" type="curve" smooth="yes"/>
      <point x="130.0" y="518.0"/>
      <point x="378.0" y="268.0"/>
    </contour>
    <contour>
      <point x="913.6363636363636" y="600.0" type="line"/>
      <point x="996.060606060606" y="600.0" type="line"/>
      <point x="821.5151515151515" y="857.5757575757576" type="line"/>
      <point x="755.2121212121212" y="831.5757575757576" type="line"/>
    </contour>
    <contour>
      <point x="740.0" y="339.45454545454544" type="curve" smooth="yes"/>
      <point x="415.6363636363636" y="339.45454545454544"/>
      <point x="204.06060606060606" y="553.2727272727273"/>
      <point x="204.06060606060606" y="882.0" type="curve" smooth="yes"/>
      <point x="204.06060606060606" y="1210.8484848484848"/>
      <point x="415.6363636363636" y="1426.5454545454545"/>
      <point x="740.0" y="1426.5454545454545" type="curve" smooth="yes"/>
      <point x="1064.3636363636363" y="1426.5454545454545"/>
      <point x="1275.939393939394" y="1210.8484848484848"/>
      <point x="1275.939393939394" y="882.0" type="curve" smooth="yes"/>
      <point x="1275.939393939394" y="553.2727272727273"/>
      <point x="1064.3636363636363" y="339.45454545454544"/>
    </contour>
    <contour>
      <point x="531.1515151515151" y="600.0" type="line"/>
      <point x="603.2121212121212" y="600.0" type="line"/>
      <point x="603.5757575757576" y="823.5757575757576" type="line"/>
      <point x="726.3636363636364" y="823.5757575757576" type="line" smooth="yes"/>
      <point x="889.4545454545455" y="823.5757575757576"/>
      <point x="971.5757575757576" y="889.4545454545455"/>
      <point x="971.5757575757576" y="1006.7878787878788" type="curve" smooth="yes"/>
      <point x="971.5757575757576" y="1124.121212121212"/>
      <point x="887.4545454545455" y="1192.0"/>
      <point x="726.3636363636364" y="1192.0" type="curve" smooth="yes"/>
      <point x="531.1515151515151" y="1192.0" type="line"/>
    </contour>
    <contour>
      <point x="603.5757575757576" y="889.8181818181819" type="line"/>
      <point x="603.5757575757576" y="1125.7575757575758" type="line"/>
      <point x="739.2121212121212" y="1125.7575757575758" type="line" smooth="yes"/>
      <point x="847.3333333333334" y="1125.7575757575758"/>
      <point x="899.7575757575758" y="1086.7272727272727"/>
      <point x="899.7575757575758" y="1006.7878787878788" type="curve" smooth="yes"/>
      <point x="899.7575757575758" y="926.8484848484849"/>
      <point x="849.3333333333334" y="889.8181818181819"/>
      <point x="739.2121212121212" y="889.8181818181819" type="curve" smooth="yes"/>
    </contour>
  </outline>
</glyph>
<glyph name="macron" format="2">
  <advance width="824.2424242424242"/>
  <unicode hex="00AF"/>
  <anchor x="412.1212121212121" y="1200.0" name="_top"/>
  <anchor x="412.1212121212121" y="1559.6363636363637" name="top"/>
  <outline>
    <contour>
      <point x="155.6969696969697" y="1388.060606060606" type="line"/>
      <point x="668.5454545454545" y="1388.060606060606" type="line"/>
      <point x="668.5454545454545" y="1457.4545454545455" type="line"/>
      <point x="155.6969696969697" y="1457.4545454545455" type="line"/>
    </contour>
  </outline>
</glyph>
<glyph name="degree" format="2">
  <advance width="911.7575757575758"/>
  <unicode hex="00B0"/>
  <outline>
    <contour>
      <point x="455.8787878787879" y="845.3333333333334" type="curve" smooth="yes"/>
      <point x="645.939393939394" y="845.3333333333334"/>
      <point x="781.7575757575758" y="982.7878787878788"/>
      <point x="781.7575757575758" y="1170.8484848484848" type="curve" smooth="yes"/>
      <point x="781.7575757575758" y="1358.909090909091"/>
      <point x="645.939393939394" y="1496.2424242424242"/>
      <point x="455.8787878787879" y="1496.2424242424242" type="curve" smooth="yes"/>
      <point x="265.8181818181818" y="1496.2424242424242"/>
      <point x="130.0" y="1358.909090909091"/>
      <point x="130.0" y="1170.8484848484848" type="curve" smooth="yes"/>
      <point x="130.0" y="982.7878787878788"/>
      <point x="265.8181818181818" y="845.3333333333334"/>
    </contour>
    <contour>
      <point x="455.8787878787879" y="919.1515151515151" type="curve" smooth="yes"/>
      <point x="311.8787878787879" y="919.1515151515151"/>
      <point x="208.54545454545453" y="1016.6060606060606"/>
      <point x="208.54545454545453" y="1170.8484848484848" type="curve" smooth="yes"/>
      <point x="208.54545454545453" y="1325.090909090909"/>
      <point x="312.0" y="1422.4242424242425"/>
      <point x="455.8787878787879" y="1422.4242424242425" type="curve" smooth="yes"/>
      <point x="599.7575757575758" y="1422.4242424242425"/>
      <point x="703.2121212121212" y="1325.090909090909"/>
      <point x="703.2121212121212" y="1170.8484848484848" type="curve" smooth="yes"/>
      <point x="703.2121212121212" y="1016.6060606060606"/>
      <point x="599.8787878787879" y="919.1515151515151"/>
    </contour>
  </outline>
</glyph>
<glyph name="plusminus" format="2">
  <advance width="1017.2121212121212"/>
  <unicode hex="00B1"/>
  <outline>
    <contour>
      <point x="467.2121212121212" y="320.24242424242425" type="line"/>
      <point x="550.0" y="320.24242424242425" type="line"/>
      <point x="550.0" y="666.7272727272727" type="line"/>
      <point x="877.2121212121212" y="666.7272727272727" type="line"/>
      <point x="877.2121212121212" y="745.030303030303" type="line"/>
      <point x="550.0" y="745.030303030303" type="line"/>
      <point x="550.0" y="1091.5151515151515" type="line"/>
      <point x="467.2121212121212" y="1091.5151515151515" type="line"/>
      <point x="467.2121212121212" y="745.030303030303" type="line"/>
      <point x="140.0" y="745.030303030303" type="line"/>
      <point x="140.0" y="666.7272727272727" type="line"/>
      <point x="467.2121212121212" y="666.7272727272727" type="line"/>
    </contour>
    <contour>
      <point x="140.0" y="0.12121212121212122" type="line"/>
      <point x="877.2121212121212" y="0.12121212121212122" type="line"/>
      <point x="877.2121212121212" y="78.42424242424242" type="line"/>
      <point x="140.0" y="78.42424242424242" type="line"/>
    </contour>
  </outline>
</glyph>
<glyph name="acute" format="2">
  <advance width="824.2424242424242"/>
  <unicode hex="00B4"/>
  <anchor x="412.1212121212121" y="1200.0" name="_top"/>
  <anchor x="412.1212121212121" y="1562.060606060606" name="top"/>
  <outline>
    <contour>
      <point x="375.6363636363636" y="1261.3333333333333" type="line"/>
      <point x="448.6060606060606" y="1261.3333333333333" type="line"/>
      <point x="618.4242424242424" y="1616.0" type="line"/>
      <point x="527.2727272727273" y="1616.0" type="line"/>
    </contour>
  </outline>
</glyph>
<glyph name="paragraph" format="2">
  <advance width="1063.939393939394"/>
  <unicode hex="00B6"/>
  <outline>
    <contour>
      <point x="615.5151515151515" y="0.0" type="line"/>
      <point x="695.6363636363636" y="0.0" type="line"/>
      <point x="695.6363636363636" y="1480.0" type="line"/>
      <point x="629.6363636363636" y="1488.2424242424242"/>
      <point x="556.3030303030303" y="1494.3636363636363"/>
      <point x="477.93939393939394" y="1494.3636363636363" type="curve" smooth="yes"/>
      <point x="219.45454545454547" y="1494.3636363636363"/>
      <point x="89.21212121212122" y="1339.3939393939395"/>
      <point x="89.21212121212122" y="1000.4848484848485" type="curve" smooth="yes"/>
      <point x="89.21212121212122" y="679.8181818181819"/>
      <point x="219.45454545454547" y="510.4848484848485"/>
      <point x="502.90909090909093" y="510.4848484848485" type="curve" smooth="yes"/>
      <point x="543.8181818181819" y="510.4848484848485"/>
      <point x="574.7272727272727" y="512.3636363636364"/>
      <point x="615.5151515151515" y="516.1212121212121" type="curve"/>
    </contour>
    <contour>
      <point x="824.4242424242424" y="0.0" type="line"/>
      <point x="904.5454545454545" y="0.0" type="line"/>
      <point x="904.5454545454545" y="1480.0" type="line"/>
      <point x="824.4242424242424" y="1480.0" type="line"/>
    </contour>
  </outline>
</glyph>
<glyph name="periodcentered" format="2">
  <advance width="371.1515151515151"/>
  <unicode hex="00B7"/>
  <anchor x="185.57575757575756" y="560.0" name="_periodcentered"/>
  <outline>
    <contour>
      <point x="185.57575757575756" y="485.2121212121212" type="curve" smooth="yes"/>
      <point x="228.12121212121212" y="485.2121212121212"/>
      <point x="258.72727272727275" y="513.5757575757576"/>
      <point x="258.72727272727275" y="558.1212121212121" type="curve" smooth="yes"/>
      <point x="258.72727272727275" y="602.6666666666666"/>
      <point x="228.36363636363637" y="632.9090909090909"/>
      <point x="185.57575757575756" y="632.9090909090909" type="curve" smooth="yes"/>
      <point x="142.78787878787878" y="632.9090909090909"/>
      <point x="112.42424242424242" y="602.9090909090909"/>
      <point x="112.42424242424242" y="558.1212121212121" type="curve" smooth="yes"/>
      <point x="112.42424242424242" y="513.3333333333334"/>
      <point x="143.03030303030303" y="485.2121212121212"/>
    </contour>
  </outline>
</glyph>
<glyph name="onesuperior" format="2">
  <advance width="688.4848484848485"/>
  <unicode hex="00B9"/>
  <outline>
    <contour>
      <point x="344.4848484848485" y="-116.0" type="line"/>
      <point x="422.90909090909093" y="-116.0" type="line"/>
      <point x="422.90909090909093" y="868.0" type="line"/>
      <point x="375.93939393939394" y="868.0" type="line"/>
      <point x="132.36363636363637" y="683.4545454545455" type="line"/>
      <point x="132.36363636363637" y="601.3333333333334" type="line"/>
      <point x="375.93939393939394" y="785.8787878787879" type="line"/>
      <point x="344.4848484848485" y="798.969696969697" type="line"/>
    </contour>
    <contour>
      <point x="140.9090909090909" y="-136.0" type="line"/>
      <point x="616.6060606060606" y="-136.0" type="line"/>
      <point x="616.6060606060606" y="-62.24242424242424" type="line"/>
      <point x="140.9090909090909" y="-62.24242424242424" type="line"/>
    </contour>
  </outline>
</glyph>
<glyph name="ordmasculine" format="2">
  <advance width="771.3939393939394"/>
  <unicode hex="00BA"/>
  <outline>
    <contour>
      <point x="385.75757575757575" y="595.7575757575758" type="curve" smooth="yes"/>
      <point x="578.969696969697" y="595.7575757575758"/>
      <point x="706.3030303030303" y="722.4242424242424"/>
      <point x="706.3030303030303" y="1045.878787878788" type="curve" smooth="yes"/>
      <point x="706.3030303030303" y="1369.3333333333333"/>
      <point x="578.969696969697" y="1492.6060606060605"/>
      <point x="385.75757575757575" y="1492.6060606060605" type="curve" smooth="yes"/>
      <point x="192.54545454545453" y="1492.6060606060605"/>
      <point x="65.0909090909091" y="1369.939393939394"/>
      <point x="65.0909090909091" y="1045.878787878788" type="curve" smooth="yes"/>
      <point x="65.0909090909091" y="721.8181818181819"/>
      <point x="192.54545454545453" y="595.7575757575758"/>
    </contour>
    <contour>
      <point x="385.75757575757575" y="669.3939393939394" type="curve" smooth="yes"/>
      <point x="242.66666666666666" y="669.3939393939394"/>
      <point x="150.66666666666666" y="753.2727272727273"/>
      <point x="150.66666666666666" y="1045.878787878788" type="curve" smooth="yes"/>
      <point x="150.66666666666666" y="1338.6060606060605"/>
      <point x="242.66666666666666" y="1418.969696969697"/>
      <point x="385.75757575757575" y="1418.969696969697" type="curve" smooth="yes"/>
      <point x="528.8484848484849" y="1418.969696969697"/>
      <point x="620.7272727272727" y="1338.6060606060605"/>
      <point x="620.7272727272727" y="1045.878787878788" type="curve" smooth="yes"/>
      <point x="620.7272727272727" y="753.2727272727273"/>
      <point x="528.8484848484849" y="669.3939393939394"/>
    </contour>
  </outline>
</glyph>
<glyph name="guillemetright" format="2">
  <advance width="734.8484848484849"/>
  <unicode hex="00BB"/>
  <outline>
    <contour>
      <point x="66.96969696969697" y="139.3939393939394" type="line"/>
      <point x="153.87878787878788" y="139.3939393939394" type="line"/>
      <point x="342.4848484848485" y="560.6060606060606" type="line"/>
      <point x="153.87878787878788" y="981.8181818181819" type="line"/>
      <point x="66.96969696969697" y="981.8181818181819" type="line"/>
      <point x="255.57575757575756" y="560.6060606060606" type="line"/>
    </contour>
    <contour>
      <point x="352.3636363636364" y="139.3939393939394" type="line"/>
      <point x="439.27272727272725" y="139.3939393939394" type="line"/>
      <point x="627.8787878787879" y="560.6060606060606" type="line"/>
      <point x="439.27272727272725" y="981.8181818181819" type="line"/>
      <point x="352.3636363636364" y="981.8181818181819" type="line"/>
      <point x="540.969696969697" y="560.6060606060606" type="line"/>
    </contour>
  </outline>
</glyph>
<glyph name="onequarter" format="2">
  <advance width="1570.7878787878788"/>
  <unicode hex="00BC"/>
  <outline>
    <contour>
      <point x="344.4848484848485" y="636.0" type="line"/>
      <point x="422.90909090909093" y="636.0" type="line"/>
      <point x="422.90909090909093" y="1620.0" type="line"/>
      <point x="375.93939393939394" y="1620.0" type="line"/>
      <point x="132.36363636363637" y="1435.4545454545455" type="line"/>
      <point x="132.36363636363637" y="1353.3333333333333" type="line"/>
      <point x="375.93939393939394" y="1537.878787878788" type="line"/>
      <point x="344.4848484848485" y="1550.969696969697" type="line"/>
    </contour>
    <contour>
      <point x="140.9090909090909" y="616.0" type="line"/>
      <point x="616.6060606060606" y="616.0" type="line"/>
      <point x="616.6060606060606" y="689.7575757575758" type="line"/>
      <point x="140.9090909090909" y="689.7575757575758" type="line"/>
    </contour>
    <contour>
      <point x="385.45454545454544" y="-136.0" type="line"/>
      <point x="466.6060606060606" y="-136.0" type="line"/>
      <point x="1185.3333333333333" y="1616.0" type="line"/>
      <point x="1104.1818181818182" y="1616.0" type="line"/>
    </contour>
    <contour>
      <point x="915.6969696969697" y="111.87878787878788" type="line"/>
      <point x="1541.2727272727273" y="111.87878787878788" type="line"/>
      <point x="1541.2727272727273" y="181.8181818181818" type="line"/>
      <point x="981.939393939394" y="181.8181818181818" type="line"/>
      <point x="997.1515151515151" y="159.5151515151515" type="line"/>
      <point x="1336.3030303030303" y="864.0" type="line"/>
      <point x="1255.3333333333333" y="864.0" type="line"/>
      <point x="915.6969696969697" y="159.5151515151515" type="line"/>
    </contour>
    <contour>
      <point x="1337.090909090909" y="-136.0" type="line"/>
      <point x="1411.090909090909" y="-136.0" type="line"/>
      <point x="1411.090909090909" y="526.0" type="line"/>
      <point x="1352.4848484848485" y="526.0" type="line"/>
      <point x="1337.090909090909" y="181.8181818181818" type="line"/>
    </contour>
  </outline>
</glyph>
<glyph name="onehalf" format="2">
  <advance width="1570.7878787878788"/>
  <unicode hex="00BD"/>
  <outline>
    <contour>
      <point x="344.4848484848485" y="636.0" type="line"/>
      <point x="422.90909090909093" y="636.0" type="line"/>
      <point x="422.90909090909093" y="1620.0" type="line"/>
      <point x="375.93939393939394" y="1620.0" type="line"/>
      <point x="132.36363636363637" y="1435.4545454545455" type="line"/>
      <point x="132.36363636363637" y="1353.3333333333333" type="line"/>
      <point x="375.93939393939394" y="1537.878787878788" type="line"/>
      <point x="344.4848484848485" y="1550.969696969697" type="line"/>
    </contour>
    <contour>
      <point x="140.9090909090909" y="616.0" type="line"/>
      <point x="616.6060606060606" y="616.0" type="line"/>
      <point x="616.6060606060606" y="689.7575757575758" type="line"/>
      <point x="140.9090909090909" y="689.7575757575758" type="line"/>
    </contour>
    <contour>
      <point x="385.45454545454544" y="-136.0" type="line"/>
      <point x="466.6060606060606" y="-136.0" type="line"/>
      <point x="1185.3333333333333" y="1616.0" type="line"/>
      <point x="1104.1818181818182" y="1616.0" type="line"/>
    </contour>
    <contour>
      <point x="973.8181818181819" y="-136.0" type="line"/>
      <point x="1461.2121212121212" y="-136.0" type="line"/>
      <point x="1461.2121212121212" y="-62.24242424242424" type="line"/>
      <point x="1048.6666666666667" y="-62.24242424242424" type="line"/>
      <point x="1062.4242424242425" y="-85.27272727272728" type="line"/>
      <point x="1298.969696969697" y="280.1818181818182" type="line" smooth="yes"/>
      <point x="1394.6060606060605" y="428.24242424242425"/>
      <point x="1432.3636363636363" y="522.4848484848485"/>
      <point x="1434.2424242424242" y="622.2424242424242" type="curve" smooth="yes"/>
      <point x="1436.121212121212" y="803.1515151515151"/>
      <point x="1327.3333333333333" y="876.1212121212121"/>
      <point x="1156.4848484848485" y="876.1212121212121" type="curve" smooth="yes"/>
      <point x="1084.0" y="876.1212121212121"/>
      <point x="1012.3030303030303" y="864.0"/>
      <point x="961.6969696969697" y="840.2424242424242" type="curve"/>
      <point x="961.6969696969697" y="765.4545454545455" type="line"/>
      <point x="1019.4545454545455" y="791.0909090909091"/>
      <point x="1078.4242424242425" y="803.0909090909091"/>
      <point x="1149.5757575757575" y="803.0909090909091" type="curve" smooth="yes"/>
      <point x="1280.4848484848485" y="803.0909090909091"/>
      <point x="1354.060606060606" y="753.939393939394"/>
      <point x="1354.060606060606" y="618.7878787878788" type="curve" smooth="yes"/>
      <point x="1354.060606060606" y="530.969696969697"/>
      <point x="1316.5454545454545" y="446.1818181818182"/>
      <point x="1233.2727272727273" y="316.3636363636364" type="curve" smooth="yes"/>
      <point x="973.8181818181819" y="-88.48484848484848" type="line"/>
    </contour>
  </outline>
</glyph>
<glyph name="threequarters" format="2">
  <advance width="1570.7878787878788"/>
  <unicode hex="00BE"/>
  <outline>
    <contour>
      <point x="287.45454545454544" y="603.8787878787879" type="curve" smooth="yes"/>
      <point x="482.42424242424244" y="603.8787878787879"/>
      <point x="604.7272727272727" y="700.4848484848485"/>
      <point x="604.7272727272727" y="877.3333333333334" type="curve" smooth="yes"/>
      <point x="604.7272727272727" y="1024.121212121212"/>
      <point x="518.1818181818181" y="1119.5151515151515"/>
      <point x="354.0" y="1143.3939393939395" type="curve"/>
      <point x="354.0" y="1129.7575757575758" type="line"/>
      <point x="493.93939393939394" y="1159.3939393939395"/>
      <point x="572.969696969697" y="1252.909090909091"/>
      <point x="572.969696969697" y="1380.5454545454545" type="curve" smooth="yes"/>
      <point x="572.969696969697" y="1541.3939393939395"/>
      <point x="472.90909090909093" y="1628.121212121212"/>
      <point x="286.6666666666667" y="1628.121212121212" type="curve" smooth="yes"/>
      <point x="217.6969696969697" y="1628.121212121212"/>
      <point x="140.24242424242425" y="1616.0"/>
      <point x="91.27272727272727" y="1592.2424242424242" type="curve"/>
      <point x="91.27272727272727" y="1518.3030303030303" type="line"/>
      <point x="151.03030303030303" y="1544.060606060606"/>
      <point x="212.24242424242425" y="1556.060606060606"/>
      <point x="282.0" y="1556.060606060606" type="curve" smooth="yes"/>
      <point x="423.45454545454544" y="1556.060606060606"/>
      <point x="495.3939393939394" y="1498.121212121212"/>
      <point x="495.3939393939394" y="1376.4848484848485" type="curve" smooth="yes"/>
      <point x="495.3939393939394" y="1249.4545454545455"/>
      <point x="401.3939393939394" y="1166.8484848484848"/>
      <point x="223.33333333333334" y="1166.8484848484848" type="curve" smooth="yes"/>
      <point x="182.06060606060606" y="1166.8484848484848" type="line"/>
      <point x="182.06060606060606" y="1092.5454545454545" type="line"/>
      <point x="264.90909090909093" y="1092.5454545454545" type="line" smooth="yes"/>
      <point x="445.8181818181818" y="1092.5454545454545"/>
      <point x="527.1515151515151" y="1010.1818181818181"/>
      <point x="527.1515151515151" y="880.5454545454545" type="curve" smooth="yes"/>
      <point x="527.1515151515151" y="743.3939393939394"/>
      <point x="434.54545454545456" y="675.939393939394"/>
      <point x="284.8484848484849" y="675.939393939394" type="curve" smooth="yes"/>
      <point x="216.96969696969697" y="675.939393939394"/>
      <point x="142.0" y="687.8181818181819"/>
      <point x="73.87878787878788" y="713.3333333333334" type="curve"/>
      <point x="73.87878787878788" y="639.3939393939394" type="line"/>
      <point x="138.6060606060606" y="615.7575757575758"/>
      <point x="209.45454545454547" y="603.8787878787879"/>
    </contour>
    <contour>
      <point x="385.45454545454544" y="-136.0" type="line"/>
      <point x="466.6060606060606" y="-136.0" type="line"/>
      <point x="1185.3333333333333" y="1616.0" type="line"/>
      <point x="1104.1818181818182" y="1616.0" type="line"/>
    </contour>
    <contour>
      <point x="915.6969696969697" y="111.87878787878788" type="line"/>
      <point x="1541.2727272727273" y="111.87878787878788" type="line"/>
      <point x="1541.2727272727273" y="181.8181818181818" type="line"/>
      <point x="981.939393939394" y="181.8181818181818" type="line"/>
      <point x="997.1515151515151" y="159.5151515151515" type="line"/>
      <point x="1336.3030303030303" y="864.0" type="line"/>
      <point x="1255.3333333333333" y="864.0" type="line"/>
      <point x="915.6969696969697" y="159.5151515151515" type="line"/>
    </contour>
    <contour>
      <point x="1337.090909090909" y="-136.0" type="line"/>
      <point x="1411.090909090909" y="-136.0" type="line"/>
      <point x="1411.090909090909" y="526.0" type="line"/>
      <point x="1352.4848484848485" y="526.0" type="line"/>
      <point x="1337.090909090909" y="181.8181818181818" type="line"/>
    </contour>
  </outline>
</glyph>
<glyph name="questiondown" format="2">
  <advance width="769.2121212121212"/>
  <unicode hex="00BF"/>
  <outline>
    <contour>
      <point x="465.1515151515151" y="767.1515151515151" type="line"/>
      <point x="405.75757575757575" y="767.1515151515151" type="line"/>
      <point x="394.54545454545456" y="387.3333333333333" type="line"/>
      <point x="143.33333333333334" y="270.969696969697"/>
      <point x="58.18181818181818" y="146.0"/>
      <point x="58.18181818181818" y="-47.09090909090909" type="curve" smooth="yes"/>
      <point x="58.18181818181818" y="-271.1515151515151"/>
      <point x="196.84848484848484" y="-400.0"/>
      <point x="456.54545454545456" y="-400.0" type="curve" smooth="yes"/>
      <point x="553.7575757575758" y="-400.0"/>
      <point x="661.8181818181819" y="-380.0"/>
      <point x="731.030303030303" y="-346.24242424242425" type="curve"/>
      <point x="731.030303030303" y="-263.93939393939394" type="line"/>
      <point x="645.2727272727273" y="-301.45454545454544"/>
      <point x="559.6969696969697" y="-319.45454545454544"/>
      <point x="459.93939393939394" y="-319.45454545454544" type="curve" smooth="yes"/>
      <point x="251.6969696969697" y="-319.45454545454544"/>
      <point x="146.6060606060606" y="-226.6060606060606"/>
      <point x="146.6060606060606" y="-46.18181818181818" type="curve" smooth="yes"/>
      <point x="146.6060606060606" y="124.60606060606061"/>
      <point x="231.03030303030303" y="238.72727272727272"/>
      <point x="480.42424242424244" y="337.2121212121212" type="curve"/>
    </contour>
    <contour>
      <point x="435.45454545454544" y="1091.8181818181818" type="curve" smooth="yes"/>
      <point x="391.030303030303" y="1091.8181818181818"/>
      <point x="362.3030303030303" y="1061.5757575757575"/>
      <point x="362.3030303030303" y="1019.2727272727273" type="curve" smooth="yes"/>
      <point x="362.3030303030303" y="975.0909090909091"/>
      <point x="392.6666666666667" y="944.8484848484849"/>
      <point x="435.45454545454544" y="944.8484848484849" type="curve" smooth="yes"/>
      <point x="478.24242424242425" y="944.8484848484849"/>
      <point x="508.6060606060606" y="974.8484848484849"/>
      <point x="508.6060606060606" y="1019.2727272727273" type="curve" smooth="yes"/>
      <point x="508.6060606060606" y="1061.8181818181818"/>
      <point x="478.0" y="1091.8181818181818"/>
    </contour>
  </outline>
</glyph>
<glyph name="Aacute" format="2">
  <advance width="1140.3030303030303"/>
  <unicode hex="00C1"/>
  <anchor x="571.0909090909091" y="1520.0" name="_top"/>
  <anchor x="571.0909090909091" y="0.0" name="bottom"/>
  <anchor x="1116.3636363636363" y="0.0" name="ogonek"/>
  <anchor x="571.0909090909091" y="1520.0" name="top"/>
  <outline>
    <contour>
      <point x="23.939393939393938" y="0.0" type="line"/>
      <point x="114.60606060606061" y="0.0" type="line"/>
      <point x="581.3333333333334" y="1431.878787878788" type="line"/>
      <point x="556.6060606060606" y="1431.878787878788" type="line"/>
      <point x="1023.5757575757576" y="0.0" type="line"/>
      <point x="1116.3636363636363" y="0.0" type="line"/>
      <point x="628.3636363636364" y="1480.0" type="line"/>
      <point x="511.93939393939394" y="1480.0" type="line"/>
    </contour>
    <contour>
      <point x="246.0" y="516.8484848484849" type="line"/>
      <point x="894.1818181818181" y="516.8484848484849" type="line"/>
      <point x="871.030303030303" y="598.8484848484849" type="line"/>
      <point x="269.1515151515151" y="598.8484848484849" type="line"/>
    </contour>
    <contour>
      <point x="534.3636363636364" y="1614.1818181818182" type="line"/>
      <point x="607.8181818181819" y="1614.1818181818182" type="line"/>
      <point x="756.3030303030303" y="1888.8484848484848" type="line"/>
      <point x="664.4242424242424" y="1888.8484848484848" type="line"/>
    </contour>
  </outline>
</glyph>
<glyph name="Atilde" format="2">
  <advance width="1140.3030303030303"/>
  <unicode hex="00C3"/>
  <anchor x="571.0909090909091" y="1520.0" name="_top"/>
  <anchor x="571.0909090909091" y="0.0" name="bottom"/>
  <anchor x="1116.3636363636363" y="0.0" name="ogonek"/>
  <anchor x="571.0909090909091" y="1520.0" name="top"/>
  <outline>
    <contour>
      <point x="23.939393939393938" y="0.0" type="line"/>
      <point x="114.60606060606061" y="0.0" type="line"/>
      <point x="581.3333333333334" y="1431.878787878788" type="line"/>
      <point x="556.6060606060606" y="1431.878787878788" type="line"/>
      <point x="1023.5757575757576" y="0.0" type="line"/>
      <point x="1116.3636363636363" y="0.0" type="line"/>
      <point x="628.3636363636364" y="1480.0" type="line"/>
      <point x="511.93939393939394" y="1480.0" type="line"/>
    </contour>
    <contour>
      <point x="246.0" y="516.8484848484849" type="line"/>
      <point x="894.1818181818181" y="516.8484848484849" type="line"/>
      <point x="871.030303030303" y="598.8484848484849" type="line"/>
      <point x="269.1515151515151" y="598.8484848484849" type="line"/>
    </contour>
    <contour>
      <point x="701.6363636363636" y="1689.3333333333333" type="curve" smooth="yes"/>
      <point x="761.6969696969697" y="1689.3333333333333"/>
      <point x="808.5454545454545" y="1713.2121212121212"/>
      <point x="840.0" y="1752.1818181818182" type="curve"/>
      <point x="840.0" y="1828.3636363636363" type="line"/>
      <point x="800.5454545454545" y="1780.2424242424242"/>
      <point x="759.5757575757576" y="1756.121212121212"/>
      <point x="701.8787878787879" y="1756.121212121212" type="curve" smooth="yes"/>
      <point x="617.939393939394" y="1756.121212121212"/>
      <point x="542.8484848484849" y="1834.3636363636363"/>
      <point x="440.54545454545456" y="1834.3636363636363" type="curve" smooth="yes"/>
      <point x="380.4848484848485" y="1834.3636363636363"/>
      <point x="333.6363636363636" y="1810.3636363636363"/>
      <point x="302.1818181818182" y="1771.3939393939395" type="curve"/>
      <point x="302.1818181818182" y="1695.2121212121212" type="line"/>
      <point x="341.6363636363636" y="1743.3333333333333"/>
      <point x="382.6060606060606" y="1767.4545454545455"/>
      <point x="440.3030303030303" y="1767.4545454545455" type="curve" smooth="yes"/>
      <point x="524.2424242424242" y="1767.4545454545455"/>
      <point x="599.3333333333334" y="1689.3333333333333"/>
    </contour>
  </outline>
</glyph>
<glyph name="Adieresis" format="2">
  <advance width="1140.3030303030303"/>
  <unicode hex="00C4"/>
  <anchor x="571.0909090909091" y="1520.0" name="_top"/>
  <anchor x="571.0909090909091" y="0.0" name="bottom"/>
  <anchor x="1116.3636363636363" y="0.0" name="ogonek"/>
  <anchor x="571.0909090909091" y="1520.0" name="top"/>
  <outline>
    <contour>
      <point x="23.939393939393938" y="0.0" type="line"/>
      <point x="114.60606060606061" y="0.0" type="line"/>
      <point x="581.3333333333334" y="1431.878787878788" type="line"/>
      <point x="556.6060606060606" y="1431.878787878788" type="line"/>
      <point x="1023.5757575757576" y="0.0" type="line"/>
      <point x="1116.3636363636363" y="0.0" type="line"/>
      <point x="628.3636363636364" y="1480.0" type="line"/>
      <point x="511.93939393939394" y="1480.0" type="line"/>
    </contour>
    <contour>
      <point x="246.0" y="516.8484848484849" type="line"/>
      <point x="894.1818181818181" y="516.8484848484849" type="line"/>
      <point x="871.030303030303" y="598.8484848484849" type="line"/>
      <point x="269.1515151515151" y="598.8484848484849" type="line"/>
    </contour>
    <contour>
      <point x="755.3333333333334" y="1682.7272727272727" type="curve" smooth="yes"/>
      <point x="797.1515151515151" y="1682.7272727272727"/>
      <point x="826.1818181818181" y="1709.1515151515152"/>
      <point x="826.1818181818181" y="1751.878787878788" type="curve" smooth="yes"/>
      <point x="826.1818181818181" y="1794.6060606060605"/>
      <point x="797.1515151515151" y="1822.909090909091"/>
      <point x="755.3333333333334" y="1822.909090909091" type="curve" smooth="yes"/>
      <point x="713.5151515151515" y="1822.909090909091"/>
      <point x="684.4848484848485" y="1794.6060606060605"/>
      <point x="684.4848484848485" y="1751.878787878788" type="curve" smooth="yes"/>
      <point x="684.4848484848485" y="1709.1515151515152"/>
      <point x="713.5151515151515" y="1682.7272727272727"/>
    </contour>
    <contour>
      <point x="386.8484848484849" y="1682.7272727272727" type="curve" smooth="yes"/>
      <point x="428.6666666666667" y="1682.7272727272727"/>
      <point x="457.6969696969697" y="1709.1515151515152"/>
      <point x="457.6969696969697" y="1751.878787878788" type="curve" smooth="yes"/>
      <point x="457.6969696969697" y="1794.6060606060605"/>
      <point x="428.6666666666667" y="1822.909090909091"/>
      <point x="386.8484848484849" y="1822.909090909091" type="curve" smooth="yes"/>
      <point x="345.030303030303" y="1822.909090909091"/>
      <point x="316.0" y="1794.6060606060605"/>
      <point x="316.0" y="1751.878787878788" type="curve" smooth="yes"/>
      <point x="316.0" y="1709.1515151515152"/>
      <point x="345.030303030303" y="1682.7272727272727"/>
    </contour>
  </outline>
</glyph>
<glyph name="Aring" format="2">
  <advance width="1140.3030303030303"/>
  <unicode hex="00C5"/>
  <anchor x="574.8484848484849" y="1350.909090909091" name="_top"/>
  <anchor x="571.0909090909091" y="0.0" name="bottom"/>
  <anchor x="1116.3636363636363" y="0.0" name="ogonek"/>
  <anchor x="571.0909090909091" y="1520.0" name="top"/>
  <outline>
    <contour>
      <point x="23.939393939393938" y="0.0" type="line"/>
      <point x="114.60606060606061" y="0.0" type="line"/>
      <point x="581.3333333333334" y="1431.878787878788" type="line"/>
      <point x="556.6060606060606" y="1431.878787878788" type="line"/>
      <point x="1023.5757575757576" y="0.0" type="line"/>
      <point x="1116.3636363636363" y="0.0" type="line"/>
      <point x="628.3636363636364" y="1480.0" type="line"/>
      <point x="511.93939393939394" y="1480.0" type="line"/>
    </contour>
    <contour>
      <point x="246.0" y="516.8484848484849" type="line"/>
      <point x="894.1818181818181" y="516.8484848484849" type="line"/>
      <point x="871.030303030303" y="598.8484848484849" type="line"/>
      <point x="269.1515151515151" y="598.8484848484849" type="line"/>
    </contour>
    <contour>
      <point x="574.8484848484849" y="1438.4848484848485" type="curve" smooth="yes"/>
      <point x="682.4242424242424" y="1438.4848484848485"/>
      <point x="761.5151515151515" y="1517.3333333333333"/>
      <point x="761.5151515151515" y="1624.6666666666667" type="curve" smooth="yes"/>
      <point x="761.5151515151515" y="1732.0"/>
      <point x="682.4242424242424" y="1810.8484848484848"/>
      <point x="574.8484848484849" y="1810.8484848484848" type="curve" smooth="yes"/>
      <point x="467.27272727272725" y="1810.8484848484848"/>
      <point x="388.1818181818182" y="1732.0"/>
      <point x="388.1818181818182" y="1624.6666666666667" type="curve" smooth="yes"/>
      <point x="388.1818181818182" y="1517.3333333333333"/>
      <point x="467.27272727272725" y="1438.4848484848485"/>
    </contour>
    <contour>
      <point x="574.8484848484849" y="1495.6969696969697" type="curve" smooth="yes"/>
      <point x="500.6666666666667" y="1495.6969696969697"/>
      <point x="448.0" y="1544.6060606060605"/>
      <point x="448.0" y="1624.6666666666667" type="curve" smooth="yes"/>
      <point x="448.0" y="1704.7272727272727"/>
      <point x="500.6666666666667" y="1753.6363636363637"/>
      <point x="574.8484848484849" y="1753.6363636363637" type="curve" smooth="yes"/>
      <point x="649.030303030303" y="1753.6363636363637"/>
      <point x="701.6969696969697" y="1704.7272727272727"/>
      <point x="701.6969696969697" y="1624.6666666666667" type="curve" smooth="yes"/>
      <point x="701.6969696969697" y="1544.6060606060605"/>
      <point x="649.030303030303" y="1495.6969696969697"/>
    </contour>
  </outline>
</glyph>
<glyph name="AE" format="2">
  <advance width="1563.939393939394"/>
  <unicode hex="00C6"/>
  <anchor x="858.1818181818181" y="0.0" name="bottom"/>
  <anchor x="799.939393939394" y="1520.0" name="top"/>
  <outline>
    <contour>
      <point x="23.939393939393938" y="0.0" type="line"/>
      <point x="114.96969696969697" y="0.0" type="line"/>
      <point x="583.5151515151515" y="1397.7575757575758" type="line"/>
      <point x="808.3030303030303" y="1397.7575757575758" type="line"/>
      <point x="808.3030303030303" y="1480.0" type="line"/>
      <point x="523.2121212121212" y="1480.0" type="line"/>
    </contour>
    <contour>
      <point x="247.87878787878788" y="516.7272727272727" type="line"/>
      <point x="832.1212121212121" y="516.7272727272727" type="line"/>
      <point x="832.1212121212121" y="598.969696969697" type="line"/>
      <point x="271.030303030303" y="598.969696969697" type="line"/>
    </contour>
    <contour>
      <point x="822.3636363636364" y="0.0" type="line"/>
      <point x="1528.4848484848485" y="0.0" type="line"/>
      <point x="1528.4848484848485" y="82.24242424242425" type="line"/>
      <point x="905.8181818181819" y="82.24242424242425" type="line"/>
      <point x="845.2121212121212" y="1397.7575757575758" type="line"/>
      <point x="1518.4848484848485" y="1397.7575757575758" type="line"/>
      <point x="1518.4848484848485" y="1480.0" type="line"/>
      <point x="755.6969696969697" y="1480.0" type="line"/>
    </contour>
    <contour>
      <point x="850.6666666666666" y="719.5151515151515" type="line"/>
      <point x="1427.6363636363637" y="719.5151515151515" type="line"/>
      <point x="1427.6363636363637" y="801.7575757575758" type="line"/>
      <point x="850.6666666666666" y="801.7575757575758" type="line"/>
    </contour>
  </outline>
</glyph>
<glyph name="Eacute" format="2">
  <advance width="957.030303030303"/>
  <unicode hex="00C9"/>
  <anchor x="558.4242424242424" y="1520.0" name="_top"/>
  <anchor x="558.4242424242424" y="0.0" name="bottom"/>
  <anchor x="841.5757575757576" y="0.0" name="ogonek"/>
  <anchor x="558.4242424242424" y="1520.0" name="top"/>
  <anchor x="36.0" y="1480.0" name="topleft"/>
  <outline>
    <contour>
      <point x="159.3939393939394" y="0.0" type="line"/>
      <point x="921.5757575757576" y="0.0" type="line"/>
      <point x="921.5757575757576" y="82.24242424242425" type="line"/>
      <point x="246.66666666666666" y="82.24242424242425" type="line"/>
      <point x="246.66666666666666" y="1397.7575757575758" type="line"/>
      <point x="911.5757575757576" y="1397.7575757575758" type="line"/>
      <point x="911.5757575757576" y="1480.0" type="line"/>
      <point x="159.3939393939394" y="1480.0" type="line"/>
    </contour>
    <contour>
      <point x="232.6060606060606" y="719.5151515151515" type="line"/>
      <point x="820.7272727272727" y="719.5151515151515" type="line"/>
      <point x="820.7272727272727" y="801.7575757575758" type="line"/>
      <point x="232.6060606060606" y="801.7575757575758" type="line"/>
    </contour>
    <contour>
      <point x="521.6969696969697" y="1614.1818181818182" type="line"/>
      <point x="595.1515151515151" y="1614.1818181818182" type="line"/>
      <point x="743.6363636363636" y="1888.8484848484848" type="line"/>
      <point x="651.7575757575758" y="1888.8484848484848" type="line"/>
    </contour>
  </outline>
</glyph>
<glyph name="Igrave" format="2">
  <advance width="406.42424242424244"/>
  <unicode hex="00CC"/>
  <anchor x="203.21212121212122" y="1520.0" name="_top"/>
  <anchor x="203.21212121212122" y="0.0" name="bottom"/>
  <anchor x="247.03030303030303" y="0.0" name="ogonek"/>
  <anchor x="203.21212121212122" y="1520.0" name="top"/>
  <outline>
    <contour>
      <point x="159.3939393939394" y="0.0" type="line"/>
      <point x="247.03030303030303" y="0.0" type="line"/>
      <point x="247.03030303030303" y="1480.0" type="line"/>
      <point x="159.3939393939394" y="1480.0" type="line"/>
    </contour>
    <contour>
      <point x="166.4848484848485" y="1614.1818181818182" type="line"/>
      <point x="239.93939393939394" y="1614.1818181818182" type="line"/>
      <point x="109.87878787878788" y="1888.8484848484848" type="line"/>
      <point x="18.0" y="1888.8484848484848" type="line"/>
    </contour>
  </outline>
</glyph>
<glyph name="Iacute" format="2">
  <advance width="406.42424242424244"/>
  <unicode hex="00CD"/>
  <anchor x="203.21212121212122" y="1520.0" name="_top"/>
  <anchor x="203.21212121212122" y="0.0" name="bottom"/>
  <anchor x="247.03030303030303" y="0.0" name="ogonek"/>
  <anchor x="203.21212121212122" y="1520.0" name="top"/>
  <outline>
    <contour>
      <point x="159.3939393939394" y="0.0" type="line"/>
      <point x="247.03030303030303" y="0.0" type="line"/>
      <point x="247.03030303030303" y="1480.0" type="line"/>
      <point x="159.3939393939394" y="1480.0" type="line"/>
    </contour>
    <contour>
      <point x="166.4848484848485" y="1614.1818181818182" type="line"/>
      <point x="239.93939393939394" y="1614.1818181818182" type="line"/>
      <point x="388.42424242424244" y="1888.8484848484848" type="line"/>
      <point x="296.54545454545456" y="1888.8484848484848" type="line"/>
    </contour>
  </outline>
</glyph>
<glyph name="Icircumflex" format="2">
  <advance width="406.42424242424244"/>
  <unicode hex="00CE"/>
  <anchor x="203.21212121212122" y="1520.0" name="_top"/>
  <anchor x="203.21212121212122" y="0.0" name="bottom"/>
  <anchor x="247.03030303030303" y="0.0" name="ogonek"/>
  <anchor x="203.21212121212122" y="1520.0" name="top"/>
  <outline>
    <contour>
      <point x="159.3939393939394" y="0.0" type="line"/>
      <point x="247.03030303030303" y="0.0" type="line"/>
      <point x="247.03030303030303" y="1480.0" type="line"/>
      <point x="159.3939393939394" y="1480.0" type="line"/>
    </contour>
    <contour>
      <point x="-38.06060606060606" y="1614.1818181818182" type="line"/>
      <point x="43.21212121212121" y="1614.1818181818182" type="line"/>
      <point x="212.06060606060606" y="1854.7272727272727" type="line"/>
      <point x="194.36363636363637" y="1854.7272727272727" type="line"/>
      <point x="363.2121212121212" y="1614.1818181818182" type="line"/>
      <point x="444.4848484848485" y="1614.1818181818182" type="line"/>
      <point x="248.72727272727272" y="1888.8484848484848" type="line"/>
      <point x="157.6969696969697" y="1888.8484848484848" type="line"/>
    </contour>
  </outline>
</glyph>
<glyph name="Idieresis" format="2">
  <advance width="406.42424242424244"/>
  <unicode hex="00CF"/>
  <anchor x="203.21212121212122" y="1520.0" name="_top"/>
  <anchor x="203.21212121212122" y="0.0" name="bottom"/>
  <anchor x="247.03030303030303" y="0.0" name="ogonek"/>
  <anchor x="203.21212121212122" y="1520.0" name="top"/>
  <outline>
    <contour>
      <point x="159.3939393939394" y="0.0" type="line"/>
      <point x="247.03030303030303" y="0.0" type="line"/>
      <point x="247.03030303030303" y="1480.0" type="line"/>
      <point x="159.3939393939394" y="1480.0" type="line"/>
    </contour>
    <contour>
      <point x="387.45454545454544" y="1682.7272727272727" type="curve" smooth="yes"/>
      <point x="429.27272727272725" y="1682.7272727272727"/>
      <point x="458.3030303030303" y="1709.1515151515152"/>
      <point x="458.3030303030303" y="1751.878787878788" type="curve" smooth="yes"/>
      <point x="458.3030303030303" y="1794.6060606060605"/>
      <point x="429.27272727272725" y="1822.909090909091"/>
      <point x="387.45454545454544" y="1822.909090909091" type="curve" smooth="yes"/>
      <point x="345.6363636363636" y="1822.909090909091"/>
      <point x="316.6060606060606" y="1794.6060606060605"/>
      <point x="316.6060606060606" y="1751.878787878788" type="curve" smooth="yes"/>
      <point x="316.6060606060606" y="1709.1515151515152"/>
      <point x="345.6363636363636" y="1682.7272727272727"/>
    </contour>
    <contour>
      <point x="18.96969696969697" y="1682.7272727272727" type="curve" smooth="yes"/>
      <point x="60.78787878787879" y="1682.7272727272727"/>
      <point x="89.81818181818181" y="1709.1515151515152"/>
      <point x="89.81818181818181" y="1751.878787878788" type="curve" smooth="yes"/>
      <point x="89.81818181818181" y="1794.6060606060605"/>
      <point x="60.78787878787879" y="1822.909090909091"/>
      <point x="18.96969696969697" y="1822.909090909091" type="curve" smooth="yes"/>
      <point x="-22.848484848484848" y="1822.909090909091"/>
      <point x="-51.878787878787875" y="1794.6060606060605"/>
      <point x="-51.878787878787875" y="1751.878787878788" type="curve" smooth="yes"/>
      <point x="-51.878787878787875" y="1709.1515151515152"/>
      <point x="-22.848484848484848" y="1682.7272727272727"/>
    </contour>
  </outline>
</glyph>
<glyph name="Ntilde" format="2">
  <advance width="1256.0"/>
  <unicode hex="00D1"/>
  <anchor x="628.0" y="1520.0" name="_top"/>
  <anchor x="628.0" y="0.0" name="bottom"/>
  <anchor x="628.0" y="1520.0" name="top"/>
  <outline>
    <contour>
      <point x="159.3939393939394" y="0.0" type="line"/>
      <point x="243.57575757575756" y="0.0" type="line"/>
      <point x="243.57575757575756" y="1390.3030303030303" type="line"/>
      <point x="210.0" y="1390.3030303030303" type="line"/>
      <point x="1001.5757575757576" y="0.0" type="line"/>
      <point x="1096.6060606060605" y="0.0" type="line"/>
      <point x="1096.6060606060605" y="1480.0" type="line"/>
      <point x="1012.4242424242424" y="1480.0" type="line"/>
      <point x="1012.4242424242424" y="89.6969696969697" type="line"/>
      <point x="1046.0" y="89.6969696969697" type="line"/>
      <point x="254.42424242424244" y="1480.0" type="line"/>
      <point x="159.3939393939394" y="1480.0" type="line"/>
    </contour>
    <contour>
      <point x="758.5454545454545" y="1689.3333333333333" type="curve" smooth="yes"/>
      <point x="818.6060606060606" y="1689.3333333333333"/>
      <point x="865.4545454545455" y="1713.2121212121212"/>
      <point x="896.9090909090909" y="1752.1818181818182" type="curve"/>
      <point x="896.9090909090909" y="1828.3636363636363" type="line"/>
      <point x="857.4545454545455" y="1780.2424242424242"/>
      <point x="816.4848484848485" y="1756.121212121212"/>
      <point x="758.7878787878788" y="1756.121212121212" type="curve" smooth="yes"/>
      <point x="674.8484848484849" y="1756.121212121212"/>
      <point x="599.7575757575758" y="1834.3636363636363"/>
      <point x="497.45454545454544" y="1834.3636363636363" type="curve" smooth="yes"/>
      <point x="437.3939393939394" y="1834.3636363636363"/>
      <point x="390.54545454545456" y="1810.3636363636363"/>
      <point x="359.09090909090907" y="1771.3939393939395" type="curve"/>
      <point x="359.09090909090907" y="1695.2121212121212" type="line"/>
      <point x="398.54545454545456" y="1743.3333333333333"/>
      <point x="439.5151515151515" y="1767.4545454545455"/>
      <point x="497.2121212121212" y="1767.4545454545455" type="curve" smooth="yes"/>
      <point x="581.1515151515151" y="1767.4545454545455"/>
      <point x="656.2424242424242" y="1689.3333333333333"/>
    </contour>
  </outline>
</glyph>
<glyph name="Otilde" format="2">
  <advance width="1178.060606060606"/>
  <unicode hex="00D5"/>
  <anchor x="589.030303030303" y="1520.0" name="_top"/>
  <anchor x="589.030303030303" y="0.0" name="bottom"/>
  <anchor x="589.030303030303" y="740.0" name="center"/>
  <anchor x="732.1818181818181" y="0.0" name="ogonek"/>
  <anchor x="589.030303030303" y="1520.0" name="top"/>
  <anchor x="38.24242424242424" y="1480.0" name="topleft"/>
  <anchor x="731.6969696969697" y="1480.0" name="topright"/>
  <outline>
    <contour>
      <point x="589.030303030303" y="-18.12121212121212" type="curve" smooth="yes"/>
      <point x="890.1212121212121" y="-18.12121212121212"/>
      <point x="1082.7272727272727" y="183.33333333333334"/>
      <point x="1082.7272727272727" y="740.0" type="curve" smooth="yes"/>
      <point x="1082.7272727272727" y="1296.6666666666667"/>
      <point x="890.1212121212121" y="1498.121212121212"/>
      <point x="589.030303030303" y="1498.121212121212" type="curve" smooth="yes"/>
      <point x="287.93939393939394" y="1498.121212121212"/>
      <point x="95.33333333333333" y="1296.6666666666667"/>
      <point x="95.33333333333333" y="740.0" type="curve" smooth="yes"/>
      <point x="95.33333333333333" y="183.33333333333334"/>
      <point x="287.93939393939394" y="-18.12121212121212"/>
    </contour>
    <contour>
      <point x="589.030303030303" y="63.515151515151516" type="curve" smooth="yes"/>
      <point x="346.72727272727275" y="63.515151515151516"/>
      <point x="187.45454545454544" y="218.6060606060606"/>
      <point x="187.45454545454544" y="744.2424242424242" type="curve" smooth="yes"/>
      <point x="187.45454545454544" y="1261.3939393939395"/>
      <point x="346.72727272727275" y="1416.4848484848485"/>
      <point x="589.030303030303" y="1416.4848484848485" type="curve" smooth="yes"/>
      <point x="831.3333333333334" y="1416.4848484848485"/>
      <point x="990.6060606060606" y="1261.3939393939395"/>
      <point x="990.6060606060606" y="735.7575757575758" type="curve" smooth="yes"/>
      <point x="990.6060606060606" y="218.6060606060606"/>
      <point x="831.3333333333334" y="63.515151515151516"/>
    </contour>
    <contour>
      <point x="719.5757575757576" y="1689.3333333333333" type="curve" smooth="yes"/>
      <point x="779.6363636363636" y="1689.3333333333333"/>
      <point x="826.4848484848485" y="1713.2121212121212"/>
      <point x="857.939393939394" y="1752.1818181818182" type="curve"/>
      <point x="857.939393939394" y="1828.3636363636363" type="line"/>
      <point x="818.4848484848485" y="1780.2424242424242"/>
      <point x="777.5151515151515" y="1756.121212121212"/>
      <point x="719.8181818181819" y="1756.121212121212" type="curve" smooth="yes"/>
      <point x="635.8787878787879" y="1756.121212121212"/>
      <point x="560.7878787878788" y="1834.3636363636363"/>
      <point x="458.4848484848485" y="1834.3636363636363" type="curve" smooth="yes"/>
      <point x="398.42424242424244" y="1834.3636363636363"/>
      <point x="351.57575757575756" y="1810.3636363636363"/>
      <point x="320.1212121212121" y="1771.3939393939395" type="curve"/>
      <point x="320.1212121212121" y="1695.2121212121212" type="line"/>
      <point x="359.57575757575756" y="1743.3333333333333"/>
      <point x="400.54545454545456" y="1767.4545454545455"/>
      <point x="458.24242424242425" y="1767.4545454545455" type="curve" smooth="yes"/>
      <point x="542.1818181818181" y="1767.4545454545455"/>
      <point x="617.2727272727273" y="1689.3333333333333"/>
    </contour>
  </outline>
</glyph>
<glyph name="Odieresis" format="2">
  <advance width="1178.060606060606"/>
  <unicode hex="00D6"/>
  <anchor x="589.030303030303" y="1520.0" name="_top"/>
  <anchor x="589.030303030303" y="0.0" name="bottom"/>
  <anchor x="589.030303030303" y="740.0" name="center"/>
  <anchor x="732.1818181818181" y="0.0" name="ogonek"/>
  <anchor x="589.030303030303" y="1520.0" name="top"/>
  <anchor x="38.24242424242424" y="1480.0" name="topleft"/>
  <anchor x="731.6969696969697" y="1480.0" name="topright"/>
  <outline>
    <contour>
      <point x="589.030303030303" y="-18.12121212121212" type="curve" smooth="yes"/>
      <point x="890.1212121212121" y="-18.12121212121212"/>
      <point x="1082.7272727272727" y="183.33333333333334"/>
      <point x="1082.7272727272727" y="740.0" type="curve" smooth="yes"/>
      <point x="1082.7272727272727" y="1296.6666666666667"/>
      <point x="890.1212121212121" y="1498.121212121212"/>
      <point x="589.030303030303" y="1498.121212121212" type="curve" smooth="yes"/>
      <point x="287.93939393939394" y="1498.121212121212"/>
      <point x="95.33333333333333" y="1296.6666666666667"/>
      <point x="95.33333333333333" y="740.0" type="curve" smooth="yes"/>
      <point x="95.33333333333333" y="183.33333333333334"/>
      <point x="287.93939393939394" y="-18.12121212121212"/>
    </contour>
    <contour>
      <point x="589.030303030303" y="63.515151515151516" type="curve" smooth="yes"/>
      <point x="346.72727272727275" y="63.515151515151516"/>
      <point x="187.45454545454544" y="218.6060606060606"/>
      <point x="187.45454545454544" y="744.2424242424242" type="curve" smooth="yes"/>
      <point x="187.45454545454544" y="1261.3939393939395"/>
      <point x="346.72727272727275" y="1416.4848484848485"/>
      <point x="589.030303030303" y="1416.4848484848485" type="curve" smooth="yes"/>
      <point x="831.3333333333334" y="1416.4848484848485"/>
      <point x="990.6060606060606" y="1261.3939393939395"/>
      <point x="990.6060606060606" y="735.7575757575758" type="curve" smooth="yes"/>
      <point x="990.6060606060606" y="218.6060606060606"/>
      <point x="831.3333333333334" y="63.515151515151516"/>
    </contour>
    <contour>
      <point x="773.2727272727273" y="1682.7272727272727" type="curve" smooth="yes"/>
      <point x="815.0909090909091" y="1682.7272727272727"/>
      <point x="844.1212121212121" y="1709.1515151515152"/>
      <point x="844.1212121212121" y="1751.878787878788" type="curve" smooth="yes"/>
      <point x="844.1212121212121" y="1794.6060606060605"/>
      <point x="815.0909090909091" y="1822.909090909091"/>
      <point x="773.2727272727273" y="1822.909090909091" type="curve" smooth="yes"/>
      <point x="731.4545454545455" y="1822.909090909091"/>
      <point x="702.4242424242424" y="1794.6060606060605"/>
      <point x="702.4242424242424" y="1751.878787878788" type="curve" smooth="yes"/>
      <point x="702.4242424242424" y="1709.1515151515152"/>
      <point x="731.4545454545455" y="1682.7272727272727"/>
    </contour>
    <contour>
      <point x="404.7878787878788" y="1682.7272727272727" type="curve" smooth="yes"/>
      <point x="446.6060606060606" y="1682.7272727272727"/>
      <point x="475.6363636363636" y="1709.1515151515152"/>
      <point x="475.6363636363636" y="1751.878787878788" type="curve" smooth="yes"/>
      <point x="475.6363636363636" y="1794.6060606060605"/>
      <point x="446.6060606060606" y="1822.909090909091"/>
      <point x="404.7878787878788" y="1822.909090909091" type="curve" smooth="yes"/>
      <point x="362.969696969697" y="1822.909090909091"/>
      <point x="333.93939393939394" y="1794.6060606060605"/>
      <point x="333.93939393939394" y="1751.878787878788" type="curve" smooth="yes"/>
      <point x="333.93939393939394" y="1709.1515151515152"/>
      <point x="362.969696969697" y="1682.7272727272727"/>
    </contour>
  </outline>
</glyph>
<glyph name="multiply" format="2">
  <advance width="951.6363636363636"/>
  <unicode hex="00D7"/>
  <outline>
    <contour>
      <point x="172.3030303030303" y="402.3030303030303" type="line"/>
      <point x="475.8181818181818" y="705.8181818181819" type="line"/>
      <point x="779.3333333333334" y="402.3030303030303" type="line"/>
      <point x="833.5151515151515" y="456.4848484848485" type="line"/>
      <point x="530.0" y="760.0" type="line"/>
      <point x="833.5151515151515" y="1063.5151515151515" type="line"/>
      <point x="779.3333333333334" y="1117.6969696969697" type="line"/>
      <point x="475.8181818181818" y="814.1818181818181" type="line"/>
      <point x="172.3030303030303" y="1117.6969696969697" type="line"/>
      <point x="118.12121212121212" y="1063.5151515151515" type="line"/>
      <point x="421.6363636363636" y="760.0" type="line"/>
      <point x="118.12121212121212" y="456.4848484848485" type="line"/>
    </contour>
  </outline>
</glyph>
<glyph name="Udieresis" format="2">
  <advance width="1206.4848484848485"/>
  <unicode hex="00DC"/>
  <anchor x="604.4848484848485" y="1520.0" name="_top"/>
  <anchor x="604.4848484848485" y="0.0" name="bottom"/>
  <anchor x="730.6060606060606" y="0.0" name="ogonek"/>
  <anchor x="604.4848484848485" y="1520.0" name="top"/>
  <anchor x="973.8181818181819" y="1480.0" name="topright"/>
  <outline>
    <contour>
      <point x="604.4848484848485" y="-18.12121212121212" type="curve" smooth="yes"/>
      <point x="921.2121212121212" y="-18.12121212121212"/>
      <point x="1054.969696969697" y="146.72727272727272"/>
      <point x="1054.969696969697" y="498.7878787878788" type="curve" smooth="yes"/>
      <point x="1054.969696969697" y="1480.0" type="line"/>
      <point x="969.6969696969697" y="1480.0" type="line"/>
      <point x="969.6969696969697" y="486.72727272727275" type="line" smooth="yes"/>
      <point x="969.6969696969697" y="200.9090909090909"/>
      <point x="865.6363636363636" y="63.75757575757576"/>
      <point x="604.4848484848485" y="63.75757575757576" type="curve" smooth="yes"/>
      <point x="343.3333333333333" y="63.75757575757576"/>
      <point x="239.15151515151516" y="200.9090909090909"/>
      <point x="239.15151515151516" y="486.72727272727275" type="curve" smooth="yes"/>
      <point x="239.15151515151516" y="1480.0" type="line"/>
      <point x="151.5151515151515" y="1480.0" type="line"/>
      <point x="151.5151515151515" y="498.7878787878788" type="line" smooth="yes"/>
      <point x="151.5151515151515" y="146.72727272727272"/>
      <point x="287.5151515151515" y="-18.12121212121212"/>
    </contour>
    <contour>
      <point x="788.7272727272727" y="1682.7272727272727" type="curve" smooth="yes"/>
      <point x="830.5454545454545" y="1682.7272727272727"/>
      <point x="859.5757575757576" y="1709.1515151515152"/>
      <point x="859.5757575757576" y="1751.878787878788" type="curve" smooth="yes"/>
      <point x="859.5757575757576" y="1794.6060606060605"/>
      <point x="830.5454545454545" y="1822.909090909091"/>
      <point x="788.7272727272727" y="1822.909090909091" type="curve" smooth="yes"/>
      <point x="746.9090909090909" y="1822.909090909091"/>
      <point x="717.8787878787879" y="1794.6060606060605"/>
      <point x="717.8787878787879" y="1751.878787878788" type="curve" smooth="yes"/>
      <point x="717.8787878787879" y="1709.1515151515152"/>
      <point x="746.9090909090909" y="1682.7272727272727"/>
    </contour>
    <contour>
      <point x="420.24242424242425" y="1682.7272727272727" type="curve" smooth="yes"/>
      <point x="462.06060606060606" y="1682.7272727272727"/>
      <point x="491.09090909090907" y="1709.1515151515152"/>
      <point x="491.09090909090907" y="1751.878787878788" type="curve" smooth="yes"/>
      <point x="491.09090909090907" y="1794.6060606060605"/>
      <point x="462.06060606060606" y="1822.909090909091"/>
      <point x="420.24242424242425" y="1822.909090909091" type="curve" smooth="yes"/>
      <point x="378.42424242424244" y="1822.909090909091"/>
      <point x="349.3939393939394" y="1794.6060606060605"/>
      <point x="349.3939393939394" y="1751.878787878788" type="curve" smooth="yes"/>
      <point x="349.3939393939394" y="1709.1515151515152"/>
      <point x="378.42424242424244" y="1682.7272727272727"/>
    </contour>
  </outline>
</glyph>
<glyph name="Yacute" format="2">
  <advance width="992.4848484848485"/>
  <unicode hex="00DD"/>
  <anchor x="496.42424242424244" y="1520.0" name="_top"/>
  <anchor x="496.3030303030303" y="0.0" name="bottom"/>
  <anchor x="496.42424242424244" y="1520.0" name="top"/>
  <anchor x="8.484848484848484" y="1480.0" name="topleft"/>
  <outline>
    <contour>
      <point x="452.4848484848485" y="0.0" type="line"/>
      <point x="540.1212121212121" y="0.0" type="line"/>
      <point x="540.1212121212121" y="711.7575757575758" type="line"/>
      <point x="520.2424242424242" y="640.3636363636364" type="line"/>
      <point x="1009.6363636363636" y="1480.0" type="line"/>
      <point x="915.4545454545455" y="1480.0" type="line"/>
      <point x="480.8484848484849" y="732.8484848484849" type="line"/>
      <point x="513.2121212121212" y="732.8484848484849" type="line"/>
      <point x="73.0909090909091" y="1480.0" type="line"/>
      <point x="-25.03030303030303" y="1480.0" type="line"/>
      <point x="472.3636363636364" y="640.3636363636364" type="line"/>
      <point x="452.4848484848485" y="712.1212121212121" type="line"/>
    </contour>
    <contour>
      <point x="459.6969696969697" y="1614.1818181818182" type="line"/>
      <point x="533.1515151515151" y="1614.1818181818182" type="line"/>
      <point x="681.6363636363636" y="1888.8484848484848" type="line"/>
      <point x="589.7575757575758" y="1888.8484848484848" type="line"/>
    </contour>
  </outline>
</glyph>
<glyph name="Thorn" format="2">
  <advance width="1073.939393939394"/>
  <unicode hex="00DE"/>
  <outline>
    <contour>
      <point x="159.3939393939394" y="0.0" type="line"/>
      <point x="247.03030303030303" y="0.0" type="line"/>
      <point x="247.03030303030303" y="275.75757575757575" type="line"/>
      <point x="303.57575757575756" y="270.1212121212121"/>
      <point x="357.6363636363636" y="268.1212121212121"/>
      <point x="418.3030303030303" y="268.1212121212121" type="curve" smooth="yes"/>
      <point x="800.1818181818181" y="268.1212121212121"/>
      <point x="974.7272727272727" y="437.2121212121212"/>
      <point x="974.7272727272727" y="758.1212121212121" type="curve" smooth="yes"/>
      <point x="974.7272727272727" y="1097.030303030303"/>
      <point x="800.060606060606" y="1252.0"/>
      <point x="455.09090909090907" y="1252.0" type="curve" smooth="yes"/>
      <point x="377.09090909090907" y="1252.0"/>
      <point x="296.8484848484849" y="1244.3636363636363"/>
      <point x="247.03030303030303" y="1236.8484848484848" type="curve"/>
      <point x="247.03030303030303" y="1480.0" type="line"/>
      <point x="159.3939393939394" y="1480.0" type="line"/>
    </contour>
    <contour>
      <point x="423.93939393939394" y="349.1515151515151" type="curve" smooth="yes"/>
      <point x="363.27272727272725" y="349.1515151515151"/>
      <point x="305.2121212121212" y="351.1515151515151"/>
      <point x="247.03030303030303" y="358.90909090909093" type="curve"/>
      <point x="247.03030303030303" y="1155.4545454545455" type="line"/>
      <point x="314.3636363636364" y="1165.2121212121212"/>
      <point x="383.3333333333333" y="1170.969696969697"/>
      <point x="457.1515151515151" y="1170.969696969697" type="curve" smooth="yes"/>
      <point x="748.1818181818181" y="1170.969696969697"/>
      <point x="884.060606060606" y="1046.3636363636363"/>
      <point x="884.060606060606" y="754.1212121212121" type="curve" smooth="yes"/>
      <point x="884.060606060606" y="478.7878787878788"/>
      <point x="738.7878787878788" y="349.1515151515151"/>
    </contour>
  </outline>
</glyph>
<glyph name="germandbls" format="2">
  <advance width="1146.4242424242425"/>
  <unicode hex="00DF"/>
  <outline>
    <contour>
      <point x="740.7272727272727" y="-18.242424242424242" type="curve" smooth="yes"/>
      <point x="957.8181818181819" y="-18.242424242424242"/>
      <point x="1085.2121212121212" y="93.6969696969697"/>
      <point x="1085.2121212121212" y="282.3636363636364" type="curve" smooth="yes"/>
      <point x="1085.2121212121212" y="425.5151515151515"/>
      <point x="1028.7878787878788" y="523.030303030303"/>
      <point x="838.8484848484849" y="576.060606060606" type="curve" smooth="yes"/>
      <point x="742.7272727272727" y="602.7878787878788" type="line" smooth="yes"/>
      <point x="628.060606060606" y="635.2121212121212"/>
      <point x="574.4848484848485" y="695.939393939394"/>
      <point x="574.4848484848485" y="806.3636363636364" type="curve" smooth="yes"/>
      <point x="574.4848484848485" y="922.9090909090909"/>
      <point x="657.0909090909091" y="1017.030303030303"/>
      <point x="838.7878787878788" y="1017.030303030303" type="curve" smooth="yes"/>
      <point x="895.8181818181819" y="1017.030303030303"/>
      <point x="926.9090909090909" y="1011.2727272727273"/>
      <point x="968.6666666666666" y="1001.5151515151515" type="curve"/>
      <point x="977.7575757575758" y="1041.030303030303"/>
      <point x="992.0" y="1124.3636363636363"/>
      <point x="992.0" y="1203.939393939394" type="curve" smooth="yes"/>
      <point x="992.0" y="1514.6666666666667"/>
      <point x="828.1212121212121" y="1636.0"/>
      <point x="608.9090909090909" y="1636.0" type="curve" smooth="yes"/>
      <point x="361.3333333333333" y="1636.0"/>
      <point x="204.36363636363637" y="1490.1818181818182"/>
      <point x="204.36363636363637" y="1163.5151515151515" type="curve" smooth="yes"/>
      <point x="204.36363636363637" y="0.0" type="line"/>
      <point x="291.6363636363636" y="0.0" type="line"/>
      <point x="291.6363636363636" y="1157.7575757575758" type="line" smooth="yes"/>
      <point x="291.6363636363636" y="1455.030303030303"/>
      <point x="416.72727272727275" y="1557.2727272727273"/>
      <point x="612.3636363636364" y="1557.2727272727273" type="curve" smooth="yes"/>
      <point x="781.8181818181819" y="1557.2727272727273"/>
      <point x="915.2727272727273" y="1470.8484848484848"/>
      <point x="915.2727272727273" y="1202.3030303030303" type="curve" smooth="yes"/>
      <point x="915.2727272727273" y="1147.3333333333333"/>
      <point x="909.030303030303" y="1098.3636363636363"/>
      <point x="900.5454545454545" y="1051.2727272727273" type="curve"/>
      <point x="941.1515151515151" y="1084.969696969697" type="line"/>
      <point x="905.1515151515151" y="1092.7272727272727"/>
      <point x="862.969696969697" y="1094.7272727272727"/>
      <point x="836.3636363636364" y="1094.7272727272727" type="curve" smooth="yes"/>
      <point x="611.939393939394" y="1094.7272727272727"/>
      <point x="487.6363636363636" y="970.2424242424242"/>
      <point x="487.6363636363636" y="802.7272727272727" type="curve" smooth="yes"/>
      <point x="487.6363636363636" y="661.5757575757576"/>
      <point x="549.939393939394" y="567.2121212121212"/>
      <point x="728.4848484848485" y="518.060606060606" type="curve" smooth="yes"/>
      <point x="824.6060606060606" y="491.3333333333333" type="line" smooth="yes"/>
      <point x="937.3939393939394" y="458.90909090909093"/>
      <point x="998.3636363636364" y="403.6969696969697"/>
      <point x="998.3636363636364" y="278.1212121212121" type="curve" smooth="yes"/>
      <point x="998.3636363636364" y="138.78787878787878"/>
      <point x="904.7272727272727" y="62.06060606060606"/>
      <point x="736.7272727272727" y="62.06060606060606" type="curve" smooth="yes"/>
      <point x="664.9090909090909" y="62.06060606060606"/>
      <point x="594.7272727272727" y="72.3030303030303"/>
      <point x="506.8484848484849" y="100.06060606060606" type="curve"/>
      <point x="506.8484848484849" y="17.87878787878788" type="line"/>
      <point x="578.4242424242424" y="-6.242424242424242"/>
      <point x="656.0" y="-18.242424242424242"/>
    </contour>
    <contour>
      <point x="8.0" y="1001.030303030303" type="line"/>
      <point x="258.6666666666667" y="1001.030303030303" type="line"/>
      <point x="258.6666666666667" y="1081.2121212121212" type="line"/>
      <point x="8.0" y="1081.2121212121212" type="line"/>
    </contour>
  </outline>
</glyph>
<glyph name="ae" format="2">
  <advance width="1403.8181818181818"/>
  <unicode hex="00E6"/>
  <anchor x="688.1212121212121" y="0.0" name="bottom"/>
  <anchor x="688.1212121212121" y="1200.0" name="top"/>
  <outline>
    <contour>
      <point x="1053.878787878788" y="-18.242424242424242" type="curve" smooth="yes"/>
      <point x="1121.939393939394" y="-18.242424242424242"/>
      <point x="1194.909090909091" y="-8.121212121212121"/>
      <point x="1282.2424242424242" y="21.515151515151516" type="curve"/>
      <point x="1282.2424242424242" y="103.81818181818181" type="line"/>
      <point x="1188.8484848484848" y="74.42424242424242"/>
      <point x="1119.878787878788" y="62.303030303030305"/>
      <point x="1060.4242424242425" y="62.303030303030305" type="curve" smooth="yes"/>
      <point x="842.8484848484849" y="62.303030303030305"/>
      <point x="731.0909090909091" y="173.93939393939394"/>
      <point x="731.0909090909091" y="530.2424242424242" type="curve" smooth="yes"/>
      <point x="731.0909090909091" y="557.6969696969697" type="line" smooth="yes"/>
      <point x="731.0909090909091" y="922.060606060606"/>
      <point x="841.6363636363636" y="1022.1818181818181"/>
      <point x="990.060606060606" y="1022.1818181818181" type="curve" smooth="yes"/>
      <point x="1138.3636363636363" y="1022.1818181818181"/>
      <point x="1241.2727272727273" y="927.6969696969697"/>
      <point x="1241.2727272727273" y="546.4242424242424" type="curve"/>
      <point x="1259.5757575757575" y="581.2121212121212" type="line"/>
      <point x="703.2121212121212" y="581.2121212121212" type="line"/>
      <point x="703.2121212121212" y="505.3939393939394" type="line"/>
      <point x="1330.6060606060605" y="505.3939393939394" type="line"/>
      <point x="1330.6060606060605" y="540.2424242424242" type="line" smooth="yes"/>
      <point x="1330.6060606060605" y="959.6969696969697"/>
      <point x="1196.6666666666667" y="1099.2121212121212"/>
      <point x="991.3939393939394" y="1099.2121212121212" type="curve" smooth="yes"/>
      <point x="790.9090909090909" y="1099.2121212121212"/>
      <point x="655.1515151515151" y="956.4848484848485"/>
      <point x="655.1515151515151" y="552.6666666666666" type="curve"/>
      <point x="645.030303030303" y="540.969696969697" type="line"/>
      <point x="645.030303030303" y="127.45454545454545"/>
      <point x="785.6363636363636" y="-18.242424242424242"/>
    </contour>
    <contour>
      <point x="368.969696969697" y="-16.363636363636363" type="curve" smooth="yes"/>
      <point x="500.6060606060606" y="-16.363636363636363"/>
      <point x="627.5151515151515" y="36.54545454545455"/>
      <point x="719.1515151515151" y="217.5151515151515" type="curve"/>
      <point x="678.0" y="288.42424242424244" type="line"/>
      <point x="607.8181818181819" y="116.3030303030303"/>
      <point x="492.7878787878788" y="62.84848484848485"/>
      <point x="381.1515151515151" y="62.84848484848485" type="curve" smooth="yes"/>
      <point x="250.12121212121212" y="62.84848484848485"/>
      <point x="171.03030303030303" y="130.42424242424244"/>
      <point x="171.03030303030303" y="274.6060606060606" type="curve" smooth="yes"/>
      <point x="171.03030303030303" y="409.8787878787879"/>
      <point x="242.72727272727272" y="506.24242424242425"/>
      <point x="444.6060606060606" y="506.24242424242425" type="curve" smooth="yes"/>
      <point x="682.7272727272727" y="506.24242424242425" type="line"/>
      <point x="682.7272727272727" y="581.2121212121212" type="line"/>
      <point x="443.57575757575756" y="581.2121212121212" type="line" smooth="yes"/>
      <point x="178.66666666666666" y="581.2121212121212"/>
      <point x="78.84848484848484" y="450.3636363636364"/>
      <point x="78.84848484848484" y="265.030303030303" type="curve" smooth="yes"/>
      <point x="78.84848484848484" y="81.45454545454545"/>
      <point x="199.33333333333334" y="-16.363636363636363"/>
    </contour>
    <contour>
      <point x="645.030303030303" y="540.969696969697" type="line"/>
      <point x="721.0909090909091" y="531.5757575757576" type="line"/>
      <point x="721.0909090909091" y="754.5454545454545" type="line" smooth="yes"/>
      <point x="721.0909090909091" y="1008.8484848484849"/>
      <point x="607.2121212121212" y="1097.3333333333333"/>
      <point x="392.6666666666667" y="1097.3333333333333" type="curve" smooth="yes"/>
      <point x="311.57575757575756" y="1097.3333333333333"/>
      <point x="209.6969696969697" y="1081.6969696969697"/>
      <point x="134.9090909090909" y="1053.6969696969697" type="curve"/>
      <point x="134.9090909090909" y="971.3939393939394" type="line"/>
      <point x="224.54545454545453" y="1002.9090909090909"/>
      <point x="316.7878787878788" y="1016.7878787878788"/>
      <point x="386.90909090909093" y="1016.7878787878788" type="curve" smooth="yes"/>
      <point x="553.2121212121212" y="1016.7878787878788"/>
      <point x="645.030303030303" y="960.0"/>
      <point x="645.030303030303" y="755.6969696969697" type="curve" smooth="yes"/>
    </contour>
  </outline>
</glyph>
<glyph name="igrave" format="2">
  <advance width="367.3939393939394"/>
  <unicode hex="00EC"/>
  <anchor x="183.6969696969697" y="1200.0" name="_top"/>
  <anchor x="183.6969696969697" y="0.0" name="bottom"/>
  <anchor x="227.3939393939394" y="0.0" name="ogonek"/>
  <anchor x="183.6969696969697" y="1200.0" name="top"/>
  <outline>
    <contour>
      <point x="140.0" y="0.0" type="line"/>
      <point x="227.3939393939394" y="0.0" type="line"/>
      <point x="227.3939393939394" y="1081.2121212121212" type="line"/>
      <point x="140.0" y="1081.2121212121212" type="line"/>
    </contour>
    <contour>
      <point x="147.21212121212122" y="1261.3333333333333" type="line"/>
      <point x="220.1818181818182" y="1261.3333333333333" type="line"/>
      <point x="68.54545454545455" y="1616.0" type="line"/>
      <point x="-22.606060606060606" y="1616.0" type="line"/>
    </contour>
  </outline>
</glyph>
<glyph name="icircumflex" format="2">
  <advance width="367.3939393939394"/>
  <unicode hex="00EE"/>
  <anchor x="183.6969696969697" y="1200.0" name="_top"/>
  <anchor x="183.6969696969697" y="0.0" name="bottom"/>
  <anchor x="227.3939393939394" y="0.0" name="ogonek"/>
  <anchor x="183.6969696969697" y="1200.0" name="top"/>
  <outline>
    <contour>
      <point x="140.0" y="0.0" type="line"/>
      <point x="227.3939393939394" y="0.0" type="line"/>
      <point x="227.3939393939394" y="1081.2121212121212" type="line"/>
      <point x="140.0" y="1081.2121212121212" type="line"/>
    </contour>
    <contour>
      <point x="-38.78787878787879" y="1261.3333333333333" type="line"/>
      <point x="36.84848484848485" y="1261.3333333333333" type="line"/>
      <point x="192.54545454545453" y="1584.060606060606" type="line"/>
      <point x="174.84848484848484" y="1584.060606060606" type="line"/>
      <point x="330.54545454545456" y="1261.3333333333333" type="line"/>
      <point x="406.1818181818182" y="1261.3333333333333" type="line"/>
      <point x="229.21212121212122" y="1616.0" type="line"/>
      <point x="138.1818181818182" y="1616.0" type="line"/>
    </contour>
  </outline>
</glyph>
<glyph name="idieresis" format="2">
  <advance width="367.3939393939394"/>
  <unicode hex="00EF"/>
  <anchor x="183.6969696969697" y="1200.0" name="_top"/>
  <anchor x="183.6969696969697" y="0.0" name="bottom"/>
  <anchor x="227.3939393939394" y="0.0" name="ogonek"/>
  <anchor x="183.6969696969697" y="1200.0" name="top"/>
  <outline>
    <contour>
      <point x="140.0" y="0.0" type="line"/>
      <point x="227.3939393939394" y="0.0" type="line"/>
      <point x="227.3939393939394" y="1081.2121212121212" type="line"/>
      <point x="140.0" y="1081.2121212121212" type="line"/>
    </contour>
    <contour>
      <point x="348.6666666666667" y="1351.5151515151515" type="curve" smooth="yes"/>
      <point x="390.0" y="1351.5151515151515"/>
      <point x="419.27272727272725" y="1378.5454545454545"/>
      <point x="419.27272727272725" y="1421.7575757575758" type="curve" smooth="yes"/>
      <point x="419.27272727272725" y="1464.969696969697"/>
      <point x="390.0" y="1493.878787878788"/>
      <point x="348.6666666666667" y="1493.878787878788" type="curve" smooth="yes"/>
      <point x="307.3333333333333" y="1493.878787878788"/>
      <point x="278.06060606060606" y="1464.969696969697"/>
      <point x="278.06060606060606" y="1421.7575757575758" type="curve" smooth="yes"/>
      <point x="278.06060606060606" y="1378.5454545454545"/>
      <point x="307.3333333333333" y="1351.5151515151515"/>
    </contour>
    <contour>
      <point x="18.727272727272727" y="1351.5151515151515" type="curve" smooth="yes"/>
      <point x="60.06060606060606" y="1351.5151515151515"/>
      <point x="89.33333333333333" y="1378.5454545454545"/>
      <point x="89.33333333333333" y="1421.7575757575758" type="curve" smooth="yes"/>
      <point x="89.33333333333333" y="1464.969696969697"/>
      <point x="60.06060606060606" y="1493.878787878788"/>
      <point x="18.727272727272727" y="1493.878787878788" type="curve" smooth="yes"/>
      <point x="-22.606060606060606" y="1493.878787878788"/>
      <point x="-51.878787878787875" y="1464.969696969697"/>
      <point x="-51.878787878787875" y="1421.7575757575758" type="curve" smooth="yes"/>
      <point x="-51.878787878787875" y="1378.5454545454545"/>
      <point x="-22.606060606060606" y="1351.5151515151515"/>
    </contour>
  </outline>
</glyph>
<glyph name="eth" format="2">
  <advance width="921.4545454545455"/>
  <unicode hex="00F0"/>
  <outline>
    <contour>
      <point x="462.6060606060606" y="-18.484848484848484" type="curve" smooth="yes"/>
      <point x="690.3030303030303" y="-18.484848484848484"/>
      <point x="834.4848484848485" y="152.12121212121212"/>
      <point x="834.4848484848485" y="573.030303030303" type="curve" smooth="yes"/>
      <point x="834.4848484848485" y="975.3333333333334"/>
      <point x="630.969696969697" y="1416.909090909091"/>
      <point x="388.6060606060606" y="1616.0" type="curve"/>
      <point x="280.8484848484849" y="1616.0" type="line"/>
      <point x="513.2727272727273" y="1418.4848484848485"/>
      <point x="631.7575757575758" y="1177.8181818181818"/>
      <point x="692.1212121212121" y="954.0" type="curve"/>
      <point x="712.2424242424242" y="969.939393939394" type="line"/>
      <point x="640.4242424242424" y="1069.878787878788"/>
      <point x="551.5757575757576" y="1096.969696969697"/>
      <point x="458.90909090909093" y="1096.969696969697" type="curve" smooth="yes"/>
      <point x="231.75757575757575" y="1096.969696969697"/>
      <point x="85.0909090909091" y="947.5151515151515"/>
      <point x="85.0909090909091" y="540.1212121212121" type="curve" smooth="yes"/>
      <point x="85.0909090909091" y="133.33333333333334"/>
      <point x="234.9090909090909" y="-18.484848484848484"/>
    </contour>
    <contour>
      <point x="462.6060606060606" y="60.72727272727273" type="curve" smooth="yes"/>
      <point x="287.5151515151515" y="60.72727272727273"/>
      <point x="176.6060606060606" y="168.36363636363637"/>
      <point x="176.6060606060606" y="543.7575757575758" type="curve" smooth="yes"/>
      <point x="176.6060606060606" y="911.7575757575758"/>
      <point x="287.75757575757575" y="1017.7575757575758"/>
      <point x="460.72727272727275" y="1017.7575757575758" type="curve" smooth="yes"/>
      <point x="633.6969696969697" y="1017.7575757575758"/>
      <point x="744.8484848484849" y="911.7575757575758"/>
      <point x="744.8484848484849" y="536.0" type="curve" smooth="yes"/>
      <point x="744.8484848484849" y="187.15151515151516"/>
      <point x="630.1818181818181" y="60.72727272727273"/>
    </contour>
    <contour>
      <point x="182.3030303030303" y="1254.5454545454545" type="line"/>
      <point x="814.1212121212121" y="1363.7575757575758" type="line"/>
      <point x="801.8181818181819" y="1430.3636363636363" type="line"/>
      <point x="170.0" y="1321.1515151515152" type="line"/>
    </contour>
  </outline>
</glyph>
<glyph name="ntilde" format="2">
  <advance width="940.1818181818181"/>
  <unicode hex="00F1"/>
  <anchor x="474.969696969697" y="1200.0" name="_top"/>
  <anchor x="10.0" y="1200.0" name="apostrophe"/>
  <anchor x="474.969696969697" y="0.0" name="bottom"/>
  <anchor x="474.969696969697" y="1200.0" name="top"/>
  <outline>
    <contour>
      <point x="140.0" y="0.0" type="line"/>
      <point x="227.27272727272728" y="0.0" type="line"/>
      <point x="227.27272727272728" y="843.0909090909091" type="line"/>
      <point x="298.1212121212121" y="972.3030303030303"/>
      <point x="424.3030303030303" y="1014.6060606060606"/>
      <point x="513.030303030303" y="1014.6060606060606" type="curve" smooth="yes"/>
      <point x="637.939393939394" y="1014.6060606060606"/>
      <point x="722.5454545454545" y="955.030303030303"/>
      <point x="722.5454545454545" y="768.1818181818181" type="curve" smooth="yes"/>
      <point x="722.5454545454545" y="0.0" type="line"/>
      <point x="809.8181818181819" y="0.0" type="line"/>
      <point x="809.8181818181819" y="771.8787878787879" type="line" smooth="yes"/>
      <point x="809.8181818181819" y="1019.2727272727273"/>
      <point x="686.8484848484849" y="1097.3333333333333"/>
      <point x="525.6363636363636" y="1097.3333333333333" type="curve" smooth="yes"/>
      <point x="408.0" y="1097.3333333333333"/>
      <point x="304.969696969697" y="1045.8181818181818"/>
      <point x="231.57575757575756" y="957.939393939394" type="curve"/>
      <point x="223.0909090909091" y="957.939393939394" type="line"/>
      <point x="215.75757575757575" y="1081.2121212121212" type="line"/>
      <point x="140.0" y="1081.2121212121212" type="line"/>
    </contour>
    <contour>
      <point x="595.3939393939394" y="1372.121212121212" type="curve" smooth="yes"/>
      <point x="653.0909090909091" y="1372.121212121212"/>
      <point x="699.939393939394" y="1396.121212121212"/>
      <point x="731.3939393939394" y="1435.3333333333333" type="curve"/>
      <point x="731.3939393939394" y="1512.4848484848485" type="line"/>
      <point x="691.939393939394" y="1463.6363636363637"/>
      <point x="650.969696969697" y="1439.3939393939395"/>
      <point x="595.6363636363636" y="1439.3939393939395" type="curve" smooth="yes"/>
      <point x="521.8181818181819" y="1439.3939393939395"/>
      <point x="446.72727272727275" y="1518.4848484848485"/>
      <point x="354.54545454545456" y="1518.4848484848485" type="curve" smooth="yes"/>
      <point x="296.8484848484849" y="1518.4848484848485"/>
      <point x="250.0" y="1494.4848484848485"/>
      <point x="218.54545454545453" y="1455.2727272727273" type="curve"/>
      <point x="218.54545454545453" y="1378.121212121212" type="line"/>
      <point x="258.0" y="1426.969696969697"/>
      <point x="298.969696969697" y="1451.2121212121212"/>
      <point x="354.3030303030303" y="1451.2121212121212" type="curve" smooth="yes"/>
      <point x="428.1212121212121" y="1451.2121212121212"/>
      <point x="503.2121212121212" y="1372.121212121212"/>
    </contour>
  </outline>
</glyph>
